<svg class="icon icon-logo icon-logo-dims hidden-md-down" viewBox="0 0 140 40">
<title>Aetrex</title>
<g fill="none"><path fill="#000" d="M92.846 26.226H89.92v-14.33h-1.74V9.183h1.74V5.357h2.926v3.826h2.995v2.713h-2.995v14.33zm7.418-17.043v1.808c1.497-1.774 2.229-2.191 3.83-2.191 1.045 0 1.533.14 2.612.696l-1.393 2.643c-.696-.452-1.08-.591-1.671-.591-2.368 0-3.378 1.67-3.378 5.704v8.974h-2.926V9.183h2.926zm22.184 8.59h-.035v.627h-13.269c.14 3.478 2.264 5.74 5.398 5.74 2.264 0 3.622-.905 5.259-3.583l2.473 1.39c-.801 1.427-1.22 1.983-2.09 2.714-1.497 1.356-3.552 2.052-5.746 2.052-4.945 0-8.393-3.617-8.393-8.87 0-5.356 3.378-9.008 8.254-9.008 4.91 0 8.149 3.548 8.149 8.939zm-13.095-1.877h10.03c-.522-2.713-2.507-4.453-5.015-4.453-2.507 0-4.597 1.879-5.015 4.453zm-22.08 1.878h-.034v.626H73.97c.14 3.478 2.264 5.74 5.398 5.74 2.264 0 3.622-.905 5.259-3.583l2.473 1.39c-.801 1.427-1.22 1.983-2.09 2.714-1.498 1.356-3.552 2.052-5.746 2.052-4.946 0-8.393-3.617-8.393-8.87 0-5.356 3.343-9.008 8.253-9.008s8.15 3.548 8.15 8.939zm-13.129-1.878h10.03c-.522-2.713-2.507-4.453-5.015-4.453-2.507 0-4.597 1.879-5.015 4.453zm64.776-6.713l-13.547 17.043h-3.622l13.513-17.043h3.656zm-8.427 5.356l-1.777 2.191-5.92-7.547h3.552l4.145 5.356zm2.403 2.922l6.86 8.8h-3.482l-5.155-6.574 1.777-2.226zM65.75 9.635V9.6h2.96v16.626h-2.786v-2.191s-1.393 1.182-2.298 1.67c-.94.486-2.055.973-3.761.973-4.771 0-8.22-3.756-8.22-8.974 0-5.147 3.414-8.87 8.15-8.87 2.473 0 4.284.8 5.955 2.783V9.635zm-5.537 14.678c3.274 0 5.92-2.956 5.955-6.54 0-3.616-2.681-6.538-5.955-6.538-3.309 0-5.955 2.922-5.955 6.539 0 3.617 2.681 6.539 5.955 6.539zm-33.432-7.061c.035 4.07-18.771 13.878-21.418 15.235 3.483-3.2 12.294-12.313 12.259-14.609-.035-1.774-3.552-4.521-9.995-10.33 4.597 1.009 19.084 6.922 19.154 9.704"></path><path fill="#E0C5AC" d="M22.219 25.496C10.726 17.704 3.309 8.59 5.154 5.913c1.811-2.678 13.025.87 24.518 8.66 11.492 7.792 18.91 16.87 17.1 19.549-1.847 2.713-13.06-.835-24.553-8.626zm28.557 3.582c-.8-1.774-2.16-3.756-3.97-5.878-3.587-4.174-8.706-8.626-14.488-12.557-5.746-3.895-11.806-7.06-16.995-8.834-2.646-.905-4.98-1.426-6.93-1.53-4.11-.21-6.164 1.495-7.174 2.956-1.01 1.46-1.811 4-.105 7.756.801 1.774 2.16 3.757 3.97 5.879 3.588 4.173 8.707 8.626 14.488 12.556 5.746 3.896 11.806 7.061 16.995 8.835 2.682.904 5.015 1.426 6.93 1.53 4.11.209 6.165-1.495 7.175-2.956 1.01-1.461 1.845-4 .104-7.757z"></path><path fill="#000" d="M25.11 22.783c-.07-4.07 18.736-13.879 21.417-15.235-3.482 3.2-12.293 12.313-12.258 14.609.034 1.773 3.552 4.521 9.995 10.33-4.597-.974-19.12-6.922-19.155-9.704"></path></g></svg>