<svg class="durango-header-logo" xmlns="http://www.w3.org/2000/svg" viewBox="0 0 185.19 31.03" style="max-height:40px;"><defs><style>.cls-1{fill:#e1251b;}</style></defs><title> Durango Logo</title><path class="cls-1" d="M20.62,4.89H5.25A.15.15,0,0,0,5.1,5v3.6a.15.15,0,0,0,.15.15H6.43a2.08,2.08,0,0,1,2.08,2.08v18A2.09,2.09,0,0,1,6.43,31H5.26a.14.14,0,0,0-.15.15v3.65a.15.15,0,0,0,.15.15H18.88c9.7,0,13.16-7.78,13.16-15C32,7.49,25.83,4.89,20.62,4.89ZM18.88,31H17.1A1.12,1.12,0,0,1,16,29.85V10A1.12,1.12,0,0,1,17.1,8.86H20c3.09,0,4.66,3.72,4.66,11.05C24.61,25.25,22.3,31,18.88,31Zm91,0h-.54a1.1,1.1,0,0,1-1.06-.8L100.69,5a.13.13,0,0,0-.14-.11H94.19a.14.14,0,0,0-.14.11l-7.4,24.43A2.2,2.2,0,0,1,84.54,31c-2.09,0-2.21-1.38-2.85-5.65l-.12-.82c-.25-1.59-.57-3.06-1.71-3.67l-.46-.24.42-.31a8.05,8.05,0,0,0,3.36-6.52v-.84a8.06,8.06,0,0,0-8-8.06H59a.14.14,0,0,0-.14.15v3.6a.15.15,0,0,0,.14.15H60.2a2.09,2.09,0,0,1,2.09,2.08v18A2.1,2.1,0,0,1,60.2,31H59a.15.15,0,0,0-.15.15v3.65a.15.15,0,0,0,.15.15H72a.15.15,0,0,0,.15-.15V31.14A.14.14,0,0,0,72,31H70.92a2.09,2.09,0,0,1-2.08-2.09V21.82h3.64c1.36,0,2.34,1.23,2.68,3.39l.12.79c0,.17,0,.39.07.64.27,2.48.9,8.3,7.6,8.3h12a.15.15,0,0,0,.15-.15V31.14a.15.15,0,0,0-.15-.15h-2a1.12,1.12,0,0,1-.89-.45,1.1,1.1,0,0,1-.18-1L93,25.69h7.08l1.16,3.86a1.1,1.1,0,0,1-.17,1,1.12,1.12,0,0,1-.89.45H98.54a.15.15,0,0,0-.15.15v3.65a.15.15,0,0,0,.15.15h11.37a.15.15,0,0,0,.14-.15V31.14A.14.14,0,0,0,109.91,31ZM76.69,13.78a3.58,3.58,0,0,1-3.21,3.57H68.84V10.64a1.3,1.3,0,0,1,1.29-1.3h3a3.61,3.61,0,0,1,3.6,3.6Zm17.6,7.55L96.51,14l2.22,7.36ZM136.88,5v3.6a.15.15,0,0,1-.15.15h-.6a2.08,2.08,0,0,0-2.08,2.08v23.9a.18.18,0,0,1-.18.17h-6.13a.37.37,0,0,1-.34-.23l-8.7-20.85v15A2.09,2.09,0,0,0,120.78,31h.53a.12.12,0,0,1,.13.13v3.69a.13.13,0,0,1-.13.13h-9.56a.15.15,0,0,1-.15-.15V31.14a.15.15,0,0,1,.15-.15h.7a2.1,2.1,0,0,0,2.09-2.09v-18a2.09,2.09,0,0,0-2.09-2.08h-1.22a.15.15,0,0,1-.15-.15V5a.15.15,0,0,1,.15-.15h12.13a.15.15,0,0,1,.14.09l6.14,14.7V10.87a2.09,2.09,0,0,0-2.09-2.08h-.38a.15.15,0,0,1-.15-.15V5a.15.15,0,0,1,.15-.15h9.56A.15.15,0,0,1,136.88,5Zm36.81-.91h-.95a10.37,10.37,0,0,0-10.36,10.36V24.81a10.37,10.37,0,0,0,10.36,10.36h.95a10.37,10.37,0,0,0,10.36-10.36V14.49A10.37,10.37,0,0,0,173.69,4.13Zm2.77,23.4a3.38,3.38,0,1,1-6.76,0V11.21a3.38,3.38,0,1,1,6.76,0ZM160.5,21v3.49s-.14.08-.15.08a2.19,2.19,0,0,0-1.79,2.14v8a.16.16,0,0,1-.17.17h-3.13a.17.17,0,0,1-.17-.19,1.11,1.11,0,0,0-1.68-1,10.46,10.46,0,0,1-5.21,1.4h-.95a10.37,10.37,0,0,1-10.36-10.36V14.49A10.37,10.37,0,0,1,147.25,4.13h.95a10.36,10.36,0,0,1,5.21,1.41,1.12,1.12,0,0,0,1.48-.33,2.32,2.32,0,0,1,.26-.31h3.27a.15.15,0,0,1,.14.15V18.31a.14.14,0,0,1-.15.14H153a.15.15,0,0,1-.15-.14v-6a4.42,4.42,0,0,0-4.55-4.42,4.54,4.54,0,0,0-4.28,4.59V26.61a4.41,4.41,0,0,0,1.34,3.17A4.36,4.36,0,0,0,148.6,31a4.54,4.54,0,0,0,4.28-4.58v-.77a1.11,1.11,0,0,0-1.11-1.11h-1.4a.15.15,0,0,1-.15-.15V21a.15.15,0,0,1,.15-.15h10A.17.17,0,0,1,160.5,21ZM57.34,5v3.6a.15.15,0,0,1-.15.15H56.3a2.08,2.08,0,0,0-2.08,2.08V27.31A7.66,7.66,0,0,1,46.57,35H42.29a7.66,7.66,0,0,1-7.65-7.65V10.87a2.08,2.08,0,0,0-2.08-2.08H31.35a.15.15,0,0,1-.15-.15V5a.14.14,0,0,1,.15-.15h13a.15.15,0,0,1,.15.15v3.6a.15.15,0,0,1-.15.15H43.28a2.08,2.08,0,0,0-2.08,2.08V27.31A3.73,3.73,0,0,0,44.92,31h1.19a3.73,3.73,0,0,0,3.72-3.73V10.87a2.08,2.08,0,0,0-2.08-2.08h-.82a.15.15,0,0,1-.14-.15V5a.14.14,0,0,1,.14-.15H57.19A.15.15,0,0,1,57.34,5Z" transform="translate(-5.1 -4.13)"></path><path class="cls-1" d="M189.09,6.28a2.64,2.64,0,0,1,0,3.74,2.49,2.49,0,0,1-1.86.78,2.53,2.53,0,0,1-1.87-.76,2.64,2.64,0,0,1-.77-1.88,2.57,2.57,0,0,1,.76-1.87,2.63,2.63,0,0,1,3.73,0m.3-.3a2.94,2.94,0,0,0-2.17-.89,3,3,0,0,0-2.16.9,2.93,2.93,0,0,0-.88,2.17,2.94,2.94,0,0,0,.9,2.17,2.93,2.93,0,0,0,2.16.9,3.07,3.07,0,0,0,3.06-3.09A3,3,0,0,0,189.39,6m-1.7,2a1.65,1.65,0,0,1-.57.08h-.53V6.87h.51a1.31,1.31,0,0,1,.71.12.51.51,0,0,1,.23.49.51.51,0,0,1-.34.52M186,9.83h.59V8.5h.47a1.51,1.51,0,0,1,.66.1.84.84,0,0,1,.32.77v.42a0,0,0,0,0,0,0h.55l0,0a1.06,1.06,0,0,1,0-.18V9.11a.94.94,0,0,0-.18-.53.89.89,0,0,0-.58-.33,1.28,1.28,0,0,0,.48-.16.71.71,0,0,0,.33-.66.83.83,0,0,0-.53-.85,2.55,2.55,0,0,0-.91-.12H186Z" transform="translate(-5.1 -4.13)"></path></svg>