<svg id="icon-menu-logo" viewBox="0 0 750.153 121.514">
            <title>Tenneco</title>
            <g>
 
 <path fill="#0054A6" d="M233.461,0.763c-9.845,40.069-19.651,79.982-29.478,119.975h31.003
                           c0,0,9.9-40.083,14.735-59.739c0.732-2.982,1.446-5.968,2.216-8.937c0.089-0.345,0.484-0.611,0.737-0.912
                           c0.27,0.244,0.563,0.467,0.799,0.739c0.137,0.161,0.182,0.401,0.27,0.606c7.765,18.316,15.524,36.634,23.301,54.945
                           c1.374,3.235,2.776,6.461,4.237,9.657c0.933,2.045,2.513,3.321,4.838,3.503c0.887,0.069,1.777,0.178,2.666,0.181
                           c8.081,0.013,16.163,0.009,24.245,0.009h1.368c9.836-40.038,19.647-79.965,29.489-120.027h-1.699
                           c-9.154,0-18.309,0.037-27.462-0.037c-1.473-0.013-2.004,0.406-2.353,1.846c-5.412,22.399-10.891,44.783-16.375,67.166
                           c-0.103,0.421-0.437,0.784-0.663,1.173c-0.301-0.332-0.716-0.611-0.885-1.001c-9.472-21.798-18.985-43.58-28.301-65.442
                           c-1.18-2.767-2.86-3.724-5.553-3.693c-0.759,0.008-1.519-0.011-2.277-0.011c-7.77-0.001-15.54-0.001-23.31-0.001H233.461z"></path><path fill="#0054A6" d="M429.316,120.763c9.831-40.006,19.646-79.952,29.492-120.027h-1.307
                           c-7.993,0-15.984,0.026-23.977-0.029c-1.089-0.008-1.416,0.398-1.651,1.355c-5.547,22.593-11.12,45.181-16.692,67.77
                           c-0.692,2.806-1.387,5.613-2.107,8.412c-0.088,0.348-0.335,0.656-0.509,0.98c-0.271-0.301-0.55-0.6-0.814-0.908
                           c-0.056-0.062-0.056-0.168-0.089-0.248c-10.616-24.552-21.267-49.085-31.788-73.676c-1.156-2.701-2.843-3.782-5.59-3.653
                           c-0.536,0.024-1.071-0.001-1.608-0.001c-6.385-0.002-12.77,0.048-19.153-0.039c-1.457-0.02-2.026,0.369-2.382,1.83
                           c-9.049,37.032-18.157,74.052-27.251,111.075c-0.576,2.346-1.129,4.697-1.719,7.157c8.669,0,17.151,0.009,25.63-0.034
                           c0.315-0.003,0.805-0.466,0.908-0.807c0.425-1.401,0.738-2.84,1.086-4.266c5.783-23.683,11.562-47.365,17.364-71.042
                           c0.107-0.438,0.505-0.806,0.767-1.205c0.325,0.366,0.77,0.681,0.958,1.107c3.579,8.149,7.129,16.312,10.682,24.472
                           c6.785,15.59,13.632,31.15,20.304,46.787c1.527,3.583,3.803,5.012,7.682,5.025c3.729,0.016,7.231-0.037,10.848-0.037H429.316z"></path><path fill="#0054A6" d="M476.711,49.965c0.022-0.375,0.01-0.51,0.041-0.636
                           c2.337-9.3,4.697-18.594,6.988-27.906c0.295-1.2,0.727-1.612,2.03-1.608c20.1,0.05,40.203,0.027,60.304,0.061
                           c1.031,0.001,1.491-0.259,1.72-1.297c0.772-3.484,1.649-6.944,2.48-10.416c0.595-2.494,1.183-4.992,1.782-7.52H466.8
                           c-9.853,40.094-19.685,80.114-29.535,120.212h85.103c1.641-6.685,3.28-13.372,4.967-20.256h-63.007
                           c0.07-0.411,0.095-0.667,0.155-0.914c2.327-9.533,4.682-19.059,6.956-28.604c0.27-1.139,0.688-1.472,1.847-1.471
                           c17.46,0.041,34.921,0.027,52.38,0.027h1.684c1.608-6.621,3.178-13.068,4.783-19.672H476.711z"></path><path fill="#0054A6" d="M646.994,1.306c-0.913,3.655-1.804,7.226-2.7,10.796
                           c-0.498,1.985-1.082,3.951-1.48,5.955c-0.231,1.17-0.689,1.544-1.922,1.54c-15.09-0.049-30.182-0.043-45.272-0.025
                           c-3.573,0.005-7.133,0.218-10.562,1.369c-6.299,2.116-9.805,6.776-11.379,12.961c-3.209,12.587-6.281,25.207-9.39,37.818
                           c-1.232,5.011-2.567,10.004-3.555,15.065c-0.426,2.179-0.424,4.57-0.018,6.755c0.897,4.853,4.447,7.09,8.998,7.896
                           c1.964,0.349,3.991,0.471,5.989,0.476c14.912,0.038,29.825,0.021,44.737,0.021h1.869c-1.437,6.06-2.834,11.955-4.249,17.924
                           c-1.48,0.108-2.938,0.275-4.398,0.313c-18.249,0.478-36.498,1.034-54.752,1.341c-5.767,0.097-11.193-1.531-15.745-5.351
                           c-4.057-3.404-6.147-7.887-7.001-13.011c-1.056-6.343,0.073-12.496,1.578-18.643c4.245-17.326,8.385-34.678,12.628-52.003
                           c2.157-8.811,6.219-16.581,13.045-22.718c6.271-5.638,13.661-9.092,22.038-9.503c9.261-0.454,18.561-0.257,27.837-0.118
                           c9.908,0.147,19.811,0.554,29.717,0.862C644.296,1.066,645.581,1.204,646.994,1.306"></path><path fill="#0054A6" d="M749.985,19.895c-0.67-5.514-2.797-10.23-7.247-13.723
                           c-4.773-3.747-10.391-5.222-16.279-5.296c-13.635-0.173-27.274-0.114-40.91-0.045c-5.46,0.027-10.738,1.189-15.748,3.394
                           c-12.226,5.379-19.475,14.963-22.687,27.649c-1.985,7.847-11.284,46.105-13.137,53.649c-1.366,5.568-2.674,11.122-1.867,16.934
                           c0.802,5.775,3.273,10.537,8.174,13.873c4.516,3.07,9.637,4.286,14.973,4.418c6.968,0.171,13.946,0.042,20.92,0.042v0.008
                           c6.752,0,13.506,0.092,20.256-0.027c6.194-0.108,12.127-1.543,17.659-4.362c11.188-5.705,17.896-15.004,20.919-26.979
                           c2.229-8.837,11.331-46.233,12.831-52.356C749.222,31.427,750.705,25.808,749.985,19.895 M713.445,85.61
                           c-1.199,4.745-3.317,8.992-7.497,11.889c-3.489,2.42-7.496,3.128-11.618,3.221c-4.396,0.102-23.497-0.113-28.646-0.221
                           c-1.43-0.03-2.904-0.418-4.262-0.906c-4.454-1.603-6.635-5.549-5.665-10.875c0.977-5.396,2.292-10.734,3.569-16.07
                           c0.78-3.258,7.599-31.375,9.339-38.458c0.968-3.937,2.569-7.569,5.852-10.194c2.891-2.308,6.33-3.349,9.904-3.397
                           c10.879-0.145,21.762-0.116,32.641,0.003c1.851,0.02,3.762,0.631,5.519,1.306c2.688,1.036,3.992,3.227,4.231,6.084
                           c0.313,3.71-0.758,7.204-1.636,10.724C723.785,44.296,715.359,78.04,713.445,85.61"></path><polygon fill="#0054A6" points="126.747,0.759 223.944,0.759 216.058,32.473 158.974,32.473 
                           155.694,45.87 202.322,45.87 195.249,74.96 148.621,74.96 145.433,87.328 202.173,87.328 194.116,120.755 97.263,120.755 	"></polygon><path fill="#0054A6" d="M73.395,41.405l-19.194,79.35h-39.84l13.274-55.928
                           c6.642-25.039,19.713-23.422,43.435-23.422H73.395z"></path><polygon fill="#0054A6" points="108.993,32.5 0,32.5 7.673,0.611 116.971,0.611 	"></polygon><polygon fill="#0054A6" points="108.993,32.5 0,32.5 7.673,0.611 116.971,0.611 	"></polygon></g>
 </svg>