<svg xmlns="http://www.w3.org/2000/svg" xmlns:xlink="http://www.w3.org/1999/xlink" viewBox="0 0 517.68 388.02"><defs><style>.cls-1{fill:#27245f;}.cls-2{fill:url(#linear-gradient);}</style><linearGradient id="linear-gradient" x1="74.89" y1="100.45" x2="452.17" y2="100.45" gradientUnits="userSpaceOnUse"><stop offset="0" stop-color="#a6ce39"></stop><stop offset="1" stop-color="#11b04b"></stop></linearGradient></defs><title>ADM Logo Primary</title><g id="Layer_2" data-name="Layer 2"><g id="Layer_1-2" data-name="Layer 1"><path class="cls-1" d="M109.61,361.9H53.17L42.68,388H0L55.87,242.45a15.54,15.54,0,0,1,14.51-10h33.4L162.31,388H119.17ZM98.88,331.12,81.39,280.75l-17,50.37ZM165,366.27V232.48H217.9c15.63,0,41.75,2.09,61.8,21.45,18.19,17.49,21.69,39.88,21.69,56.67,0,20.52-5.13,38.71-20.29,53.87C268.74,376.83,248,388,221.4,388H186.72A21.75,21.75,0,0,1,165,366.27Zm40.35-12.53h8.16c9.8,0,23.55-.93,34.05-11.19,5.13-4.9,11.89-14.69,11.89-31.95,0-14.46-4.43-26.82-12.12-34.05-9.57-8.86-22.16-9.79-32.19-9.79h-9.79ZM301.47,388l26.35-155.54H367.7l31.48,70,33.35-70h27a15.53,15.53,0,0,1,15.37,13.23L496.2,388H455.85l-11.42-89.55-35.52,64.62a11,11,0,0,1-19,0l-35-64.57L341.58,388Z"></path><path class="cls-2" d="M441.71,0H270.47c-73.2,0-135.56,33.12-161.19,100.25L75.45,188.84c-2.18,5.7,2.33,12.07,8.54,12.07H258c72.69,0,136.17-43.12,161.62-109.78l31.92-77.27C454,7.32,448.85,0,441.71,0ZM387.38,77c-20.74,54.32-72.43,89.43-131.66,89.43H138a142.23,142.23,0,0,1,107.48-48.47h23.84c19.07,0,45.7-11.14,52.68-34.54H243.67A175.61,175.61,0,0,0,140.94,116l.74-1.94C162.5,59.5,212.85,34.53,272.31,34.53H406Z"></path><path class="cls-1" d="M507.69,241.84a1.68,1.68,0,0,0-.8-1.61,3.53,3.53,0,0,0-1.56-.24h-1.64v3.74h2.16a1.8,1.8,0,0,0,1.36-.49,1.93,1.93,0,0,0,.48-1.4m.69,3.8,2.73,5a.42.42,0,0,1,0,.42.37.37,0,0,1-.36.21h-2a.37.37,0,0,1-.37-.23l-2.58-4.86h-2.07v4.66a.41.41,0,0,1-.12.31.41.41,0,0,1-.3.12h-1.79a.41.41,0,0,1-.3-.12.39.39,0,0,1-.13-.31V238a.39.39,0,0,1,.13-.31.41.41,0,0,1,.3-.12h3.92a7.57,7.57,0,0,1,2.53.32,3.48,3.48,0,0,1,1.78,1.45,4.39,4.39,0,0,1,.66,2.4,4.27,4.27,0,0,1-.57,2.2,3.55,3.55,0,0,1-1.54,1.46Zm-2.64-11a9.55,9.55,0,0,0-3.81.78,9.68,9.68,0,0,0-5.21,5.21,9.7,9.7,0,0,0,0,7.62,9.74,9.74,0,0,0,5.21,5.22,9.81,9.81,0,0,0,7.62,0,9.72,9.72,0,0,0,5.22-5.22,9.7,9.7,0,0,0,0-7.62,9.66,9.66,0,0,0-5.22-5.21A9.48,9.48,0,0,0,505.74,234.61Zm11.94,9.8a11.71,11.71,0,0,1-.95,4.64,11.67,11.67,0,0,1-6.35,6.35,11.78,11.78,0,0,1-9.27,0,11.94,11.94,0,0,1-3.81-2.54,12.19,12.19,0,0,1-2.55-3.81,11.9,11.9,0,0,1,0-9.27A12,12,0,0,1,497.3,236a11.8,11.8,0,0,1,3.81-2.55,11.9,11.9,0,0,1,9.27,0,11.73,11.73,0,0,1,6.35,6.36A11.63,11.63,0,0,1,517.68,244.41Z"></path></g></g></svg>