<?xml version="1.0" encoding="utf-8"?>
<!-- Generator: Adobe Illustrator 14.0.0, SVG Export Plug-In . SVG Version: 6.00 Build 43363)  -->
<!DOCTYPE svg PUBLIC "-//W3C//DTD SVG 1.1//EN" "http://www.w3.org/Graphics/SVG/1.1/DTD/svg11.dtd">
<svg version="1.1" id="Layer_1" xmlns="http://www.w3.org/2000/svg" xmlns:xlink="http://www.w3.org/1999/xlink" x="0px" y="0px"
	 width="253px" height="59px" viewBox="0 0 253 59" enable-background="new 0 0 253 59" xml:space="preserve">
<g>
	<path fill="#8C7966" d="M133.764,17.778l-4.907,4.64l-0.805,3.061l3.003-2.073L133.764,17.778L133.764,17.778z M126.625,20.491
		l1.883-7.879l-5.064,6.979l-0.146,4.165L126.625,20.491L126.625,20.491z M121.629,17.812l0.128-10.686l-4.574,10.075l1.047,5.496
		L121.629,17.812L121.629,17.812z M113.005,22.342l3.009-7.027l-3.009-14.054l-3.009,14.054L113.005,22.342L113.005,22.342z
		 M107.78,22.698l1.047-5.496l-4.574-10.075l0.129,10.686L107.78,22.698L107.78,22.698z M99.386,20.491l3.327,3.264l-0.146-4.165
		l-5.064-6.979L99.386,20.491L99.386,20.491z M97.958,25.479l-0.804-3.061l-4.908-4.64l2.709,5.628L97.958,25.479L97.958,25.479z"/>
	<path fill="#012B45" d="M21.611,50.099l-0.54-0.154l-3.162,4.318c-1.041,1.427-1.581,2.044-3.856,2.044H8.115V35.021l4.396-0.694
		v-0.964H0.287v0.964l4.204,0.694v21.247l-4.204,0.694v0.964h20.322L21.611,50.099L21.611,50.099z M50.454,35.368v13.998
		c0,4.126-2.313,7.403-6.555,7.403c-4.473,0-7.249-2.005-7.249-7.442V35.021l4.203-0.694v-0.964H29.13v0.964l3.817,0.694v15.116
		c0,5.706,3.509,8.444,9.756,8.444c6.131,0,9.486-4.165,9.486-9.216V35.368l3.432-1.041v-0.964h-8.599v0.964L50.454,35.368
		L50.454,35.368z M68.538,35.021v21.247l-4.203,0.694v0.964h11.877c8.059,0,13.535-5.321,13.535-12.301
		c0-6.941-4.897-12.263-13.303-12.263H64.335v0.964L68.538,35.021L68.538,35.021z M85.543,45.626c0,8.021-3.856,10.835-9.023,10.835
		h-4.357V34.828h3.509C81.147,34.828,85.543,37.644,85.543,45.626 M124.143,45.626c0-6.941-4.049-12.841-11.8-12.841
		c-7.403,0-12.031,5.899-12.031,12.841c0,6.979,4.049,12.879,11.799,12.879C119.515,58.505,124.143,52.605,124.143,45.626
		 M119.939,45.626c0,8.059-3.74,11.799-7.288,11.799c-3.856,0-8.136-2.776-8.136-11.799c0-9.023,3.741-11.762,7.288-11.762
		C115.66,33.864,119.939,37.604,119.939,45.626 M152.716,35.021l3.586-0.694v-0.964h-10.489v0.964l3.163,0.887l0.848,2.353
		l-5.938,15.425h-0.077l-5.476-17.97l3.779-0.694v-0.964h-11.028v0.964l3.394,0.887l7.635,22.944h1.35l7.172-18.162h0.077
		l6.633,18.162h1.35l7.789-22.751l3.2-1.08v-0.964H161.7v0.964l3.124,1.08l-5.708,17.622h-0.077L152.716,35.021L152.716,35.021z
		 M184.412,56.269V35.021l4.319-0.694v-0.964H176.43v0.964l4.358,0.694v21.247l-4.358,0.694v0.964h12.302v-0.964L184.412,56.269
		L184.412,56.269z M219.926,51.371l-0.539-0.154l-4.396,5.282c-0.887,0.387-1.89,0.579-3.046,0.579c-5.283,0-9.68-3.702-9.68-11.568
		c0-7.326,3.51-11.491,8.061-11.491c3.624,0,6.015,2.622,8.213,6.979l0.81-0.077l-0.309-8.252h-0.81l-1.272,1.312
		c-1.658-0.655-3.895-1.195-5.861-1.195c-7.018,0-13.033,5.321-13.033,13.11c0,7.597,5.398,12.609,13.149,12.609
		c3.509,0,5.514-0.732,7.981-2.044L219.926,51.371L219.926,51.371z M238.859,56.269V35.021l4.318-0.694v-0.964h-12.301v0.964
		l4.357,0.694v21.247l-4.357,0.694v0.964h12.301v-0.964L238.859,56.269L238.859,56.269z"/>
	<path fill="#012B45" d="M249.344,33.319c0.111,0.017,0.176,0.017,0.256,0.017c0.384,0,0.575-0.176,0.575-0.496
		c0-0.255-0.191-0.432-0.543-0.432c-0.112,0-0.208,0-0.288,0.017V33.319L249.344,33.319z M248.833,32.01
		c0.223-0.032,0.479-0.049,0.75-0.049c0.768,0,1.136,0.384,1.136,0.863c0,0.336-0.177,0.671-0.512,0.799l0.703,1.07h-0.591
		l-0.592-0.959c-0.08,0.017-0.145,0.017-0.176,0.017c-0.048,0-0.097,0-0.208-0.017v0.959h-0.511V32.01L248.833,32.01z
		 M251.933,33.367c0-1.278-0.991-2.333-2.221-2.333c-1.215,0-2.222,1.055-2.222,2.333c0,1.263,1.007,2.317,2.222,2.317
		C250.941,35.685,251.933,34.614,251.933,33.367L251.933,33.367z M246.995,33.367c0-1.534,1.215-2.78,2.717-2.78
		c1.501,0,2.716,1.246,2.716,2.78c0,1.502-1.215,2.765-2.716,2.765C248.21,36.132,246.995,34.886,246.995,33.367L246.995,33.367z"/>
</g>
</svg>
