<?xml version="1.0" encoding="utf-8"?>
<!-- Generator: Adobe Illustrator 22.0.1, SVG Export Plug-In . SVG Version: 6.00 Build 0)  -->
<svg version="1.1" id="Layer_1" xmlns:svg="http://www.w3.org/2000/svg"
	 xmlns="http://www.w3.org/2000/svg" xmlns:xlink="http://www.w3.org/1999/xlink" x="0px" y="0px" viewBox="0 0 320 166.8"
	 style="enable-background:new 0 0 320 166.8;" xml:space="preserve">
<style type="text/css">
	.st0{fill:#FFFFFF;}
	.st1{fill:#231F20;}
	.st2{fill:#C10230;}
</style>
<g>
	<g>
		<g>
			<path class="st0" d="M52.3,164.9c-14.3,0-27.5-5.4-37.2-15.1c-8-8.1-13-18.9-13-28c-0.1-15.4,12.5-28,27.9-28c0.4,0,0.7,0,1.1,0
				c1.1,0,2-1,1.8-2.1c-0.4-2.2-0.5-4.4-0.5-6.6c0-13.4,6.6-26.2,19.2-37.2c0.4-0.3,0.6-0.8,0.6-1.3V32.1l0,0c0-1-0.8-1.8-1.8-1.8
				H31.9c-1.5,0-2.3-1.6-1.5-2.8L48,2.9c0.3-0.5,0.9-0.8,1.5-0.8h55c0.6,0,1.1,0.3,1.5,0.8l10.2,14.7c0.4,0.6,1.1,0.9,1.8,0.7
				c17.8-3.8,36.8-5.8,56.6-5.8h0.8c36.9,0,71.7,6.9,98,19.5c28.5,13.6,44.2,32.5,44.2,53.2c0,20.8-15.7,39.7-44.2,53.4
				c-26.3,12.6-61.2,19.6-98.1,19.6h-0.6c-29.5,0-58.3-4.6-82-12.9c-0.7-0.3-1.5,0-2,0.6C80.1,158.9,64.2,164.9,52.3,164.9z"/>
		</g>
		<g>
			<path class="st1" d="M274.2,30.2c-26.6-12.7-61.7-19.7-98.9-19.7h-0.8c-19.8,0-39,2-56.8,5.8L107.6,1.8c-0.7-1-1.9-1.6-3.1-1.6
				h-55c-1.2,0-2.4,0.6-3.1,1.6L28.8,26.3c-0.8,1.2-0.9,2.7-0.3,4c0.7,1.3,2,2.1,3.4,2.1h18.3v14.1c-13,11.4-19.9,24.8-19.9,38.7
				c0,2.2,0.2,4.5,0.5,6.6c-0.3,0-0.6,0-0.8,0c-16.5,0-30,13.4-30,30c0,9.7,5.2,20.9,13.6,29.4c10,10.1,23.8,15.7,38.6,15.7
				c11,0,28-5.2,39.8-19.8c23.8,8.4,53.1,13,82.5,13h0.6c37.2,0,72.4-7,99-19.8c29.2-14,45.3-33.6,45.3-55.2
				C319.5,63.7,303.4,44.2,274.2,30.2z M272.4,136.7c-26.1,12.5-60.6,19.4-97.2,19.4h-0.6c-29,0-57.9-4.5-81.4-12.8
				c-1.5-0.5-3.2,0-4.3,1.2C78,158,62.3,162.9,52.2,162.9c-13.8,0-26.5-5.2-35.7-14.5C8.8,140.6,4,130.4,4,121.8
				c0-14.3,11.6-25.9,25.9-25.9c0.3,0,0.7,0,1,0c1.2,0.1,2.3-0.4,3-1.3c0.8-0.9,1.1-2,0.9-3.2c-0.3-2.1-0.5-4.2-0.5-6.3
				c0-12.7,6.4-25,18.6-35.7c0.8-0.7,1.3-1.8,1.3-2.9V32c0-1-0.4-2-1.1-2.7c-0.7-0.7-1.7-1.1-2.7-1.1h-18l17.2-24h54.8l10.1,14.5
				c0.9,1.3,2.4,1.9,3.9,1.6c17.7-3.8,36.5-5.7,56.1-5.7h0.8c36.6,0,71.1,6.9,97.1,19.3c27.7,13.3,43,31.5,43,51.3
				C315.4,105.1,300.1,123.5,272.4,136.7z"/>
		</g>
	</g>
	<g>
		<path d="M41.1,85.3C41,50.2,100.8,21.6,174.5,21.7C248.2,21.6,308,50.2,308,85.3c0,35.3-59.7,63.9-133.4,63.8
			C100.8,149.1,41.1,120.6,41.1,85.3L41.1,85.3z"/>
	</g>
	<g>
		<g>
			<path class="st0" d="M285.3,109.5c-1.5-0.7-4-1.8-5.7-6c-2.6-6.6-1.8-12.3-1-25.6c0.2-2.7-1.2-11.2-7.7-8.2
				c-4.9,2.3-7.4,7.2-12.2,14.4c-0.3-8.2,1.2-17.7-1.8-20.5c-1.9-1.9-7.5-2.6-7.6,0.3c-0.3,5.9-6.5,60-15.3,37.4
				c-2.8-7.1-0.9-22.5-0.3-28.1c0.7-7.2-11.4-8.8-11.7-3.1c-0.7,11.3,3.7,38-8.5,38c-3.6,0-6.9-2.3-7.8-12.4
				c-0.7-7.6-0.6-20.3-0.3-31.1c5.2-0.2,9.1-0.5,9.1-0.5c1.9-0.1,4.2-0.3,4.2-1.9c0-1.5-2.9-1.5-4-1.6c-0.6,0-4.4-0.2-9.2-0.4
				c0.3-8.8,0.6-15.6,0.6-15.7c0-3.1-1-7-7.6-7.5c-2.9-0.2-6.2,0.6-6.2,5.1c0,1.1,0.3,8.5,0.7,17.5c-5.2-0.2-9.2-0.4-9.2-0.4
				c-2,0-5-0.5-4.9,3.1c0.1,2.6,2.1,2.6,4.8,2.7c2.5,0.1,5.9,0.1,9.5,0c0.3,8.6,0.5,17.7,0.3,23.7c-0.3,10.5-6.9,18.2-12,18.7
				c5.8-9.2,2.5-15.7-3.6-28c-3-6.1-3.7-9.9-6.1-14c-1.9-3.2-11.1-5-10.5-0.1c0.9,8.3-4.7,37.5-12.3,37.5c-5.1,0-5.1-15.2-4.2-28.2
				c0.5-7.9-10.7-11.1-10.8-5.5c-0.2,5.5,2.2,38.2-9.5,37.4c-10.6-0.7-5.2-34-5.1-37.5c0.2-6.5-10.1-9.4-11-5.2
				c-0.7,2.9-0.2,11.2-0.8,13.3c-1.4,5-10.2,11.5-10.7,11.7c-0.1,0.9,0,7.4,0,7.4c0.5-0.3,11-11.7,11-11.7s0,9.9,0.4,13.4
				c1.4,12.6,8.8,16.7,13.5,16.9c14.1,0.6,15.5-11.9,15.5-11.9s2.1,10.6,10.3,10.6c13.4,0,18.1-39,18.2-39.9
				c3.5,9.1,5.8,10.8,8.1,18.9c2.4,8.6-4.2,15.7-11.4,14.2c-2.2-0.5-5,2.1-3.1,3.4c4.6,3.3,9.4,4.3,13.5,4.3
				c17.6,0,21.5-13.2,22-15.3c0.1,0.1,1.3,15.4,15.8,15.4c8.4,0,12.3-9.4,12.3-9.4s4.5,9.4,12.9,9.4c9.3,0,11.8-14.9,12.3-20
				c-0.4,5-0.7,19.8,8.2,19.8c5,0,3.5-1.8,3.3-6.4c-0.5-11.1,5.3-19.7,6.8-21.8c1.9-2.6,3.9-2.2,3.9,0.6
				c-0.1,19.2,3.1,27.3,10.6,27.2C286.8,114.2,286.7,110.2,285.3,109.5z"/>
		</g>
		<g>
			<ellipse class="st0" cx="228" cy="52.6" rx="7.8" ry="5.4"/>
		</g>
	</g>
	<g>
		<g>
			<path class="st0" d="M52.3,161.1c-17.1,0-28.2-7.6-34.5-14c-7.4-7.4-11.9-17.2-11.9-25.3c0-13.3,10.8-24.1,24.1-24.1
				s24.1,10.8,24.1,24.1c0,2.5-0.4,5-1.1,7.3c1.9-2.8,2.9-5.9,2.9-9.2c0-8.6,0.2-86.9,0.2-87.7c0-3.6-0.4-4.7-0.7-5.1
				c-0.1-0.2-0.9-0.5-2.6-0.5h-6.6c-2,0-3.8-1.1-4.7-2.9s-0.8-3.9,0.4-5.5l7-9.9c1-1.4,2.6-2.2,4.3-2.2h47.4c1.8,0,3.4,0.9,4.4,2.3
				l6.8,9.9c1.1,1.6,1.3,3.8,0.3,5.5c-0.9,1.8-2.7,2.9-4.7,2.9h-6.1c-2.1,0-3,0.2-3.3,0.3c-0.2,0.5-0.5,1.8-0.5,5.3v82.4
				C97.5,144.9,71.2,161.1,52.3,161.1z M38.2,147.9c3.9,1.5,8.6,2.5,14.1,2.5c7.5,0,16.1-3.5,22.6-9.1c5.5-4.8,12-13.3,12-26.7V32.2
				c0,0,0,0,0-0.1c0.1-6.9,0.9-13.2,8.2-15.4H58.4c8.4,2.7,8.4,11.8,8.4,15.5c0,0.8-0.2,79.1-0.2,87.7c0,9.5-5.1,18.3-13.5,23.6
				C48.4,146.3,43.3,147.8,38.2,147.9z M30,108.3c-7.4,0-13.4,6-13.4,13.4c0,4,2.2,10.2,7.1,16c1-1.7,3-2.8,5.1-2.6
				c0.4,0,0.8,0.1,1.2,0.1c7.4,0,13.4-6,13.4-13.4C43.4,114.4,37.4,108.3,30,108.3z"/>
		</g>
		<g>
			<path class="st2" d="M100.6,11.3H53.2l-7,9.9h6.6c7.2,0,8.6,4,8.6,11c0,0-0.2,79-0.2,87.7c0,15.9-17.9,27.9-32.9,20.6
				c0.6,0,1.1,0.1,1.7,0.1c10.4,0,18.8-8.4,18.8-18.8S40.3,103,30,103c-10.4,0-18.8,8.4-18.8,18.8c0,12.2,14,34,41.1,34
				c16.4,0,39.9-14.1,39.9-41.2V32.2c0.1-8.4,1.2-10.9,9.1-11h6.1L100.6,11.3z"/>
		</g>
	</g>
	<g>
		<g>
			<path class="st0" d="M282.3,21.9h-2.1v6h-1.7v-6h-2.1v-1.3h5.9L282.3,21.9L282.3,21.9z M287.5,25.4l1.8-4.8h2.4v7.3h-1.6v-5.3
				l0,0l-1.9,5.3H287l-1.9-5.3l0,0v5.3h-1.6v-7.3h2.4L287.5,25.4z"/>
		</g>
	</g>
</g>
</svg>
