<?xml version="1.0" encoding="UTF-8" standalone="no"?>
<svg width="61px" height="49px" viewBox="0 0 61 49" version="1.1" xmlns="http://www.w3.org/2000/svg" xmlns:xlink="http://www.w3.org/1999/xlink">
    <!-- Generator: sketchtool 39.1 (31720) - http://www.bohemiancoding.com/sketch -->
    <title>A9E3D3C3-E344-45D7-AB43-1D0134F84FDA</title>
    <desc>Created with sketchtool.</desc>
    <defs></defs>
    <g id="Symbols" stroke="none" stroke-width="1" fill="none" fill-rule="evenodd">
        <g id="WW---Header,-toplinks-and-content" transform="translate(-42.000000, -49.000000)">
            <g id="logo" transform="translate(42.000000, 49.000000)">
                <polygon id="Fill-1" fill="#FFFFFF" points="30.4999 3.6961 34.0159 3.6961 34.0159 13.0801 42.7589 13.0801 42.7589 3.6961 51.8969 3.6961 51.8969 31.0481 42.7269 31.0481 42.7269 21.4791 33.9889 21.4791 33.9889 31.0481 25.1929 31.0481"></polygon>
                <polygon id="Fill-2" fill="#FFFFFF" points="21.8178 31.0492 18.2988 31.0492 18.2988 21.6652 9.5578 21.6652 9.5578 31.0492 0.4208 31.0492 0.4208 3.6962 9.5898 3.6962 9.5898 13.2652 18.3288 13.2652 18.3288 3.6962 27.1518 3.6962"></polygon>
                <g id="Group-25" transform="translate(0.000000, 0.168000)">
                    <path d="M0.3259,38.3619 L2.1709,38.3619 C2.1229,39.2249 2.1229,39.3089 2.0879,40.1349 C2.0279,41.2979 2.0159,41.5969 1.8599,43.2759 L2.3279,41.7909 L3.5619,38.3619 L5.7199,38.3619 C5.6459,39.5729 5.6459,39.6559 5.6109,40.6509 C5.5639,41.5739 5.5519,41.8729 5.4069,43.2759 C5.5269,42.8089 5.6349,42.3649 5.8519,41.7909 L7.1219,38.3619 L9.1219,38.3619 L6.2219,44.7859 L4.1619,44.7859 C4.1619,42.5679 4.1849,42.0409 4.3169,39.9919 C4.0769,40.7839 4.0059,40.9509 3.5019,42.2689 C3.0589,43.3839 2.7349,44.2119 2.5189,44.7859 L0.4099,44.7859 L0.3259,38.3619 Z" id="Fill-3" fill="#FFFFFF"></path>
                    <path d="M12.2386,40.2068 C12.2626,40.1248 12.2766,40.0398 12.2766,39.9558 C12.2876,39.6438 12.0466,39.4758 11.7586,39.4758 C11.2446,39.4758 11.1366,39.9198 11.0756,40.2068 L10.4766,42.7718 C10.4536,42.8798 10.4286,43.0118 10.4286,43.1438 C10.4286,43.3948 10.5726,43.6358 10.9436,43.6358 C11.4596,43.6358 11.5556,43.2148 11.6636,42.7718 L12.2386,40.2068 Z M14.1336,39.9558 C14.1336,40.6268 13.6176,42.7608 13.4376,43.3118 C13.2096,43.9838 12.8376,44.9298 10.9206,44.9298 C9.4816,44.9298 8.5596,44.4498 8.5596,43.1908 C8.5596,42.4958 9.0996,40.3748 9.2056,40.0398 C9.4096,39.3568 9.8176,38.1948 11.6636,38.1948 C12.6226,38.1948 14.1336,38.3488 14.1336,39.9558 L14.1336,39.9558 Z" id="Fill-5" fill="#FFFFFF"></path>
                    <path d="M17.2254,39.644 C17.7514,38.637 18.1474,38.41 19.1554,38.255 L18.6744,40.04 C18.5434,40.028 18.4104,40.028 18.2794,40.028 C17.2254,40.028 17.0334,40.483 16.7574,41.658 L16.0384,44.786 L14.1444,44.786 L15.6314,38.362 L17.5244,38.362 L17.2254,39.644 Z" id="Fill-7" fill="#FFFFFF"></path>
                    <polygon id="Fill-9" fill="#FFFFFF" points="21.9952 36.3252 20.9642 40.7822 22.9542 38.3622 25.1002 38.3622 22.6062 41.1302 23.8502 44.7862 21.7442 44.7862 20.8322 41.3352 20.0412 44.7862 18.1352 44.7862 20.0892 36.3252"></polygon>
                    <path d="M27.6378,38.3619 L29.4828,38.3619 C29.4358,39.2249 29.4358,39.3089 29.3998,40.1349 C29.3398,41.2979 29.3288,41.5969 29.1708,43.2759 L29.6388,41.7909 L30.8738,38.3619 L33.0308,38.3619 C32.9598,39.5729 32.9598,39.6559 32.9238,40.6509 C32.8728,41.5739 32.8638,41.8729 32.7188,43.2759 C32.8378,42.8089 32.9458,42.3649 33.1618,41.7909 L34.4328,38.3619 L36.4348,38.3619 L33.5348,44.7859 L31.4728,44.7859 C31.4728,42.5679 31.4968,42.0409 31.6278,39.9919 C31.3898,40.7839 31.3168,40.9509 30.8138,42.2689 C30.3708,43.3839 30.0458,44.2119 29.8308,44.7859 L27.7218,44.7859 L27.6378,38.3619 Z" id="Fill-11" fill="#FFFFFF"></path>
                    <path d="M39.4302,40.8549 C39.4772,40.6509 39.5992,40.1479 39.5992,39.9799 C39.5992,39.8599 39.5752,39.7399 39.5002,39.6559 C39.3812,39.5129 39.1682,39.4879 39.0492,39.4879 C38.4602,39.4879 38.3762,39.9209 38.1962,40.8549 L39.4302,40.8549 Z M40.9762,42.7129 C40.8572,43.1919 40.7262,43.7549 40.3292,44.1869 C39.9462,44.6309 39.3102,44.9539 38.1852,44.9539 C37.8602,44.9539 36.9612,44.9069 36.3982,44.4629 C36.1222,44.2469 35.8712,43.9109 35.8712,43.2279 C35.8712,42.3769 36.4832,40.0159 36.6862,39.5359 C36.9012,39.0209 37.4062,38.2059 39.1552,38.2059 C39.9222,38.2059 41.4192,38.3499 41.4192,39.7759 C41.4192,40.0399 41.3722,40.3159 41.3122,40.5909 C41.2172,41.0589 41.1212,41.4899 40.9992,42.0289 L37.9352,42.0289 C37.8362,42.4009 37.7162,42.9279 37.7162,43.2029 C37.7162,43.2639 37.7282,43.3359 37.7532,43.3959 C37.8362,43.5399 38.0282,43.6359 38.2792,43.6359 C38.8182,43.6359 38.8912,43.2639 39.0232,42.7129 L40.9762,42.7129 Z" id="Fill-13" fill="#FFFFFF"></path>
                    <path d="M45.0173,41.7778 C44.5843,41.9098 44.0323,42.0778 43.8033,42.2578 C43.4933,42.5088 43.4103,43.1918 43.4103,43.3118 C43.4103,43.5288 43.5063,43.7078 43.8283,43.7078 C44.1643,43.7078 44.4153,43.5038 44.6203,43.3238 L45.0173,41.7778 Z M46.2983,44.0558 C46.2873,44.1518 46.2613,44.2468 46.2613,44.3428 C46.2613,44.6298 46.3473,44.6888 46.4413,44.7858 L44.2603,44.7858 L44.4283,44.1158 C43.9973,44.4868 43.4573,44.9538 42.7023,44.9538 C42.5693,44.9538 41.4323,44.9538 41.4323,43.7908 C41.4323,43.3948 41.6833,42.2688 42.0793,41.8128 C42.4733,41.3588 43.0493,41.1898 45.2913,40.5438 C45.3503,40.2918 45.4343,39.8848 45.4343,39.7878 C45.4343,39.4528 45.1233,39.4288 44.9193,39.4288 C44.3803,39.4288 44.2833,39.7158 44.1043,40.3628 L42.2833,40.3628 C42.5593,39.2488 42.7023,38.8768 43.2903,38.5778 C43.7323,38.3498 44.3443,38.2428 45.0173,38.2428 C46.1183,38.2428 47.2563,38.5178 47.2563,39.6438 C47.2563,39.8848 47.2083,40.1248 47.1513,40.3628 L46.2983,44.0558 Z" id="Fill-15" fill="#FFFFFF"></path>
                    <path d="M50.2753,39.644 C50.8033,38.637 51.1993,38.41 52.2073,38.255 L51.7263,40.04 C51.5953,40.028 51.4613,40.028 51.3323,40.028 C50.2753,40.028 50.0863,40.483 49.8083,41.658 L49.0903,44.786 L47.1973,44.786 L48.6823,38.362 L50.5763,38.362 L50.2753,39.644 Z" id="Fill-17" fill="#FFFFFF"></path>
                    <polygon id="Fill-19" fill="#E85113" points="26.0718 33.5384 28.5938 33.5384 25.5938 48.5144 23.1328 48.5144"></polygon>
                    <path d="M57.3235,6.1503 C58.8175,6.1503 60.0315,4.9393 60.0315,3.4443 C60.0315,1.9463 58.8175,0.7353 57.3235,0.7353 C55.8285,0.7353 54.6145,1.9463 54.6145,3.4443 C54.6145,4.9393 55.8285,6.1503 57.3235,6.1503 M55.2365,3.4533 C55.2365,2.2843 56.1845,1.3373 57.3565,1.3373 C58.5235,1.3373 59.4705,2.2843 59.4705,3.4533 C59.4705,4.6213 58.5235,5.5693 57.3565,5.5693 C56.1845,5.5693 55.2365,4.6213 55.2365,3.4533" id="Fill-21" fill="#FFFFFF"></path>
                    <path d="M56.9755,3.3753 L57.4575,3.3753 C57.6875,3.3753 57.8505,3.2403 57.8505,3.0193 C57.8505,2.8023 57.7025,2.6623 57.3955,2.6623 L56.9755,2.6623 L56.9755,3.3753 Z M56.5285,2.2703 L57.5155,2.2703 C58.0185,2.2703 58.3145,2.5703 58.3145,2.9873 C58.3145,3.5163 57.9595,3.6423 57.8445,3.6833 L58.3725,4.6373 L57.8595,4.6373 L57.4005,3.7653 L56.9755,3.7653 L56.9755,4.6373 L56.5285,4.6373 L56.5285,2.2703 Z" id="Fill-23" fill="#FFFFFF"></path>
                </g>
            </g>
        </g>
    </g>
</svg>