<?xml version="1.0" encoding="utf-8"?>
<!-- Generator: Adobe Illustrator 19.2.1, SVG Export Plug-In . SVG Version: 6.00 Build 0)  -->
<svg version="1.1" id="layer" xmlns="http://www.w3.org/2000/svg" xmlns:xlink="http://www.w3.org/1999/xlink" x="0px" y="0px"
	 viewBox="0 0 652 652" style="enable-background:new 0 0 652 652;" xml:space="preserve">
<style type="text/css">
	.st0{fill-rule:evenodd;clip-rule:evenodd;fill:#DF2718;}
	.st1{fill-rule:evenodd;clip-rule:evenodd;fill:#FFFFFF;}
</style>
<g>
	<g>
		<path class="st0" d="M589.6,287.2c17.1,12,39.9,27.7,36.3,50.3c-6.1,20.1-27.7,31.4-46.2,38.8c-73,29-157.4,39.8-229.4,44.6
			c-44.9,1.9-93.3,3.4-134.9-11.2c-5.3-1.9-12-5.8-13.4-11.9c0-3.1,1.1-5.7,3.4-8c14.5-7.7,33-11,49.2-16.9
			c6.5-3.6,15.1-4.3,19.4-11c-0.4-3.4-4.3-3.1-6.4-4.5c-32.4-5.5-54.9-2.1-88-3c-43.4,0.9-97.3,6.4-139.8-9.4
			c-7.1-3.5-12.9-8.1-13.5-16.5c1-11.4,10.5-19.3,19-26.3c56.2-39.2,124-56.6,191-63.6c110.3-11.1,223-12.9,328.8,34.8L589.6,287.2z
			"/>
		<path class="st1" d="M506.7,270.6c0.4,3.7,1.2,8.7-2.5,11.2c2.9,0.8,6.6,0.8,7.1,4.1c0.4,2.9-1.7,4.1-3.7,5
			c-2.5,0.4-5.4,0-6.6-2.5c-0.8-2.9,1.2-4.6,2.9-6.6c-4.1-0.4-9.1-0.8-12,2.1c-0.8,19.1-0.4,36.5-0.4,55.6c-2.5,2.5-7,1.7-9.9,0.8
			l-1.7-1.2c-2.1-17.8-0.8-35.2-2.5-53.5c-4.1-2.9-10.8-0.8-14.5-4.6c0.4-4.2-1.7-12,5-10.8c12.9-0.8,24.9-2.1,37.7-0.8L506.7,270.6
			z"/>
		<path class="st1" d="M159.6,277.6c2.1,5.4,2.1,10.8,1.2,17c-2.5,3.3-7,2.1-10.8,2.1c-6.2-1.7-2.9-9.9-5.8-14.1
			c-1.2-2.1-3.7-3.7-6.6-2.5c-1.7,1.2-4.1,2.1-4.1,4.6c2.9,16.6,22.8,15.8,30.3,29.4c2.9,4.6,3.7,11.2,2.1,16.6
			c-3.3,10.8-15.3,14.1-25.7,14.9c-8.3,0-16.2-2.9-21.1-10c-3.7-4.1-4.1-10-4.1-15.3c4.6-2.1,10-5,14.9-3.7
			c0.8,6.6,1.7,14.1,8.3,17.4c3.7,0,7-0.4,9.5-2.9c1.7-2.5,1.2-5.4,0.4-8.3c-10.4-13.3-39.4-20.7-28.2-43.1
			c5.4-7,12.4-10.4,20.7-10.8C148,268.9,155.5,270.6,159.6,277.6"/>
		<path class="st1" d="M367,274.3c0.8,15.3,2.5,29.9,7,43.1c6.2-10.8,6.6-24.5,8.3-37.3c2.9-2.5,6.6-0.4,9.9-0.4l1.2,1.7
			c-2.5,19.9-7,39-14.9,56.8c-2.1,3.3-6.6,2.1-9.5,1.2c-8.7-5.4-7.9-17-10.8-26.1l-7.5-37.7c3.7-3.7,10.4-3.3,15.3-3.3L367,274.3z"
			/>
		<path class="st1" d="M533.7,282.6h1.2c0.4,6.6-2.5,12.9-6.2,17.8C529.1,293.8,530.3,288,533.7,282.6 M544.4,322.8
			c-1.7-1.7-2.5,0.8-3.3,2.1c-2.1,2.5-4.1,7-8.3,6.2c-5.4-3.7-5.8-10.8-5.4-16.6c8.3-12,13.3-25.3,14.1-40.2
			c-1.7-3.7-5.8-4.1-9.5-4.1c-10,2.9-12,13.3-14.1,21.6c-2.5,10.8,4.1,24.5-5.8,32.3c-1.2,0.8-2.5,0-3.3-1.2
			c-1.7-9.1,1.7-17.4,1.7-26.1l-0.8-1.2c-3.3-0.4-7.9-2.5-10,0.4l-0.8,26.5c-0.4,4.1-0.4,9.5,4.6,12c7,3.7,10.8-5,15.3-8.3
			c1.2,0.8,2.1,2.1,2.5,3.3c3.3,5.8,9.1,8.7,15.8,8.7c3.7-0.4,7-4.1,10-7.5C549.8,328.2,547.3,324.5,544.4,322.8"/>
		<path class="st1" d="M346.6,300.8c0.8,1.7,2.1,3.3,1.7,5.4c-3.3,3.3-8.7-5.4-9.1,1.7c2.1,2.5,5.8,1.7,6.2,4.6
			c-1.7,1.7-5.4,2.1-5.4,5.4c-0.8,1.7,1.2,2.1,2.1,3.3c3.3,0,6.2-2.5,8.3-5c0.8,3.7,3.7,6.6,4.1,10.4c-1.2,2.1-3.7,1.2-5.4,0.8
			c-5-4.6-8.7,5.4-14.5,0.8c-4.6-1.7-3.7-6.6-3.3-10.4c0.4-2.1,2.1-3.3,1.7-5.8c-2.1-1.7-2.5-4.6-1.7-7c2.1-2.9,7.5-5,4.1-9.5
			c0.4-2.1,3.3,0,4.6,0.4C341.3,299.2,344.6,299.2,346.6,300.8"/>
		<path class="st1" d="M409.7,317.4c-2.5,3.3-3.3,10-7.9,10c-3.7-5.8-1.2-14.1,2.1-19.5c1.2-2.1,2.9-2.5,4.6-3.3
			C413.4,306.6,409.7,313.3,409.7,317.4 M459.4,327.8c-1.2-9.1,2.9-17.4,0.8-27c-1.7-4.1-6.2-4.6-9.9-4.6c-4.6,1.7-6.6,6.6-10,10
			c-1.7-2.5-0.4-6.6-2.1-9.5c-2.1,0.4-3.7,0-5.8,0.4c-5.8,2.9-0.4,10.4-1.7,15.8c-1.2,4.1-3.3,9.1-7.9,10.4
			c-5.8-5.8-1.6-16.2-1.6-23.6l-0.8-1.2c-6.6-0.8-12,0-18.2,0.8c-11.2,6.6-14.5,19.5-12,31.5c1.2,3.7,4.6,6.6,8.7,6.6
			c4.6,0,8.3-2.9,11.6-5.4c2.9,2.1,5,5.8,9.1,4.6c4.6-0.8,6.6-6.6,11.2-6.6c0,2.1,0,4.2,1.2,5.8c2.1,0.4,5.4,2.1,7.5,0
			c1.2-8.3,2.9-16.6,5.8-24.5c1.6-1.6,1.6-5.8,5-4.1c1.2,8.3-2.9,18.7,0.8,27c2.1,2.1,5.8,2.9,8.7,2.1c2.9-1.2,5-4.1,5.4-7.5
			C463.6,329,460.7,329.9,459.4,327.8"/>
		<path class="st1" d="M233.5,329.4c-2.1,0-3.3-1.7-3.7-3.3c0-7,1.2-13.7,7-18.2c2.5-0.8,3.3,1.7,3.7,3.3
			C239.7,317.8,239.7,325.7,233.5,329.4 M309.7,315.3c-3.3-5,4.6-9.1,6.6-13.7c3.3-4.1-2.5-4.6-4.6-6.2c-4.6,0-5.4,7.5-9.5,9.5
			c-1.7-7.5,0.8-17-0.4-25.3c-3.7,0-7.5,0.8-10.4,2.5c-3.3,14.5,6.2,32.8-6.6,44c-2.9,2.1-6.6,3.3-9.9,2.5c-2.9-0.8-5.4-4.1-6.2-6.6
			c-0.8-5.8,0-11.6,3.7-15.8c6.2-2.9,0.4,5.8,5.4,6.2c2.9,0.8,5.8,0.4,7.9-2.1c1.7-2.5,1.2-6.2-0.8-8.7c-4.6-4.6-11.6-3.7-17-2.1
			c-5,3.3-8.7,8.7-10.4,14.1c-1.2,5,1.7,9.9-2.5,13.7c-6.6-0.8-2.5-9.1-3.7-13.7c-0.8-4.6,3.7-9.9-0.4-12.9
			c-8.7,1.2-19.1-4.1-25.3,4.6c-7,6.2-4.6,16.2-10.8,22.8c-0.8,0-1.7,0.4-2.5-0.4c0-8.7,3.3-17.4,4.6-25.3H214
			c-4.6-1.2-12-1.2-12.9-7.9c-1.7-0.8-3.7,0-4.6,2.1c0.8,9.1-2.5,16.6-6.2,24.1c-2.1,2.1-2.5,7.5-6.6,6.6c-1.6-5.4,0-11.2-0.8-16.6
			c0.4-5,5.8-2.1,7.9-3.7c0.8-2.1,0.4-4.1-0.8-5.8c-1.7-0.4-3.7-0.4-5-1.2c-0.4-5.4,0.4-11.2,1.7-16.6c-1.7-3.3-5.8,0.4-8.7-0.4
			c-3.7,3.3-2.1,9.5-2.9,14.1c0.4,4.1-4.1,3.7-7,4.1c-1.2,0.8-2.1,1.7-1.7,3.3c-0.4,4.6,5.4,0.8,7.1,3.3c1.2,9.1,0.4,19.5,2.1,28.2
			c0.8,2.9,4.1,4.6,7.1,4.6c10.4-7.5,13.7-19.5,17.4-30.3c1.2-1.7,2.9-0.4,4.2,1.2c-0.4,7.5-2.9,14.9-1.7,22.4
			c0.4,3.3,4.2,5.8,7,5.4c3.3-0.4,6.2-2.1,8.3-5c3.3-0.8,4.1,4.6,7.5,5c5.4,2.1,9.1-1.7,13.3-4.1c2.9-3.7,4.2,2.1,7,2.9
			c5.8,1.7,10-2.1,14.5-5.4c2.9,1.2,4.6,4.6,7.9,5c7.9,2.9,15.8-1.2,22-6.2c2.1,2.1,0.4,5,1.3,7.5c1.7,2.1,5,1.2,7.5,1.7
			c4.6-3.7,1.7-10.8,3.7-15.3c7.5,3.7,12.4,10.8,19.9,13.7c3.7-1.2,5.8-5,5.8-8.7C322.2,324.9,316,320.7,309.7,315.3"/>
		<path class="st1" d="M283.4,380.6c0,3.5,0,8.4,0,9.6c0.1,0.8,0.4,1.2,1.2,1.2h2c0.3,0,0.4,0.1,0.4,0.4v0.8c0,0.3-0.1,0.4-0.3,0.4
			c-0.3,0-1.9-0.1-5.8-0.1c-2.7,0-5,0.1-5.3,0.1c-0.3,0-0.3-0.1-0.3-0.4v-1c0-0.2,0.1-0.3,0.4-0.3h1.8c0.9,0,1.2-0.5,1.2-1.5v-13.2
			h-3c-0.2,0-0.3-0.1-0.2-0.5l0.2-1.5c0-0.2,0.2-0.2,0.6-0.2h2.5v-0.9c0-4.5,1.3-7.4,3.3-9.5c2.4-2.3,4.8-3.2,7.4-3.2
			c2.4,0,4.3,0.9,4.3,2.7c0,1.2-1.3,2.1-2.2,2.1c-0.5,0-1.1-0.1-1.4-0.4c-0.5-0.2-1-0.7-1.2-1.2c-0.5-0.8-1.2-1.2-1.8-1.2
			c-1.1,0-1.9,0.3-2.7,1.4c-1.2,1.6-1,5.1-1,8.5v1.5h5.3c0.4,0,0.4,0.2,0.4,0.4l-0.2,1.6c0,0.2-0.2,0.2-0.6,0.2h-4.8V380.6z"/>
		<path class="st1" d="M303.5,383.4c0-4.9-2.6-7.7-4.6-7.7c-1.1,0-2,0.4-2.8,1.2c-1.4,1.5-1.9,3.4-1.9,6.6c0,2.6,0.2,4.2,1.4,6.2
			c0.8,1.2,1.7,1.9,3.5,1.9C302,391.6,303.5,387.9,303.5,383.4 M305.9,376.6c2.1,2.1,3.1,4.4,3.1,7c0,2.5-1.1,4.9-2.7,6.7
			c-1.8,2-4.5,3.2-7.4,3.2c-2.8,0-5.2-0.8-7.2-3.2c-1.9-2.3-2.4-4.2-2.4-6.9c0-2.1,1.1-5.2,3.7-7.3c2.2-1.8,4.5-2.1,6.3-2.1
			C302.2,374,304.4,375.1,305.9,376.6"/>
		<path class="st1" d="M325.4,383.4c0-4.9-2.6-7.7-4.6-7.7c-1.1,0-2,0.4-2.8,1.2c-1.4,1.5-1.9,3.4-1.9,6.6c0,2.6,0.2,4.2,1.4,6.2
			c0.7,1.2,1.7,1.9,3.5,1.9C323.9,391.6,325.4,387.9,325.4,383.4 M327.8,376.6c2.1,2.1,3.1,4.4,3.1,7c0,2.5-1.1,4.9-2.7,6.7
			c-1.8,2-4.5,3.2-7.4,3.2c-2.8,0-5.2-0.8-7.2-3.2c-1.9-2.3-2.4-4.2-2.4-6.9c0-2.1,1.1-5.2,3.7-7.3c2.2-1.8,4.5-2.1,6.3-2.1
			C324.1,374,326.3,375.1,327.8,376.6"/>
		<path class="st1" d="M346.8,379.9c0-0.7-0.1-1.5-0.4-2.1c-0.6-1.1-2-2.1-3.9-2.1c-1.1,0-2.2,0.3-3.1,1.3c-1.4,1.6-1.8,3.5-1.8,5.3
			c0,5,2.7,8.7,5.4,8.7c1.8,0,2.9-0.9,3.4-1.6c0.3-0.5,0.4-1.1,0.4-1.8V379.9z M351.4,385.7c0,1.7,0.1,3.5,0.4,3.9
			c0.4,0.5,1.2,0.7,1.9,0.8c0.6,0,0.8,0.1,0.9,0.3l0.1,0.5c0.1,0.3,0,0.4-0.3,0.5l-5.9,1.7c-0.3,0.1-0.5-0.1-0.6-0.4l-0.6-2
			c-1.4,1.5-4.2,2.6-6.2,2.6c-1.7,0-3.7-0.5-5.3-2.2c-1.9-1.8-2.7-3.7-2.7-6.5c0-3.1,0.8-5.5,3.1-8c1.8-1.9,3.9-2.8,6.5-2.8
			c1.7,0,3.1,0.3,4.2,0.6l-0.1-8.6c0-1.5-0.4-2.1-2.8-2.6c-0.3-0.1-0.4-0.2-0.4-0.4v-0.8c0-0.2,0.1-0.3,0.4-0.4
			c2.2-0.3,5.1-0.5,6.3-0.8c0.5-0.1,0.8-0.2,1.2-0.2c0.2,0,0.4,0.3,0.3,0.8c-0.2,2.2-0.2,8.6-0.2,14.3V385.7z"/>
		<path class="st1" d="M371.8,374.2c0.4-0.2,0.6-0.3,0.9-0.3c0.3,0,0.5,0.2,0.5,0.6l0.3,2.6h0.2c1.3-1.7,3.7-3.2,6.4-3.2
			c2.7,0,4.2,1.3,5.2,3.3h0.3c1.4-1.9,3.7-3.3,6.2-3.3c1.8,0,2.9,0.3,4.1,1.5c1.2,1.2,2,1.9,2,5.7v5c0,1.2-0.1,3.4-0.1,3.9
			c0,1,0.5,1.3,1.2,1.3h1.1c0.3,0,0.4,0.1,0.4,0.3v0.9c0,0.3-0.1,0.4-0.4,0.4c-0.3,0-1.5-0.1-4.2-0.1c-2.5,0-4.1,0.1-4.3,0.1
			c-0.3,0-0.4-0.1-0.4-0.4v-0.9c0-0.3,0.1-0.4,0.4-0.4h0.7c0.4,0,0.9-0.3,0.9-0.9c0.1-1,0.2-2.6,0.2-3.9v-5.2c0-2.1-0.2-3.3-1-4
			c-0.7-0.7-1.5-1-2.6-1c-1.2,0-2.6,1-3.1,1.8c-0.7,0.9-0.7,2.3-0.7,3.5v8.2c0,1,0.3,1.4,0.8,1.4h1.1c0.4,0,0.4,0.1,0.4,0.3v1
			c0,0.2,0,0.4-0.3,0.4c-0.3,0-1.5-0.1-4.3-0.1c-2.7,0-4.2,0.1-4.5,0.1c-0.2,0-0.3-0.1-0.3-0.4v-0.8c0-0.4,0.1-0.4,0.4-0.4h1
			c0.6,0,1.1-0.4,1.1-2v-7.6c0-3.2-0.5-4.2-1.2-4.7c-0.5-0.4-1.5-0.6-2.4-0.6c-1,0-2.4,0.5-3.2,1.9c-0.6,0.9-0.7,1.9-0.7,3.1v7.9
			c0,1.6,0.4,2,0.9,2h1c0.4,0,0.4,0.1,0.4,0.3v1c0,0.2-0.1,0.4-0.4,0.4c-0.4,0-1.6-0.1-4.4-0.1c-2.6,0-4.1,0.1-4.4,0.1
			c-0.3,0-0.4-0.1-0.4-0.4v-0.9c0-0.2,0.2-0.3,0.5-0.3h1.3c0.4,0,0.7-0.4,0.8-1.2v-2.7v-6.5c0-1.4-0.3-2.2-1.3-2.8l-0.9-0.5
			c-0.2-0.1-0.3-0.2-0.3-0.4V377c0-0.2,0.1-0.3,0.3-0.4L371.8,374.2z"/>
		<path class="st1" d="M411.7,383.1c-1.9,1.2-4.9,2-4.9,5.2c0,1.8,1,2.7,2,2.7c1.2-0.1,2.8-1.3,2.8-2.1V383.1z M412,390.8
			c-1,1.1-2.1,1.8-3.8,2.4c-1,0.3-1.9,0.3-2.8,0.3c-1.6,0-3-1.3-3-3.8c0-2,0.9-4,4.1-5.4c2.7-1.3,4.4-2,5.4-2.7v-2.3
			c-0.1-0.9-0.2-1.9-0.7-2.5c-0.4-0.5-1.2-0.7-2.2-0.7c-0.8,0-1.9,0.3-2.6,0.8c-0.6,0.4-0.2,1.1-0.2,2.2c0,1.6-0.8,2.6-2.6,2.6
			c-0.8,0-1.5-0.5-1.5-1.5c0-1.2,0.7-2.7,2-3.6c1.9-1.4,4.2-2.5,7.2-2.5c2.5,0,3.3,0.5,4.1,1.2c1,0.9,1.1,2.1,1.1,3.3l0.1,7v2.1
			c0,2.4,0.4,3.1,1.2,3.1c0.6,0,1.2-0.4,1.4-0.7c0.2-0.3,0.3-0.3,0.4-0.2l0.5,0.3c0.2,0.1,0.3,0.3,0.1,0.7c-0.4,0.8-1.5,2.6-4.1,2.6
			c-1.7,0-3.1-0.8-3.7-2.7H412z"/>
		<path class="st1" d="M423.9,381.6c0-2-0.4-2.7-1.7-3.5l-0.8-0.4c-0.3-0.1-0.4-0.2-0.4-0.3v-0.3c0-0.2,0.1-0.3,0.4-0.4l5.4-2.5
			c0.3-0.1,0.4-0.2,0.7-0.2c0.3,0,0.3,0.3,0.4,0.5l0.4,3.2h0.2c1.5-2.5,3.4-4,5.3-4c1.4,0,2.3,1,2.3,2.2c0,1.2-1.2,2.4-2.4,2.4
			c-0.6,0-1.2-0.2-1.5-0.4c-0.4-0.3-0.8-0.4-1.2-0.4c-0.5,0-1.3,0.4-1.9,1.3c-0.4,0.6-0.5,1.6-0.5,2.2v8.5c0,1.4,0.4,1.9,1.2,1.9
			h1.9c0.3,0,0.4,0.1,0.4,0.3v1c0,0.2-0.1,0.3-0.3,0.3c-0.3,0-2.3-0.1-5.5-0.1c-3.1,0-4.8,0.1-5.2,0.1c-0.2,0-0.3-0.1-0.3-0.3v-1
			c0-0.3,0.1-0.4,0.4-0.4h1.5c0.7,0,1.2-0.4,1.2-1.2V381.6z"/>
		<path class="st1" d="M443.2,390.4c0,0.7,0.3,1.1,0.9,1.1h1c0.4,0,0.4,0.1,0.4,0.4v0.9c0,0.2-0.1,0.4-0.4,0.4
			c-0.3,0-1.8-0.1-4.2-0.1c-2.8,0-4.3,0.1-4.6,0.1c-0.2,0-0.3-0.2-0.3-0.4v-0.8c0-0.3,0.1-0.4,0.4-0.4h1.2c0.6,0,0.9-0.5,0.9-1.1
			c0.1-0.9,0.1-4.8,0.1-6.5l-0.1-16c0-1.7-0.1-2.6-2.3-3.2c-0.4-0.2-0.6-0.3-0.6-0.4v-0.6c0-0.2,0.2-0.4,0.6-0.4
			c1.2-0.3,5-1.7,5.6-1.9c0.6-0.3,1.1-0.4,1.3-0.4c0.3,0,0.4,0.2,0.3,0.7c-0.2,2.1-0.3,8.7-0.3,13.9v6.7c0.5,0,1.3-0.2,1.8-0.5
			c1.1-1,3.5-3.6,4.1-4.4c0.2-0.3,0.3-0.6,0.3-0.8c0-0.3-0.3-0.6-0.8-0.6h-0.4c-0.2,0-0.3-0.1-0.3-0.4v-0.9c0-0.2,0.1-0.4,0.4-0.4
			c0.3,0,1.9,0.1,4.4,0.1c2.4,0,3.5-0.1,3.9-0.1c0.2,0,0.3,0.2,0.3,0.5v0.8c0,0.3-0.1,0.4-0.4,0.4H456c-0.6,0-1.8,0.2-2.7,0.8
			c-1,0.5-4.5,3.7-5.8,4.9c1.3,1.5,7.6,8.5,8.7,9.2c0.7,0.4,1.8,0.6,2.3,0.6c0.3,0,0.4,0.1,0.4,0.4v0.9c0,0.3-0.1,0.4-0.4,0.4
			c-0.4,0-1.6-0.1-4.5-0.1c-2.6,0-4.4,0.1-4.8,0.1c-0.3,0-0.4-0.1-0.4-0.4v-0.8c0-0.3,0.1-0.3,0.4-0.3h0.3c0.4,0,0.5-0.3,0.4-0.6
			c-0.1-0.4-4.3-5.4-5.2-6.5c-0.4-0.4-1.1-0.5-1.4-0.5V390.4z"/>
		<path class="st1" d="M468,380.2c0.9,0,1.5-0.3,1.5-0.6c0-1.3-0.4-3.9-2.7-3.9c-2.2,0-3.5,1.6-4.1,4.6H468z M462.5,383.1
			c0,4.5,3.2,7.2,5.8,7.2c2.7,0,4.4-1.2,5.3-2.6c0.2-0.3,0.4-0.3,0.5-0.2l0.7,0.4c0.2,0.1,0.3,0.3,0,0.9c-0.9,1.7-3.2,4.7-8,4.7
			c-2.8,0-4.8-0.6-6.4-2.4c-2-2.4-2.5-4.6-2.5-7.3c0-2.4,0.3-4.1,2.2-6.5c1.9-2.4,3.9-3.3,7.7-3.3c5,0,6.7,5.3,6.7,7.1
			c0,0.7-0.4,0.7-1.2,0.7h-10.7V383.1z"/>
		<path class="st1" d="M477.1,376.9c-0.4,0-0.6-0.2-0.6-0.6c0-0.4,0.3-0.6,0.8-0.8c1.2-0.4,5.1-3.7,6.1-5.6c0.2-0.4,0.4-0.4,0.7-0.4
			c0.4,0,0.5,0.3,0.5,0.6l-0.2,4.4h5.8c0.3,0,0.4,0.2,0.3,0.4l-0.4,1.9c0,0.2-0.2,0.3-0.4,0.3h-5.4c-0.1,1.9-0.1,4-0.1,5.9v4
			c0,3.5,1.5,4.2,2.3,4.2c1,0,1.9-0.2,2.6-0.5c0.3-0.1,0.4-0.1,0.5,0.1l0.3,0.5c0.1,0.3,0,0.4-0.2,0.6c-0.6,0.4-2.5,1.8-5.6,1.8
			c-2.7,0-4.6-2.1-4.6-4c0-1.6,0.1-5.1,0.1-6.8v-5.7H477.1z"/>
	</g>
</g>
</svg>
