<svg xmlns="http://www.w3.org/2000/svg" width="181" height="43" viewBox="0 0 181 43">
  <g id="LOGO_-_Desktop_1x" data-name="LOGO - Desktop 1x" transform="translate(-4.575 -6.19)">
    <path id="Path_985" data-name="Path 985" d="M109.555,29.16c0,5.928,3.638,10.065,8.855,10.065,3.741,0,6.218-1.717,7.312-4.967l.094-.284-1.486-.405-.085.239a5.529,5.529,0,0,1-4.955,3.863c-3.091,0-4.648-2.3-4.648-7.334,0,0-.009-1.028,0-1.244h11.538v-.509c0-5.928-3.185-9.908-8.14-9.908-4.75,0-8.482,4.508-8.482,10.485m5.11-1.722v-.7c0-4.665,1.023-6.9,3.532-6.9,2.153,0,3.331,2.348,3.331,6.779v.825Z" fill="#6a6360"/>
    <path id="Path_986" data-name="Path 986" d="M161.763,14.679c0,1.339,1.41,2.47,3.078,2.47s3.082-1.132,3.082-2.47a3.145,3.145,0,0,0-6.16,0" fill="#6a6360"/>
    <path id="Path_987" data-name="Path 987" d="M108.471,36.879c-.76-.067-1.223-.622-1.223-2.786V20.7h2.824v-1.93h-2.824V13.088h-1.272l-3.563,5.693-1.3,0V20.7h1.3V32.552c0,4.03.663,6.239,4.492,6.3l.018.018h3.216V36.879Z" fill="#6a6360"/>
    <path id="Path_988" data-name="Path 988" d="M170.462,23.677c0,3.719,2.557,5.31,6.1,6.991l.85.4c2.936,1.384,4.319,2.286,4.319,3.877a2.919,2.919,0,0,1-3.127,2.908c-2.424,0-5.809-1.938-6.165-4.891h-1.8l.036,5.864h1.881v-.482c0-.334.2-.415.471-.415a3.153,3.153,0,0,1,1.259.536,9.021,9.021,0,0,0,4.492.825c3.683,0,6.8-2.655,6.8-5.887,0-4-2.722-5.68-7.237-7.708-2.726-1.217-4.247-1.957-4.247-3.254a2.768,2.768,0,0,1,2.949-2.56,6.028,6.028,0,0,1,5.689,4.372l1.717-.054.018-5.486h-1.846v.528c0,.275-.085.374-.4.374A4.816,4.816,0,0,1,180.9,19.1a10.329,10.329,0,0,0-4.123-.735c-3.421.049-6.311,2.267-6.311,5.31" fill="#6a6360"/>
    <path id="Path_989" data-name="Path 989" d="M135.749,37.537c-2.437,0-3.385-2.551-3.385-9.088,0-5.215,1.046-7.857,3.1-7.857,1.846,0,3.714,2.182,3.714,6.351v4.625c0,3.737-1.281,5.968-3.434,5.968m-5.32,11.652c4.417,0,7.824-1.208,10.128-3.6,2.139-2.218,3.287-5.441,3.3-9.335,0-.036,0-14.222,0-14.222,0-.631-.009-.9.165-1.077s.378-.244,1.268-.244h.391V18.763l-6.253.009V21.63a6.041,6.041,0,0,0-5.075-2.939c-3.941,0-7.027,4.5-7.027,10.25,0,6.018,3.158,10.219,7.686,10.219a5.155,5.155,0,0,0,4.181-1.907s.027.825-.018,1.352a10.149,10.149,0,0,1-2.064,5.824,9.185,9.185,0,0,1-6.667,3.165Z" fill="#6a6360"/>
    <path id="Path_990" data-name="Path 990" d="M169.649,36.884h-.391c-.889,0-1.1-.072-1.272-.248s-.165-.442-.16-1.073l-.022-16.8-6.694,0v1.938h.391c.89,0,1.1.072,1.272.248s.169.446.16,1.077l0,16.8,6.72-.009Z" fill="#6a6360"/>
    <path id="Path_991" data-name="Path 991" d="M72.931,10.929c5.791,0,5.76,1.181,6.965,3.664l1.312,0,.009-5.288H63.386v1.943h.538c.894,0,1.1.072,1.272.248s.169.442.165,1.073V35.563c0,.635.009.9-.165,1.077s-.378.243-1.272.243h-.538v1.943H81.462V32.8H80.128c-1.018,3.047-1.107,4.368-6.69,4.368-2.673,0-3.127-.225-3.127-2.97V23.564h1.148c4.514,0,4.217.933,4.5,3.309l1.192-.023V18.912l-1.169-.045c-.423,2.723.035,3.155-4.533,3.155H70.311v-8.8c0-1.956-.436-2.294,2.62-2.294" fill="#6a6360"/>
    <path id="Path_992" data-name="Path 992" d="M101.083,36.884c-.89,0-1.1-.072-1.272-.248s-.165-.442-.16-1.073V26.025c0-4.778-1.406-7.347-5.782-7.347a6.95,6.95,0,0,0-6.018,3.336v-3.25l-6.24.009v1.943H82c.89,0,1.1.072,1.268.243s.169.447.165,1.077l0,16.791h6.538V36.884h-.391c-.89,0-1.1-.072-1.272-.248s-.165-.442-.16-1.073V26.927c0-3.705,2.629-6.329,4.648-6.329,1.61,0,2.144,2.051,2.144,4.062V38.822l6.538,0V36.884Z" fill="#6a6360"/>
    <path id="Path_993" data-name="Path 993" d="M157.521,18.53c-1.721,0-3.514,1.46-4.537,4.341,0,.013-.013.027-.018.04V18.765H146.54V20.7h.391c.89,0,1.1.072,1.268.248s.169.442.165,1.077l-.013,16.8h6.738V36.885H154.7c-.89,0-1.1-.072-1.272-.248s-.165-.442-.16-1.077l0-7.519c0-4.034,1.018-6.063,1.837-6.063.369,0,.338.433.6,1.186a2.3,2.3,0,0,0,2.224,1.542c1.637,0,2.606-1.113,2.606-3.052a3.047,3.047,0,0,0-3-3.124" fill="#6a6360"/>
    <path id="Path_994" data-name="Path 994" d="M35.346,14.024a8.138,8.138,0,0,0-2.326-5.815,8.05,8.05,0,0,0-5.942-2.015c-4.817.144-10.666,3.291-15.269,8.217s-7.37,11-7.228,15.854A8.177,8.177,0,0,0,6.92,36.13c4.008,3.809,11.987,2.015,18.765-3.854-.445-.311-.867-.635-1.263-.969-3.087,2.5-6.414,4.021-9.185,4.1a5.13,5.13,0,0,1-3.794-1.262A5.231,5.231,0,0,1,9.971,30.4c-.107-3.651,2.153-8.407,5.894-12.409s8.326-6.563,11.942-6.671A5.135,5.135,0,0,1,31.6,12.577a4.376,4.376,0,0,1,1.077,1.654,5.816,5.816,0,0,1,.329,1.329,7.011,7.011,0,0,1,.066.766c.1,3.363-1.81,7.654-5.035,11.44.4.289.818.563,1.268.83,3.643-4.35,5.738-9.187,6.013-13.266a12.878,12.878,0,0,0,.027-1.307" fill="#ab0d1c"/>
    <path id="Path_995" data-name="Path 995" d="M56.154,22.173c-2.891-3.886-8.815-6.892-15.456-7.843a31.568,31.568,0,0,0-5.35-.306q.02.642-.027,1.312a26.22,26.22,0,0,1,4.995.252c8.135,1.163,14.255,5.693,13.637,10.093S46.205,32.7,38.066,31.535A24.122,24.122,0,0,1,29.3,28.6c-.445-.262-.867-.541-1.263-.83a11.214,11.214,0,0,1-2.4-2.308,5.444,5.444,0,0,1-1.21-4.016A5.425,5.425,0,0,1,26.7,17.927a13.954,13.954,0,0,1,6.311-2.367,6.038,6.038,0,0,0-.329-1.329c-6.712.847-11.76,4.093-12.4,8.6-.423,3,1.188,6,4.136,8.479q.6.5,1.268.974A27.656,27.656,0,0,0,37.54,36.728c10.381,1.488,19.539-2.326,20.411-8.5a8.2,8.2,0,0,0-1.8-6.058" fill="#ab0d1c"/>
  </g>
</svg>