<svg xmlns="http://www.w3.org/2000/svg" viewBox="0 0 550.5 248.5">
  <path d="M527.2 63.5c-3.6 0-4.2-3.9-4.2-6.7 0-4.7 1.2-9.4 2.6-13.9l11.3-37.7.1-.5c0-1-1.4-1-2-1-2.6 0-5.2.8-7.8 1.3-6.3 1.3-12.8 3.1-19.3 2.9l-2.7-.1c-1.4-3.4-4-7.8-8.1-7.8C492 0 485 7.7 485 12.5c0 3.3 5.4 4 7.9 4.6-5.9 25.2-15 51.1-38.4 65.1-5.5 3.3-12.5 6-19 6-6.6 0-10.3-3.6-11.1-10 20.4-7.1 40.7-19.6 47.2-41.6.7-2.4 1.2-5 1.2-7.5 0-7.9-5.9-13.3-13.6-13.3-1.4 0-2.9.2-4.3.6-25.7 7.3-46.9 37.6-46.9 64 0 2.9.3 5.9 1.3 8.7-3.6 3.6-10.8 10.5-16.3 10.5-3 0-3.7-2.6-3.7-5.1 0-4.3 1.5-9 2.8-13.1l9.8-32.1c.6-1.9 1-4 1-6 0-5.3-3.1-8.8-8.5-8.8-10.5 0-21.5 9.6-26.9 18l-2.4-5.8c-1.5-.3-3-.4-4.5-.4-2.1 0-4.2.3-6.3.8L334.5 112c-3.3 3.1-9.5 8.6-14.3 8.6-3 0-3.7-2.6-3.7-5.1 0-4.3 1.5-9 2.8-13.1L329 70c.6-1.9 1-4 1-6 0-5.3-3.1-8.8-8.5-8.8-10.5 0-21.5 9.6-26.9 18l-2.4-5.8c-1.5-.3-3-.4-4.5-.4-2.1 0-4.2.3-6.3.8l-19.8 64.7c-3.5 3.4-9.8 9-14.9 9-2.7 0-3.6-2-3.6-4.4 0-2.5.7-5 1.4-7.4L260 78.9c-3.2-.9-6.6-1.2-10-1.2-31.4 0-53.4 21.5-62.7 50.1-2.4 7.5-4.4 16.1-4.4 23.9 0 8.6 2.8 16.3 12.8 16.3 11.8 0 23.1-8.6 31-16.6 1.4 3 4.3 4 7.4 4 8.6 0 17.7-6.1 24-11.5 2.1.2 4.3.4 6.4.4 2.8 0 5.7-.2 8.5-.7l11.6-37.8c3.7-12.1 10.8-31.1 24-35.4.5-.2 1-.2 1.5-.2 1.9 0 2.7 1.6 2.7 3.3 0 .8-.1 1.6-.4 2.3l-11.8 38.7c-1 3.4-1.9 6.9-1.9 10.5 0 5.9 2.7 9.5 8.8 9.5 8.5 0 17.5-6 23.7-11.4 2.1.2 4.1.3 6.2.3 2.8 0 5.7-.2 8.5-.7l11.6-37.8c3.7-12.1 10.8-31.1 24-35.4.5-.2 1-.2 1.5-.2 1.9 0 2.7 1.6 2.7 3.3 0 .8-.1 1.6-.4 2.3l-11.8 38.7c-1 3.4-1.9 6.9-1.9 10.5 0 5.8 2.7 9.5 8.8 9.5 10.1 0 26.2-10.9 32.6-18.4 3.4 3.3 8.3 4.5 12.9 4.5 10.7 0 22.2-4.3 31.2-10 26.6-16.8 37-42.7 46.1-71.4 5.2-.1 10.5-1 15.6-2.1l-11.9 39c-.9 3.1-1.6 6.2-1.6 9.4 0 6.8 3.5 11.2 10.6 11.2 10.8 0 20.9-8.5 23-19.1-2.5 2.8-7.8 6.8-11.7 6.8zm-72.1-36.7c3.8 0 5.1 2.4 5.1 5.9 0 1.9-.5 3.7-1 5.5-4.7 16-19.4 25.4-34.3 30.7 2.1-12.6 15-42.1 30.2-42.1zM227.9 135.3c-.6 1.8-1.1 3.7-1.5 5.6-4.7 4.7-12.3 11.4-19.4 11.4-5.1 0-6.2-4.5-6.2-8.7 0-19.4 17.5-55 39.8-54.2h1.2l-13.9 45.9zM337.2 196.2v-4.5h10.9v4.5h-10.9zM361.1 211.6v-34h13.6v4.8h-8.2v9.4h6.3v4.5h-6.3v10.4h8.2v5h-13.6zM386.5 212.2c-4.9 0-8-3-8-7.8v-3h5v2.9c0 2.1 1 3.4 2.9 3.4s2.9-1.2 2.9-3.1c0-3-1.5-5.2-4.3-8.2-2.8-2.8-6.1-6.8-6.1-11.1 0-4.6 2.7-8.3 7.9-8.3 4.5 0 7.5 3.2 7.5 7.8v3.1h-4.9v-3.1c0-1.9-.9-3.2-2.6-3.2-1.6 0-2.7 1-2.7 2.8 0 3.3 1.5 5 4.7 8.3 3.3 3.4 5.8 6.8 5.8 11.1-.1 5.4-3.6 8.4-8.1 8.4zM408.3 182.5v29.1h-5.4v-29.1h-5.3v-5h15.8v5h-5.1zM414.8 211.6v-6h4.8v6h-4.8zM512.3 196.2v-4.5h10.9v4.5h-10.9zM456.7 176.9c-4.6 0-7.4 3.2-7.4 7.7v8.3c0 3.2 2 5.6 5.4 5.6 2.3 0 3.6-.9 4.6-2.1v8.3c0 1.6-.8 2.8-2.7 2.8-1.8 0-2.8-1-2.8-2.8v-2h-4.4v2.5c0 3.7 2.6 7 7.2 7s7.7-3.1 7.7-7.7v-19.7c-.1-4.7-2.9-7.9-7.6-7.9zm2.5 15.5c0 1.3-.9 2.3-2.5 2.3-1.7 0-2.5-1-2.5-2.3V184c0-1.3.9-2.4 2.5-2.4 1.7 0 2.5 1.2 2.5 2.5v8.3zM496.3 197.6c3.4-4.9 5.6-8.2 5.6-12.6 0-4.5-2-8.1-7.4-8.1-4.6 0-7 3.6-7 7.3v3.5h4.5v-3.3c0-1.8.9-3 2.5-3 1.7 0 2.6 1 2.6 3 0 3.5-1.2 5.9-4.2 10.2-4.9 7.5-6 10.7-6 15.3v1.5h14.6v-4.8h-9.7c.7-3.7 3.5-7.6 4.5-9zM438.5 177.6c-.4 1.5-1.6 2.4-3.1 2.6-.7.1-1.9.1-1.9.1v4.4c.5.1 1 .1 1.5.1 1.1 0 2.1-.2 2.9-.5v27.3h5v-34h-4.4zM468.8 177.6v4.8h9.4c-1 3.9-3.9 8.2-6.7 9.9v3.9h4c1.7 0 2.3 1.6 2.3 2.6v6c0 1.6-.8 2.6-2.5 2.6-1.6 0-2.4-1-2.4-2.8v-2h-4.5v2.4c0 3.7 2.3 7.1 7 7.1 4.5 0 7.4-3 7.4-7.2v-6.6c0-2.5-1.5-5-5.3-5.4h-.9c3.3-3 6.5-8.7 6.5-13.8v-1.5h-14.3zM546.8 75.7c.5-.2.9-.6.9-1.3 0-.8-.6-1.5-1.6-1.5h-2v4.8h1.1v-1.9h.5l.9 1.9h1.2l-1-2zm-.9-.7h-.8v-1.3h.8c.4 0 .7.3.7.6 0 .4-.3.7-.7.7z"></path>
  <path d="M545.8 70.7c-2.5 0-4.6 2-4.6 4.6s2 4.6 4.6 4.6 4.6-2 4.6-4.6-2.1-4.6-4.6-4.6zm0 8.1c-2 0-3.5-1.5-3.5-3.5s1.5-3.5 3.5-3.5 3.5 1.5 3.5 3.5c-.1 2-1.6 3.5-3.5 3.5zM547.1 87.9c-13.3 0-27.1 4-40 7-34.7 8-69 17.3-103.2 27.1-68.4 19.7-136.1 41.9-203.3 65.6-39.6 13.9-79 28.2-118.1 43.6 27.1 4.8 54.3 10 80.9 17.4 48.8-44.8 145.6-84.3 208.7-106 58.7-20.2 118-39.4 178.4-53.7-.9-1.1-2.3-1-3.4-1M130.6 25.2c4.6-6.7 11.5-14.3 20.3-14.3 6.5 0 10.5 5.3 11.6 11.2 2.8-2.5 4.1-6.2 4.1-9.8 0-9.5-9.4-12.4-17.2-12.4-14.9 0-27.8 10.3-36.4 21.7-2.4-.2-4.8-.3-7.2-.3-8.4 0-16.9 1.2-25 3.6C53.9 32.8 30 58.5 30 87.4c0 23.8 16.9 44.8 39.6 51.2-5 16.2-9.4 32.9-16.9 48.2-5.2-1.4-10.6-2.6-16-2.6-13.6 0-36.1 7.9-36.1 24.3 0 12.1 11 15.9 21.3 15.9 17.4 0 30.8-8.3 41.2-21.8 6.1 1.3 12.3 1.9 18.5 1.9 55.4 0 97.6-50.2 97.6-103.7 0-32.7-16.1-64.5-48.6-75.6zM25.3 212.7c-3.2 0-5.5-1.3-5.5-4.7 0-7.7 10.9-11.4 17.2-11.4 3.2 0 6.3.6 9.3 1.5-4.7 7-11.8 14.6-21 14.6zM46.9 90.5c0-30.1 28.6-55.2 57.8-56C97.7 47.7 93 62 88.6 76.3L73 127.6c-16.9-4.4-26.1-20.4-26.1-37.1zm46.6 100.1c-4.5 1.3-9.2 2-13.8 2-3.1 0-6.3-.4-9.4-1 9.1-16.1 14.3-33.9 19.7-51.4 12.8-1.6 30.6-10.8 30.6-25.6 0-3.8-1.2-7.7-3.4-10.8-2.8 11.6-12 19.7-23.2 23l17.4-57.2c3.4-11.1 7.2-22.2 12.3-32.6 26.5 8.3 36.7 35 36.7 60.6.1 41.2-26.9 81.2-66.9 93z"></path>
</svg>