<svg class="icon icon-header-logo" itemprop="logo" xmlns="http://www.w3.org/2000/svg" width="139" height="141" viewBox="0 0 139 141">
<defs>
    <style>
      .cls-1 {
        fill: #164633;
        fill-rule: evenodd;
      }
    </style>
  </defs>
  <path id="logo" class="cls-1" d="M1220.64,179.346a0.953,0.953,0,0,0-1.33-.767c0.98,0.381.99,1.1,0.32,2.281A2.143,2.143,0,0,0,1220.64,179.346Zm-4.07,11.868c0.87,1.414,1.16,1.613,2.06,3.137a21.981,21.981,0,0,0,1.79,2.61,0.7,0.7,0,0,0,.67.3c0.14-.042.26-0.131,0.2-0.222-0.68-.893-2.64-3.879-2.99-4.384,0,0-3.22-4.928-3.36-5.017s-0.26.109-.36,0.2c-0.11.112-.03,0.263,0.52,1.128C1215.23,189.168,1215.99,190.32,1216.57,191.214Zm-27.62-32.741a1.089,1.089,0,0,0-1,1.218h1.82A1.057,1.057,0,0,0,1188.95,158.473Zm5.12,11.214a0.512,0.512,0,0,0,.21.432,0.828,0.828,0,0,0,.68.089,4.041,4.041,0,0,0,.66-0.325l0.02-1.112-0.3.07C1194.23,169.12,1194.07,169.315,1194.07,169.687Zm-13.42,1.957a1.113,1.113,0,0,0,1.29,1,1.055,1.055,0,0,0,1.3-.925,0.884,0.884,0,0,0-1.07-.757h-0.56a1.171,1.171,0,0,0-.67.12A0.7,0.7,0,0,0,1180.65,171.644Zm11.34,9.5a12.586,12.586,0,0,0-2.3,7.405c-0.03,5.127,2.57,8.53,6.88,9.191a11.886,11.886,0,0,1-4.78-3.927,13.253,13.253,0,0,1-1.17-8.533,12.748,12.748,0,0,1,3.23-6A9.192,9.192,0,0,0,1191.99,181.145Zm17.82,0.11c0.11,3.039-.03,12.593-0.04,12.593a4.234,4.234,0,0,1-.95,2.751s1.29-.469,1.46-2.643l0.05-12.229c0-2-.71-2.746-1.71-2.984A3.242,3.242,0,0,1,1209.81,181.255Zm-6.14-.452a10.5,10.5,0,0,1,1.12,1.977c-0.16-2.514-.89-2.982-2.76-3.455A9.594,9.594,0,0,1,1203.67,180.8ZM1186.01,201.7a1.865,1.865,0,0,0-.69-0.6,1.743,1.743,0,0,0-.91-0.19,1.8,1.8,0,0,0-.97.3,1.966,1.966,0,0,0-.62.724,3.2,3.2,0,0,0-.32.994,5.723,5.723,0,0,0-.07,1.183,5.6,5.6,0,0,0,.17,1.231,3.187,3.187,0,0,0,.43.964,1.9,1.9,0,0,0,.68.628,1.756,1.756,0,0,0,.94.2,1.776,1.776,0,0,0,.91-0.273,1.878,1.878,0,0,0,.65-0.691,3.427,3.427,0,0,0,.35-1,5.953,5.953,0,0,0,.07-1.226,6.033,6.033,0,0,0-.18-1.268A3.4,3.4,0,0,0,1186.01,201.7Zm-0.46-20.487a1.5,1.5,0,0,0,.14-0.486,2.634,2.634,0,0,0-.17-1.58,1.688,1.688,0,0,0-1.8-.585,2.484,2.484,0,0,1,1.32.736A3.556,3.556,0,0,1,1185.55,181.209Zm19.21,23.262,0.37,0.008c0.13,0,.31,0,0.52,0,0.26,0,.45,0,0.59,0l0.4-.008-0.87-2.864Zm22.33-8.712a0.809,0.809,0,0,0-.2.02v0.468h0.17c0.21,0,.38-0.069.38-0.24C1227.44,195.858,1227.33,195.759,1227.09,195.759Zm-54.92-13.268s0.02,5.421.04,7.03c0,0.045.09,1.65,0.09,1.65a7.888,7.888,0,0,0,1.43,4.54,6.378,6.378,0,0,0,3.24,1.687,10.014,10.014,0,0,1-1.81-1.067,4.929,4.929,0,0,1-1.31-1.383,13.315,13.315,0,0,1-1.07-5.274l-0.03-7.158v-0.809c-0.08-2.368-1.32-2.777-1.32-2.777S1172.22,179.205,1172.17,182.491Zm28.21,21.726a1.651,1.651,0,0,0,1.21-.415,1.585,1.585,0,0,0,.42-1.183,1.541,1.541,0,0,0-.4-1.13,1.409,1.409,0,0,0-1.08-.415c-0.11,0-.22.006-0.33,0.016a3.221,3.221,0,0,0-.38.058c-0.01.432-.01,0.871-0.02,1.315v1.7a2.85,2.85,0,0,0,.31.044C1200.21,204.211,1200.29,204.217,1200.38,204.217ZM1183.5,121L1114,191.5l69.5,70.5,69.5-70.5Zm-64.18,70.5,64.18-65.1,64.18,65.1-64.18,65.107Zm107.84,3.627a1.21,1.21,0,0,0,.01,2.418,1.149,1.149,0,0,0,1.14-1.2A1.164,1.164,0,0,0,1227.16,195.126Zm0.36,2.047a1.4,1.4,0,0,1-.13-0.4,0.29,0.29,0,0,0-.34-0.26h-0.17v0.659h-0.38V195.5c0.46-.01.36-0.014,0.62-0.014a0.966,0.966,0,0,1,.56.12,0.451,0.451,0,0,1,.16.359,0.42,0.42,0,0,1-.33.377v0.019a0.493,0.493,0,0,1,.29.4,1.243,1.243,0,0,0,.12.409h-0.4ZM1183.5,130.5l-60.14,61,60.14,61,60.13-61Zm23.36,47.139a2.77,2.77,0,0,1,.48.031,17.15,17.15,0,0,0,2.92.267c0.87,0,3.28-.184,3.38-0.211,0.84-.231.93,0.195,0.93,0.493,0,0.328-.1.488-0.81,0.719-0.83.269-1.17,0.745-1.31,2.008V187.2c0,0.568.08,0.494,0.27,0.494a1.712,1.712,0,0,0,.95-0.788c0.96-.906,2.36-2.441,2.52-2.651l2.01-2.236c1.47-1.924,1.45-2.217,1.46-2.534a1.033,1.033,0,0,0-1.06-.691,0.572,0.572,0,0,1-.48-0.641,0.471,0.471,0,0,1,.55-0.515l1.18,0.149a16.753,16.753,0,0,0,2.83.054s1.16-.128,1.34-0.143a0.428,0.428,0,0,1,.53.447,0.573,0.573,0,0,1-.51.649,10.249,10.249,0,0,0-2.52,1.612c-0.69.56-2.79,2.8-2.79,2.8s-1.25,1.309-1.52,1.609a3.281,3.281,0,0,0-.81,1.048c0,0.749.21,0.7,0.63,1.357,0,0,3.02,4.581,3.73,5.594a19.586,19.586,0,0,0,2.03,2.879,4.887,4.887,0,0,0,1.51,1.02,0.629,0.629,0,0,1,.48.653,0.538,0.538,0,0,1-.63.482c-0.05,0-1.04-.066-1.04-0.066a3.41,3.41,0,0,0-1.18-.114c-0.33.048-.86,0.18-1.04,0.18a1.269,1.269,0,0,1-1.17-.874l-0.92-1.428-1.47-2.117-1.59-2.441-1.39-2.205s-0.3-.394-0.34-0.428c-0.13-.117-0.18.027-1.1,1.014a2.36,2.36,0,0,0-.47,1.828v2.472c0,1.968.48,2.554,1.93,2.912a0.821,0.821,0,0,1,.57.839,0.474,0.474,0,0,1-.5.428,2.1,2.1,0,0,1-.59-0.035c-0.79-.089-2-0.178-2.87-0.178a26.984,26.984,0,0,0-2.94.2,1.918,1.918,0,0,1-.42.031,0.5,0.5,0,0,1-.56-0.511,0.765,0.765,0,0,1,.6-0.689c1.16-.492,1.54-0.854,1.63-3.263V181.961c-0.16-2.362-.37-3.02-2.14-3.043a0.776,0.776,0,0,1-.74-0.7A0.553,0.553,0,0,1,1206.86,177.642Zm-2.73,1.5a0.352,0.352,0,0,0,.29-0.16,0.87,0.87,0,0,1,.61-0.711,1.082,1.082,0,0,1,.36.955c0.16,1.609.37,4.333,0.37,4.714-0.01.6,0.01,0.748-.26,0.748a1.482,1.482,0,0,1-.91-1.141c-2.14-4.254-4.33-4.782-6.34-5-3.03-.279-5.87,2.649-5.86,8.2,0.07,3.63,2.11,9.173,6.46,9.371,1.57,0,3.1-.132,5.64-2.6,0.52-.624.96-1.284,1.2-1.218a0.449,0.449,0,0,1,.29.526,6,6,0,0,1-1.43,2.386,8.882,8.882,0,0,1-6.75,2.9c-5.02-.033-8.56-3.6-8.48-9.7,0.08-6.4,3.9-11.077,8.81-11.077a9.5,9.5,0,0,1,5.02,1.35C1204.05,179.2,1203.96,179.143,1204.13,179.143Zm-5.4-14.875c0.3-.082.83-0.277,0.83-0.277l-0.04,4.676v1.216a1.509,1.509,0,0,0,.03.34,0.37,0.37,0,0,0,.23.225,1.136,1.136,0,0,0,.33.025v0.382s-0.76-.045-1.07-0.051-1.15.054-1.15,0.054v-0.381a1.843,1.843,0,0,0,.42-0.025,0.361,0.361,0,0,0,.22-0.227,1.081,1.081,0,0,0,.03-0.34l0.02-1.36h0V168.1c0-.3-0.03-2.89-0.07-3.113a0.426,0.426,0,0,0-.09-0.186,0.486,0.486,0,0,0-.49,0l-0.07-.393A5.357,5.357,0,0,0,1198.73,164.268Zm-3.38,2.815a0.732,0.732,0,0,0-1.12.3v0.062a0.153,0.153,0,0,1,.01.058,0.271,0.271,0,0,1-.16.24,0.67,0.67,0,0,1-.36.095,0.552,0.552,0,0,1-.28-0.054,0.2,0.2,0,0,1-.08-0.173,1.383,1.383,0,0,1,.69-0.958,2,2,0,0,1,2.12-.107,1.355,1.355,0,0,1,.37,1.038c0,0.246-.01.626-0.04,1.139s-0.05.9-.05,1.165a0.655,0.655,0,0,0,.08.407,0.583,0.583,0,0,0,.71-0.213l0.21,0.366a5.159,5.159,0,0,1-.7.389,1.459,1.459,0,0,1-.52.137,0.607,0.607,0,0,1-.48-0.143,0.672,0.672,0,0,1-.18-0.482,3.257,3.257,0,0,1-1.17.608,1.062,1.062,0,0,1-.82-0.354,1.187,1.187,0,0,1-.35-0.86c0-.577.3-1.013,1.67-1.309,0.33-.068.47-0.122,0.65-0.163v-0.226A1.121,1.121,0,0,0,1195.35,167.083Zm-3.95-.651a1.02,1.02,0,0,1,.43.193,0.854,0.854,0,0,1,.28.3,2.106,2.106,0,0,1,.13.426,2.8,2.8,0,0,1,.05.628l0.01,1.405v0.525a1.1,1.1,0,0,0,.03.341,0.371,0.371,0,0,0,.23.224,0.831,0.831,0,0,0,.28.026v0.381s-0.71-.044-1.02-0.05-1.05.054-1.05,0.054v-0.382a1.4,1.4,0,0,0,.35-0.025,0.378,0.378,0,0,0,.23-0.226,1.091,1.091,0,0,0,.03-0.341l-0.01-.525h0.01l-0.01-.856a3.914,3.914,0,0,0-.06-0.807,0.652,0.652,0,0,0-.74-0.581,0.907,0.907,0,0,0-.47.085,6.305,6.305,0,0,0-.59.33l0.01,1.837v0.525a1.1,1.1,0,0,0,.03.341,0.376,0.376,0,0,0,.23.224,0.863,0.863,0,0,0,.29.023l0.01,0.382s-0.74-.043-1.04-0.049-1.09.055-1.09,0.055l-0.01-.382a1.5,1.5,0,0,0,.36-0.025,0.377,0.377,0,0,0,.23-0.227,1.087,1.087,0,0,0,.03-0.34V169.4h0l0.04-1.32a6.679,6.679,0,0,0-.06-0.839,0.426,0.426,0,0,0-.09-0.186,0.394,0.394,0,0,0-.44-0.013l-0.07-.393a4.433,4.433,0,0,0,.81-0.124c0.31-.082.84-0.277,0.84-0.277l-0.08.829,0.02,0a5.171,5.171,0,0,1,.97-0.617,1.248,1.248,0,0,1,.44-0.076A2.4,2.4,0,0,1,1191.4,166.432Zm-4.14-7.39a1.931,1.931,0,0,1,.69-0.813,2.081,2.081,0,0,1,1.83-.139,1.278,1.278,0,0,1,.51.405,1.853,1.853,0,0,1,.31.648,4.453,4.453,0,0,1,.12,1.021h-2.75a2.116,2.116,0,0,0,.14.931,1.229,1.229,0,0,0,.97.834,1.917,1.917,0,0,0,1.44-.5l0.19,0.395a3.421,3.421,0,0,1-.59.44,2.179,2.179,0,0,1-.57.259,1.928,1.928,0,0,1-.64.1,1.771,1.771,0,0,1-1.46-.579A2.8,2.8,0,0,1,1187.26,159.042Zm-0.04,11.461v0.381s-0.76-.044-1.06-0.05-1.16.054-1.16,0.054v-0.381a1.713,1.713,0,0,0,.42-0.026,0.378,0.378,0,0,0,.23-0.226,1.088,1.088,0,0,0,.03-0.341l0.02-1.357-0.01,0,0.01-.428a5.136,5.136,0,0,0-.07-0.84,0.412,0.412,0,0,0-.09-0.184,0.482,0.482,0,0,0-.49,0l-0.07-.395a5.06,5.06,0,0,0,.87-0.134c0.3-.081.83-0.276,0.83-0.276l-0.05,2.4,0.01,1.216a1.091,1.091,0,0,0,.03.341,0.375,0.375,0,0,0,.23.225A1.054,1.054,0,0,0,1187.22,170.5Zm-1.79-5.678a0.354,0.354,0,0,1,.06-0.2,0.715,0.715,0,0,1,.21-0.213l0.39-.306,0.38,0.282a0.924,0.924,0,0,1,.22.225,0.493,0.493,0,0,1,.06.236,0.36,0.36,0,0,1-.05.211,1,1,0,0,1-.21.207l-0.39.306-0.37-.294a1.007,1.007,0,0,1-.23-0.227A0.447,0.447,0,0,1,1185.43,164.825Zm-3.54-2.717a1.548,1.548,0,0,0,.36-0.025,0.372,0.372,0,0,0,.23-0.225,1.5,1.5,0,0,0,.03-0.341v-0.524h0l0.05-3.559a6.69,6.69,0,0,0-.06-0.838,0.4,0.4,0,0,0-.1-0.184,0.368,0.368,0,0,0-.43-0.016L1181.9,156a4.335,4.335,0,0,0,.81-0.124c0.31-.079.84-0.275,0.84-0.275l-0.08,3.069,0.01,0a5.78,5.78,0,0,1,.98-0.616,1.214,1.214,0,0,1,.43-0.073,2.277,2.277,0,0,1,.47.044,1,1,0,0,1,.43.194,0.833,0.833,0,0,1,.27.306,1.563,1.563,0,0,1,.14.424,3.561,3.561,0,0,1,.05.627v1.932a1.091,1.091,0,0,0,.03.341,0.377,0.377,0,0,0,.23.225,0.83,0.83,0,0,0,.28.025v0.381s-0.71-.046-1.02-0.052-1.06.052-1.06,0.052v-0.381a1.548,1.548,0,0,0,.36-0.025,0.377,0.377,0,0,0,.23-0.225,1.513,1.513,0,0,0,.03-0.341v-1.38a3.918,3.918,0,0,0-.06-0.808,0.66,0.66,0,0,0-.74-0.584,0.929,0.929,0,0,0-.48.085c-0.28.137-.58,0.327-0.58,0.327v1.838h0v0.524a1.084,1.084,0,0,0,.03.341,0.372,0.372,0,0,0,.23.225,0.9,0.9,0,0,0,.29.025v0.381s-0.73-.044-1.03-0.05-1.1.05-1.1,0.05v-0.381Zm0.55,4.258a1.879,1.879,0,0,1,.54.318h0.38a8.349,8.349,0,0,0,.94-0.043l0.05,0.1a2.535,2.535,0,0,0-.25.424h-0.85a1.589,1.589,0,0,1,.11.492,1.508,1.508,0,0,1-.25.8,1.8,1.8,0,0,1-.71.622,2.15,2.15,0,0,1-1,.238l-0.21-.006a2.859,2.859,0,0,0-.32.267,0.3,0.3,0,0,0-.03.134c0,0.2.13,0.389,0.54,0.389,0.28,0,.65-0.019,1.08-0.019,0.7,0,1.59.118,1.59,1.2a1.71,1.71,0,0,1-.61,1.214,2.911,2.911,0,0,1-1.91.658c-1.38,0-1.83-.658-1.83-1.175a0.612,0.612,0,0,1,.14-0.428c0.08-.1.46-0.317,0.6-0.447,0.08-.06.15-0.19,0.06-0.219a0.921,0.921,0,0,1-.64-0.827,0.274,0.274,0,0,1,.15-0.247,1.612,1.612,0,0,0,.63-0.529v-0.037a1.335,1.335,0,0,1-.58-0.333,1.226,1.226,0,0,1-.33-0.885,1.6,1.6,0,0,1,.24-0.859,1.655,1.655,0,0,1,.71-0.612,2.627,2.627,0,0,1,1.14-.285A1.872,1.872,0,0,1,1182.44,166.366Zm-6.6-9.39c0.03-.367.05-0.838,0.05-0.838a2.178,2.178,0,0,0,.49.066c0.48,0.019,2.18,0,2.26,0s1.77,0.015,2.26,0a2.178,2.178,0,0,0,.49-0.066s0.01,0.471.05,0.838c0.02,0.3.07,0.763,0.07,0.763l-0.38.06a1.58,1.58,0,0,0-.14-0.54,0.622,0.622,0,0,0-.42-0.343,1.893,1.893,0,0,0-.51-0.063h-0.79v4.468a1.412,1.412,0,0,0,.04.448,0.474,0.474,0,0,0,.3.294,1.783,1.783,0,0,0,.46.033v0.4s-1.03-.062-1.43-0.068-1.43.068-1.43,0.068v-0.4a1.783,1.783,0,0,0,.46-0.033,0.5,0.5,0,0,0,.3-0.294,1.412,1.412,0,0,0,.04-0.448v-4.468h-0.79a1.893,1.893,0,0,0-.51.063,0.622,0.622,0,0,0-.42.343,1.58,1.58,0,0,0-.14.54l-0.38-.06S1175.81,157.278,1175.84,156.976Zm1.8,11.6v-0.428a6.71,6.71,0,0,0-.06-0.84,0.343,0.343,0,0,0-.1-0.184,0.482,0.482,0,0,0-.49,0l-0.07-.4a4.983,4.983,0,0,0,.87-0.133c0.31-.082.84-0.277,0.84-0.277l-0.05,2.4v1.215a1.091,1.091,0,0,0,.03.341,0.37,0.37,0,0,0,.23.225,1.1,1.1,0,0,0,.32.025l0.01,0.381s-0.76-.044-1.07-0.05-1.15.054-1.15,0.054l-0.01-.381a1.735,1.735,0,0,0,.42-0.025,0.356,0.356,0,0,0,.23-0.227,1.081,1.081,0,0,0,.03-0.34l0.02-1.358v0Zm-0.26-3.73a0.447,0.447,0,0,1,.05-0.205,0.952,0.952,0,0,1,.22-0.213l0.39-.306,0.37,0.283a0.924,0.924,0,0,1,.22.225,0.409,0.409,0,0,1,.07.236,0.366,0.366,0,0,1-.06.211,0.731,0.731,0,0,1-.2.207l-0.4.306-0.37-.294a0.952,0.952,0,0,1-.22-0.227A0.369,0.369,0,0,1,1177.38,164.841Zm-3.47,1.724c0.31-.082.84-0.275,0.84-0.275l-0.02,1.059a3.835,3.835,0,0,1,.43-0.624,0.932,0.932,0,0,1,.6-0.37,0.576,0.576,0,0,1,.43.182,0.552,0.552,0,0,1,.19.415c0,0.292-.07.472-0.37,0.48a0.261,0.261,0,0,1-.23-0.091c-0.39-.244-0.94.362-1.07,0.6l-0.01.748v1.216a1.081,1.081,0,0,0,.03.34,0.377,0.377,0,0,0,.23.227,3.054,3.054,0,0,0,.47.025v0.381s-0.91-.046-1.21-0.052-1.16.052-1.16,0.052V170.5a2.125,2.125,0,0,0,.42-0.025,0.377,0.377,0,0,0,.23-0.227,1.5,1.5,0,0,0,.03-0.34l0.02-1.358h0v-0.43a6.739,6.739,0,0,0-.06-0.84,0.417,0.417,0,0,0-.09-0.184,0.5,0.5,0,0,0-.5-0.006l-0.07-.393A5.1,5.1,0,0,0,1173.91,166.565Zm-7.42-.207a2.954,2.954,0,0,1,.67-1.107,3.153,3.153,0,0,1,1.02-.661,3.119,3.119,0,0,1,1.18-.23,3.512,3.512,0,0,1,1.2.2,2.878,2.878,0,0,1,.96.6,3.384,3.384,0,0,1,.78,1.146,3.567,3.567,0,0,1-.01,2.794,3.466,3.466,0,0,1-.82,1.146,3.271,3.271,0,0,1-.99.6,3.215,3.215,0,0,1-2.44-.048,2.738,2.738,0,0,1-.98-0.763,3.453,3.453,0,0,1-.64-1.069,3.6,3.6,0,0,1-.2-1.272A3.37,3.37,0,0,1,1166.49,166.358Zm-19.73,13.24c-0.03-.355-0.33-2.874-1.87-3.186-0.78-.156-1.01-0.433-1.01-0.809a0.558,0.558,0,0,1,.73-0.573c0.15,0.016.68,0.153,1.26,0.2a7.151,7.151,0,0,0,1.55.021c0.49-.07.94-0.2,1.07-0.2,0.67,0,.82.214,1.16,1l0.46,1.229,0.5,1.23,4.61,10.947c0.62,1.572.95,2.364,1.2,2.364,0.21,0,.41-0.062.72-0.778l0.24-.614,5.31-11.852,0.31-.716,0.34-.718c0.68-1.606.89-2.107,1.51-2.107,0.15,0,.72.182,1.05,0.192a6.071,6.071,0,0,0,1.33-.056l0.8-.072c0.09-.035.15,0,0.21-0.035,0.37,0,.63.064,0.61,0.567a0.853,0.853,0,0,1-.8.746c-1.54.308-1.76,1.38-1.76,3.669v0.2l0.28,11.612c0.08,3.8.49,4.325,2.39,4.786a0.663,0.663,0,0,1,.37.8c-0.04.476-.43,0.466-0.8,0.466a1.328,1.328,0,0,1-.37-0.035,16.209,16.209,0,0,0-2.62-.218,28.614,28.614,0,0,0-3.64.317,0.675,0.675,0,0,1-.79-0.7c0.01-.5.34-0.559,1.04-0.972a2.415,2.415,0,0,0,1.11-2.408v-0.171l-0.37-9.35-0.03-.888c-0.03-.889-0.06-1.059-0.3-1.059a0.888,0.888,0,0,0-.53.648l-6.1,13.846c-0.34.751-.52,0.74-0.77,0.74-0.33,0-.58-0.486-1.16-1.989l-4.43-10.773-0.37-.956a4.472,4.472,0,0,0-.79-1.483c-0.18.048-.21,0.048-0.25,0.491l-0.05,1.269-0.04,2.433-0.1,2.448-0.06,2.459v0.34c-0.01,3.369.45,3.972,1.81,4.485l0.76,0.306a0.834,0.834,0,0,1,.38.817,0.573,0.573,0,0,1-.7.47h-0.01l-1.27-.135a14.72,14.72,0,0,0-1.75-.1,16.8,16.8,0,0,0-2.12.138,3.468,3.468,0,0,1-.56.032,0.558,0.558,0,0,1-.68-0.443,0.874,0.874,0,0,1,.58-0.844c0.99-.717,1.22-0.5,1.88-3.547,0.26-1.462.45-6.605,0.53-9.644C1146.76,183.424,1146.8,179.824,1146.76,179.6Zm1.56,27.607a2.523,2.523,0,0,1-1.91.54l-0.4-.011c-0.22-.01-0.87,0-1.01,0-0.09,0-.45.006-0.68,0.015s-0.51.027-.87,0.049v-0.459c0.03,0,.06,0,0.08.008s0.07,0,.13,0a0.492,0.492,0,0,0,.49-0.255,3.138,3.138,0,0,0,.13-1.172v-0.931c-0.01-.114-0.01-0.223-0.02-0.327l-0.01-1.259v-1.831a0.928,0.928,0,0,0-.14-0.571,0.614,0.614,0,0,0-.49-0.173h-0.09v-0.484c0.25,0.025.48,0.043,0.69,0.052,0.19,0.01.79,0.016,0.83,0.016,0.51-.006,1.02-0.05,1.28-0.06l0.41-.02a1.767,1.767,0,0,1,1.17.314,1.839,1.839,0,0,1,.74,1.462,1.766,1.766,0,0,1-1.32,1.65,1.731,1.731,0,0,1,1.79,1.845A2.09,2.09,0,0,1,1148.32,207.205Zm8.12-1.484a3.567,3.567,0,0,1-.82,1.2,3.488,3.488,0,0,1-1.15.736,3.406,3.406,0,0,1-1.37.226,3.464,3.464,0,0,1-1.41-.335,3.284,3.284,0,0,1-1.1-.844,3.61,3.61,0,0,1-.69-1.253,4.221,4.221,0,0,1-.22-1.556,4.4,4.4,0,0,1,.33-1.6,3.716,3.716,0,0,1,.81-1.2,3.432,3.432,0,0,1,1.16-.746,3.55,3.55,0,0,1,2.74.095,3.266,3.266,0,0,1,1.1.813,3.6,3.6,0,0,1,.72,1.261,4.4,4.4,0,0,1,.23,1.609A4.457,4.457,0,0,1,1156.44,205.721Zm7.88,0a3.567,3.567,0,0,1-.82,1.2,3.294,3.294,0,0,1-1.15.736,3.406,3.406,0,0,1-1.37.226,3.464,3.464,0,0,1-1.41-.335,3.246,3.246,0,0,1-1.09-.844,3.628,3.628,0,0,1-.7-1.253,4.69,4.69,0,0,1,.11-3.158,3.908,3.908,0,0,1,.82-1.2,3.248,3.248,0,0,1,1.16-.746,3.527,3.527,0,0,1,2.73.095,3.266,3.266,0,0,1,1.1.813,3.619,3.619,0,0,1,.73,1.261,4.622,4.622,0,0,1,.22,1.609A4.457,4.457,0,0,1,1164.32,205.721Zm6.52-3.55a1.826,1.826,0,0,0-.15-0.577,0.672,0.672,0,0,0-.45-0.366,1.975,1.975,0,0,0-.55-0.07h-0.97v5.308a1.6,1.6,0,0,0,.04.476,0.824,0.824,0,0,0,.45.316,2.327,2.327,0,0,0,.5.034v0.422c-1.23-.073-1.23-0.067-1.53-0.073s-0.3,0-1.53.073v-0.422a2.221,2.221,0,0,0,.49-0.034,0.824,0.824,0,0,0,.45-0.316,1.6,1.6,0,0,0,.04-0.476v-5.308h-0.97a2.027,2.027,0,0,0-.55.07,0.637,0.637,0,0,0-.44.366,1.411,1.411,0,0,0-.15.577l-0.41-.064s0.05-.492.08-0.815c0.03-.393.05-1.028,0.05-1.028a2.245,2.245,0,0,0,.52.07c0.52,0.023,2.33,0,2.42,0s1.9,0.02,2.42,0a2.389,2.389,0,0,0,.52-0.07s0.01,0.635.05,1.028c0.03,0.323.08,0.815,0.08,0.815Zm-1.24-23.363a0.7,0.7,0,0,1-.64-0.658,0.524,0.524,0,0,1,.64-0.475,2.992,2.992,0,0,1,.49.06,11.927,11.927,0,0,0,2.37.237,26.428,26.428,0,0,0,3.45-.237,0.989,0.989,0,0,1,.3-0.031,0.5,0.5,0,0,1,.61.506c0,0.3-.05.356-0.63,0.534-1.15.3-1.46,1.156-1.46,4.095v4.213c0,4.245,0,5.358.76,6.833a4.565,4.565,0,0,0,4.37,2.517,4.86,4.86,0,0,0,4.11-2.253c1.05-1.507,1.14-3.24,1.16-6.622l0.03-3.456v-0.415c0-3.62-.31-4.561-2.09-4.759a1.145,1.145,0,0,1-1.1-.687,0.5,0.5,0,0,1,.57-0.531h0.26l1.61,0.238a5.428,5.428,0,0,0,1.26.026c1.05-.117,1.12-0.117,1.48-0.182,0.2-.029.49-0.078,0.64-0.082a0.442,0.442,0,0,1,.51.5,0.576,0.576,0,0,1-.38.488l-0.42.186c-1,.422-0.96.522-1.02,4.782l0.01,3.923c-0.05,3.529-.38,4.788-1.14,6.649a7.8,7.8,0,0,1-1.91,2.434,7.375,7.375,0,0,1-4.67,1.488,7.056,7.056,0,0,1-4.96-1.55c-1.38-1.247-2.09-3.236-2.14-6.084v-8.043C1171.67,179.546,1171.41,179.2,1169.6,178.808Zm18.49,25.32a4.457,4.457,0,0,1-.33,1.593,3.567,3.567,0,0,1-.82,1.2,3.488,3.488,0,0,1-1.15.736,3.406,3.406,0,0,1-1.37.226,3.464,3.464,0,0,1-1.41-.335,3.284,3.284,0,0,1-1.1-.844,3.61,3.61,0,0,1-.69-1.253,4.221,4.221,0,0,1-.22-1.556,4.4,4.4,0,0,1,.33-1.6,3.716,3.716,0,0,1,.81-1.2,3.432,3.432,0,0,1,1.16-.746,3.55,3.55,0,0,1,2.74.095,3.266,3.266,0,0,1,1.1.813,3.6,3.6,0,0,1,.72,1.261A4.4,4.4,0,0,1,1188.09,204.128Zm-7.94-2.468c0.02,0.232.05,0.486,0.09,0.764l-0.45.078a1.79,1.79,0,0,0-.55-1.226,2.164,2.164,0,0,0-1.34-.383,2.072,2.072,0,0,0-1.64.67,3.657,3.657,0,0,0-.69,2.153,4.407,4.407,0,0,0,.77,2.5,2.2,2.2,0,0,0,1.76.782,2.132,2.132,0,0,0,1.19-.32,2.562,2.562,0,0,0,.73-1.059l0.43,0.211c-0.12.244-.22,0.482-0.32,0.715s-0.16.6-.23,0.825a6.685,6.685,0,0,1-1.05.41,4.065,4.065,0,0,1-1.01.118,3.654,3.654,0,0,1-3.69-3.839,4.339,4.339,0,0,1,1.16-2.9,3.66,3.66,0,0,1,2.62-.983,6.767,6.767,0,0,1,1.13.093,7.091,7.091,0,0,1,1.11.286c0,0.031-.01.079-0.01,0.145v0.147C1180.16,201.054,1180.14,201.429,1180.15,201.66Zm15.19,12.723h-23.38v-2.411h23.38v2.411Zm1.51-6.573c-0.26-.018-0.51-0.029-0.75-0.039s-0.47-.013-0.68-0.013c-0.12,0-.27,0-0.47.011s-0.48.022-.87,0.041v-0.471h0.14a0.733,0.733,0,0,0,.52-0.145,0.77,0.77,0,0,0,.14-0.519v-0.259c0-.087-0.01-0.2-0.02-0.341l-0.19-4.174-1.65,4.282c-0.15.413-.27,0.725-0.33,0.94s-0.11.42-.15,0.615h-0.49c-0.03-.143-0.06-0.3-0.11-0.461s-0.13-.381-0.23-0.654l-1.67-4.6c-0.08,1.129-.15,2.078-0.2,2.845s-0.07,1.287-.07,1.558a1.348,1.348,0,0,0,.13.736,0.636,0.636,0,0,0,.53.174h0.12v0.471c-0.29-.019-0.54-0.035-0.72-0.041s-0.35-.011-0.49-0.011c-0.07,0-.18,0-0.31.009s-0.41.02-.82,0.043v-0.471a0.08,0.08,0,0,1,.03.006c0.08,0.01.14,0.016,0.17,0.016,0.4,0,.64-0.641.73-1.925,0.02-.348.05-0.623,0.06-0.827l0.11-1.254c0.03-.5.06-0.908,0.08-1.239s0.03-.543.03-0.634a0.766,0.766,0,0,0-.13-0.526,0.665,0.665,0,0,0-.5-0.138h-0.12v-0.472c0.2,0.015.38,0.025,0.57,0.033,0.17,0.006.34,0.009,0.49,0.009,0.13,0,.38-0.007.77-0.025l0.38-.017v0.042a19.626,19.626,0,0,0,1.06,3.271c0.29,0.766.51,1.376,0.68,1.829l1.2-3.086c0.25-.654.42-1.119,0.5-1.388a2.393,2.393,0,0,0,.12-0.616v-0.052c0.03,0,.08,0,0.14.006,0.46,0.025.8,0.036,1,.036,0.11,0,.35-0.007.7-0.025l0.34-.017v0.472a1.018,1.018,0,0,0-.63.136,0.781,0.781,0,0,0-.15.569c0,0.139.01,0.374,0.02,0.7s0.03,0.682.05,1.069l0.07,1.272c0.05,0.927.08,1.541,0.11,1.843a4.723,4.723,0,0,0,.07.6,0.4,0.4,0,0,0,.19.25,0.794,0.794,0,0,0,.39.085h0.12Zm3.84-.006c-0.3-.019-0.58-0.034-0.85-0.046s-0.5-.015-0.72-0.015c-0.1,0-.26,0-0.49.015l-0.87.046v-0.457c0.03,0,.06.006,0.09,0.008s0.06,0,.12,0a0.494,0.494,0,0,0,.49-0.253,3.145,3.145,0,0,0,.13-1.172V205c0-.114-0.01-0.223-0.02-0.327v-3.091a0.865,0.865,0,0,0-.15-0.571,0.608,0.608,0,0,0-.48-0.172h-0.09v-0.484c0.25,0.025.47,0.042,0.69,0.052s0.4,0.016.59,0.016c0.28,0,.6-0.012.97-0.033s0.58-.035.65-0.035a2.678,2.678,0,0,1,1.84.589,2,2,0,0,1,.67,1.6,2.15,2.15,0,0,1-.69,1.682,2.727,2.727,0,0,1-1.9.622c-0.14,0-.37-0.017-0.72-0.052-0.06-.008-0.11-0.012-0.14-0.016v1.29a2.443,2.443,0,0,0,.14,1.059,0.671,0.671,0,0,0,.58.211h0.16V207.8Zm8.82-.014c-0.39-.022-0.69-0.035-0.9-0.041s-0.38-.012-0.53-0.012c-0.13,0-.3,0-0.52.012s-0.53.019-.93,0.041v-0.467h0.08a0.912,0.912,0,0,0,.49-0.093,0.371,0.371,0,0,0,.13-0.331,1.24,1.24,0,0,0-.02-0.17c-0.01-.066-0.03-0.157-0.06-0.275l-0.38-1.253c-0.17,0-2.28,0-2.36,0l-0.02.052a6.676,6.676,0,0,0-.45,1.563,0.5,0.5,0,0,0,.14.389,0.68,0.68,0,0,0,.45.118h0.08v0.467c-0.35-.022-0.62-0.035-0.81-0.041s-0.36-.012-0.48-0.012-0.24,0-.41.012-0.42.019-.75,0.041v-0.467a0.941,0.941,0,0,0,.53-0.13,0.98,0.98,0,0,0,.34-0.433c0.13-.27.43-1.023,0.89-2.258s0.96-2.616,1.49-4.138h1.12c0.45,1.456.87,2.8,1.27,4.016s0.68,2.033.84,2.436a0.875,0.875,0,0,0,.25.391,0.7,0.7,0,0,0,.42.116h0.1v0.467Zm8.32-6.9h-0.08a0.9,0.9,0,0,0-.43.076,0.4,0.4,0,0,0-.2.259,17.455,17.455,0,0,0-.11,2.326v0.081l-0.02,1.119c0,0.428-.01.833-0.01,1.208s-0.01.691-.01,0.945c0,0.168.01,0.331,0.02,0.49s0.03,0.312.05,0.459h-0.91a1.6,1.6,0,0,0-.16-0.294c-0.07-.111-0.21-0.3-0.41-0.562l-3.73-4.864q0,2.438.03,3.5a8.822,8.822,0,0,0,.07,1.251,0.569,0.569,0,0,0,.2.343,0.863,0.863,0,0,0,.46.095h0.15v0.464c-0.35-.021-0.62-0.035-0.8-0.042s-0.33-.01-0.45-0.01c-0.09,0-.23,0-0.4.01s-0.44.021-.82,0.042v-0.464l0.08,0.007c0.03,0,.06,0,0.11,0,0.44,0,.67-0.674.68-2.025v-0.695l0.02-1.1v-0.96c0.01-.419.01-0.686,0.01-0.8a1.125,1.125,0,0,0-.15-0.683,0.726,0.726,0,0,0-.57-0.182l-0.08,0-0.09,0v-0.453c0.12,0,.3.014,0.55,0.029s0.44,0.023.54,0.023,0.27-.007.5-0.023,0.42-.025.53-0.029a3.207,3.207,0,0,0,.19.405,5.56,5.56,0,0,0,.33.482l3.4,4.467c-0.01-.446-0.01-1.042-0.02-1.787-0.01-1.64-.03-2.535-0.07-2.686a0.543,0.543,0,0,0-.2-0.337,0.859,0.859,0,0,0-.46-0.091h-0.15v-0.453c0.34,0.018.59,0.031,0.77,0.039s0.32,0.013.43,0.013c0.14,0,.3-0.005.49-0.013s0.43-.021.72-0.039v0.453Zm7.09-.073a0.271,0.271,0,0,1-.04,0c-0.02,0-.04,0-0.07,0a1.786,1.786,0,0,0-1.06,1.158c-0.1.176-.17,0.313-0.22,0.412l-1.22,2.242v1.669a1.806,1.806,0,0,0,.15.86,0.61,0.61,0,0,0,.53.194q0.03,0,.09-0.006c0.05,0,.08-0.006.1-0.006v0.476c-0.33-.021-0.63-0.037-0.89-0.046s-0.49-.018-0.67-0.018c-0.16,0-.49.014-0.98,0.037l-0.49.027v-0.476c0.02,0,.06,0,0.1.006s0.08,0.006.09,0.006a0.638,0.638,0,0,0,.55-0.2,1.64,1.64,0,0,0,.15-0.828l0.01-1.65-1.52-2.914c-0.02-.043-0.06-0.1-0.1-0.184a1.1,1.1,0,0,0-.77-0.745c-0.03,0-.06,0-0.08,0s-0.04,0-.05,0v-0.465c0.33,0.017.61,0.031,0.84,0.038s0.44,0.014.62,0.014c0.13,0,.29,0,0.49-0.014s0.48-.021.83-0.038v0.47a1.18,1.18,0,0,0-.44.06,0.194,0.194,0,0,0-.14.2,1.494,1.494,0,0,0,.18.563c0.03,0.07.06,0.124,0.08,0.161l1,2.062,0.31-.6a12.963,12.963,0,0,0,.97-2.151,0.244,0.244,0,0,0-.11-0.219,0.616,0.616,0,0,0-.33-0.068h-0.1v-0.47c0.27,0.017.49,0.031,0.66,0.038s0.31,0.014.42,0.014c0.13,0,.27,0,0.45-0.014s0.39-.021.66-0.038v0.455Zm2.24-3a1.478,1.478,0,1,1,1.49-1.487A1.477,1.477,0,0,1,1227.16,197.823Zm-81.17,5.659c1.24-.029,1.42-0.628,1.47-1.086a1.085,1.085,0,0,0-1.1-1.336,6.22,6.22,0,0,0-.87.067c-0.03.424,0.01,2.368,0.01,2.368C1145.67,203.505,1145.81,203.487,1145.99,203.482Zm8.48-8.362a1.19,1.19,0,0,0,.5.623,0.273,0.273,0,0,0,.26-0.263,1.38,1.38,0,0,0-.1-0.524L1149.9,182.2c-2.07-5.48-3.98-5.943-4.06-5.923,0.73,0.612,1.75,1.891,3.02,5.15Zm9.83,0.122c0.48-1.274-.28-14.481-0.26-15.521s0.21-2.519.21-2.519-0.81.167-.9,2.814c0.01,1.783.44,9.842,0.52,14.657a3.425,3.425,0,0,1-.92,2.01A1.839,1.839,0,0,0,1164.3,195.242Zm-19.39,1.526a1.612,1.612,0,0,0,1.54-.548c0.73-.738.5-3.272,0.3-3.373C1146.51,194.824,1146.55,195.6,1144.91,196.768Zm17.66,4.928a1.917,1.917,0,0,0-.68-0.6,1.8,1.8,0,0,0-.92-0.19,1.735,1.735,0,0,0-.96.3,2.089,2.089,0,0,0-.63.724,3.486,3.486,0,0,0-.32.994,6.512,6.512,0,0,0-.07,1.183,6.272,6.272,0,0,0,.17,1.231,3.187,3.187,0,0,0,.43.964,1.981,1.981,0,0,0,.68.628,1.756,1.756,0,0,0,.94.2,1.843,1.843,0,0,0,.92-0.273,1.937,1.937,0,0,0,.64-0.691,3.157,3.157,0,0,0,.35-1,5.327,5.327,0,0,0,.07-1.226,5.443,5.443,0,0,0-.18-1.268A3.149,3.149,0,0,0,1162.57,201.7Zm6.86-31.365a1.562,1.562,0,0,0,1.34-.658,3.018,3.018,0,0,0,.56-1.82,3.236,3.236,0,0,0-.51-2,1.786,1.786,0,0,0-1.46-.806,1.645,1.645,0,0,0-1.38.641,2.878,2.878,0,0,0-.51,1.772,3.385,3.385,0,0,0,.55,2.046A1.685,1.685,0,0,0,1169.43,170.331Zm11.43-1.688a0.86,0.86,0,0,0,.7.339,0.879,0.879,0,0,0,.69-0.285,1.115,1.115,0,0,0,.26-0.8,1.365,1.365,0,0,0-.28-0.9,0.894,0.894,0,0,0-.71-0.341,0.919,0.919,0,0,0-.69.279,1.1,1.1,0,0,0-.25.772A1.413,1.413,0,0,0,1180.86,168.643ZM1154.69,201.7a1.947,1.947,0,0,0-.69-0.6,1.765,1.765,0,0,0-.91-0.19,1.8,1.8,0,0,0-.97.3,1.966,1.966,0,0,0-.62.724,3.2,3.2,0,0,0-.32.994,5.723,5.723,0,0,0-.07,1.183,5.6,5.6,0,0,0,.17,1.231,3.187,3.187,0,0,0,.43.964,1.9,1.9,0,0,0,.68.628,1.756,1.756,0,0,0,.94.2,1.776,1.776,0,0,0,.91-0.273,1.878,1.878,0,0,0,.65-0.691,3.427,3.427,0,0,0,.35-1,5.953,5.953,0,0,0,.07-1.226,6.033,6.033,0,0,0-.18-1.268A3.4,3.4,0,0,0,1154.69,201.7Zm-8.57,2.488c-0.17,0-.41,0-0.63.016,0,0,0,2.558-.01,2.684a6.132,6.132,0,0,0,.84.073,1.39,1.39,0,0,0,1.55-1.525C1147.87,204.485,1146.7,204.184,1146.12,204.184Z" transform="translate(-1114 -121)"></path>
</svg>