<?xml version="1.0" encoding="utf-8"?>
<!-- Generator: Adobe Illustrator 18.1.0, SVG Export Plug-In . SVG Version: 6.00 Build 0)  -->
<svg version="1.1" id="Layer_1" xmlns="http://www.w3.org/2000/svg" xmlns:xlink="http://www.w3.org/1999/xlink" x="0px" y="0px"
	 viewBox="0 77.3 300 145.5" enable-background="new 0 77.3 300 145.5" xml:space="preserve">
<g id="Layer_2">
</g>
<g id="Layer_3" display="none">
</g>
<g id="Layer_6" display="none">
</g>
<g id="Layer_4" display="none">
</g>
<g id="Layer_8" display="none">
</g>
<g id="Layer_7">
	<g>
		<path d="M93.1,157.8c8.3-26.5,16.4-52.4,24.6-78.4c18.8-2.3,37.4-2.9,56-1.1c20.7,2,40.7,6.4,59.5,15.6
			c35,16.9,58.2,43.4,65.7,82.2c1.1,5.9,1.2,11.9,0.8,18.1c-0.6-1.7-1.3-3.5-1.9-5.2c-10.3-26.1-30.4-41.2-56.2-49.6
			c-22.9-7.5-46.3-8-70-5C144.4,137.8,118.7,146.2,93.1,157.8z"/>
		<path d="M113.2,79.9c-1.7,5.5-3.3,10.4-4.9,15.4c-29.9,5.9-58.5,15-86.4,27.7C15,119.1,8,115.1,0,110.7
			C36.9,96.1,74,85.2,113.2,79.9z"/>
		<path d="M264.7,200.7c0.6,1.8,1.1,3.5,1.7,5.4c-59.2,0-117.8,0-176.9,0c0.7-2,1.3-3.7,1.8-5.4
			C149.2,200.7,206.9,200.7,264.7,200.7z"/>
		<path d="M37.6,131.9l-11-6.2c25.9-11.8,53-20.3,80.3-25.9l-2.6,8.7C76.4,116.9,63.5,121.6,37.6,131.9z"/>
		<path d="M260.6,195.1c-3,0-5.2,0-7.8,0c0-11.5,0-23.1,0-34.6c6.2,0,11.6-0.2,17.8,0.4c3.9,0.4,6.7,2.4,7.5,6.3
			c0.9,3.9,0.7,9.4-2.8,12.1c-0.8,0.7-2.2,1.4-2.9,1.5c3.2,8.4,6.4,16.7,9.7,25.3c-3.1,0-5.8,0-8.9,0c-2.8-7.8-5.9-16.6-8.9-24.8
			c-1.2-0.1-2.1,0-3.8-0.2C260.6,185.6,260.6,190.3,260.6,195.1z M260.5,175.3h7.2c0,0,3.5,0.1,3.5-4.3c0-4.4-3.5-4.3-3.5-4.3h-7.2
			V175.3z"/>
		<path d="M171.1,195c-3.2,0-5.5,0-7.9,0c0-11.5,0-22.7,0-34.4c2.2,0,4.4,0,7.1,0c3.8,5.9,7.9,12.2,12.8,19.6c0-7.3,0-13.4,0-19.7
			c2.7,0,4.9,0,7.4,0c0,11.5,0,22.9,0,34.5c-2.2,0-4.2,0-6.8,0c-3.8-5.9-7.8-12-12.5-19.2C171.1,182.8,171.1,188.8,171.1,195z"/>
		<path d="M92,160.3c2.2,0,3.9,0,6.1,0c4.2,11.4,8.4,22.8,12.8,34.6c-2.6,0-5,0-7.7,0c-0.6-1.5-1.2-3.1-1.9-5.1c-3.9,0-7.8,0-12.2,0
			c-1.9,5.3-3.9,10.7-5.9,16.3c-2.6,0-5,0-7.9,0C80.9,190.7,86.4,175.7,92,160.3z M99.4,183.8c-1.3-4-2.5-7.8-4.1-12.8
			c-1.7,5-2.9,8.8-4.2,12.8C94.1,183.8,96.5,183.8,99.4,183.8z"/>
		<path d="M213.9,181.8c-1.9-0.1-3.5-0.2-5.3-0.3c0-1.9,0-3.6,0-5.5c4,0,8.1,0,12.9,0c-0.2,3.1,0.1,6.3-0.5,9.4
			c-1.4,7.2-7.2,11-14.7,10.2c-7.2-0.8-11.6-5.6-11.7-13c-0.1-3.6-0.1-7.1,0-10.7c0.3-6.9,5.3-11.7,12.2-12
			c7.8-0.3,12.7,3.3,13.9,10.4c-2.1,0-4.5,0-7.1,0c-0.1-0.6-0.3-1.4-1.1-2.3c-1.6-1.7-4.5-1.7-6.3-1.1c-1.8,0.6-3.6,3.3-4,5.4
			c-0.7,3.4-0.4,7.1-0.2,10.6c0.2,3.6,1.9,6.3,6.1,6C212.4,188.6,214,186.1,213.9,181.8z"/>
		<path d="M248.7,188.5c0,2.5,0,4.3,0,6.4c-7.6,0-15.3,0-23.2,0c0-11.3,0-22.7,0-34.4c7.7,0,15.3,0,23.2,0c0,2.2,0,4.1,0,6.4
			c-5.3,0-10.3,0-15.6,0c0,2.7,0,4.9,0,7.5c4.4,0,8.7,0,13.2,0c0,2.3,0,4.2,0,6.6c-4.2,0-8.6,0-13.2,0c0,2.7,0,4.9,0,7.5
			C238.1,188.5,243.1,188.5,248.7,188.5z"/>
		<path d="M159.2,160.5c0,2,0,3.8,0,6c-5.1,0-10.1,0-15.4,0c0,2.8,0,5.1,0,8c4.4,0,8.8,0,13.3,0c0,2.3,0,4.1,0,6.4
			c-4.4,0-8.8,0-13.4,0c0,2.7,0,5,0,7.6c5,0,10,0,15.4,0c0,2.3,0,4.2,0,6.4c-7.4,0-15.1,0-22.9,0c0-11.4,0-22.8,0-34.4
			C143.8,160.5,151.4,160.5,159.2,160.5z"/>
		<path d="M102.2,114.2l-3,10.3c-16,5.2-30.3,10.9-44.6,17l-11.4-6.7C68.1,124.8,79.2,120.8,102.2,114.2z"/>
		<path d="M120.7,195.1c-2.2,0-3.9,0-5.8,0c-3.9-11.5-7.7-22.9-11.7-34.6c2.7,0,5,0,7.8,0c2.1,6.7,4.3,13.7,6.8,21.6
			c2.4-7.8,4.5-14.7,6.6-21.6c2.6,0,5,0,7.8,0C128.4,172.1,124.6,183.5,120.7,195.1z"/>
		<path d="M70.7,150.7c-3.5-2-7-4-11.3-6.5c12.9-4.9,25-9.6,38.1-14.6c-1.3,4.4-2.3,7.8-3.3,11.2C86.4,144.1,78.8,147.3,70.7,150.7z
			"/>
		<path d="M92.4,146.1c-1.7,5.3-3,9.5-4.5,14.2c-4.1-2.3-8-4.4-12.6-6.9C81.1,151,86.3,148.8,92.4,146.1z"/>
	</g>
	<g>
		<path d="M98.5,218.9c0,0.7-0.2,1.4-0.6,2s-0.9,1-1.6,1.3c-0.7,0.3-1.5,0.5-2.5,0.5c-0.8,0-1.5-0.1-2-0.2c-0.5-0.1-1.1-0.3-1.7-0.6
			V219c0.6,0.3,1.3,0.6,1.9,0.7c0.7,0.2,1.3,0.3,1.8,0.3c0.5,0,0.8-0.1,1.1-0.2c0.2-0.2,0.3-0.4,0.3-0.6c0-0.2,0-0.3-0.1-0.4
			s-0.2-0.2-0.4-0.4c-0.2-0.1-0.7-0.4-1.6-0.8c-0.8-0.4-1.4-0.7-1.7-1c-0.4-0.3-0.7-0.7-0.9-1.1c-0.2-0.4-0.3-0.9-0.3-1.5
			c0-1.1,0.4-2,1.2-2.6c0.8-0.6,1.9-0.9,3.3-0.9c1.2,0,2.5,0.3,3.8,0.9l-1,2.5c-1.1-0.5-2.1-0.8-2.9-0.8c-0.4,0-0.7,0.1-0.9,0.2
			c-0.2,0.1-0.3,0.3-0.3,0.5c0,0.2,0.1,0.4,0.4,0.6c0.2,0.2,0.9,0.5,2,1c1,0.5,1.7,1,2.1,1.5C98.3,217.4,98.5,218.1,98.5,218.9z"/>
		<path d="M108.9,222.5l-0.6-2.2h-3.9l-0.6,2.2h-3.5l3.9-12h4.3l3.9,12H108.9z M107.6,217.6l-0.5-2c-0.1-0.4-0.3-1-0.4-1.7
			c-0.2-0.7-0.3-1.2-0.3-1.5c0,0.3-0.1,0.7-0.3,1.4c-0.1,0.6-0.5,1.9-1,3.8H107.6z"/>
		<path d="M118,222.5h-3.2v-11.9h7v2.6H118v2.3h3.6v2.6H118V222.5z"/>
		<path d="M132.1,222.5H125v-11.9h7.1v2.6h-3.9v1.9h3.6v2.6h-3.6v2.3h3.9V222.5z"/>
		<path d="M140.6,222.5h-3.2v-9.3h-2.9v-2.6h9v2.6h-2.9L140.6,222.5L140.6,222.5z"/>
		<path d="M150.7,215l2.1-4.4h3.5l-3.9,7.3v4.7H149V218l-3.9-7.4h3.5L150.7,215z"/>
		<path d="M167.4,222.5h-3.2v-11.9h7v2.6h-3.9v2.3h3.6v2.6h-3.6v4.4H167.4z"/>
		<path d="M185.6,216.5c0,2-0.5,3.5-1.5,4.6c-1,1-2.4,1.6-4.3,1.6s-3.3-0.5-4.3-1.6c-1-1-1.5-2.6-1.5-4.6s0.5-3.5,1.5-4.5
			c1-1,2.4-1.6,4.3-1.6c1.9,0,3.3,0.5,4.3,1.6C185.1,213,185.6,214.5,185.6,216.5z M177.4,216.5c0,2.3,0.8,3.5,2.4,3.5
			c0.8,0,1.4-0.3,1.8-0.8c0.4-0.5,0.6-1.4,0.6-2.6s-0.2-2.1-0.6-2.6c-0.4-0.6-1-0.9-1.8-0.9C178.2,213,177.4,214.2,177.4,216.5z"/>
		<path d="M200.1,216.5c0,2-0.5,3.5-1.5,4.6c-1,1-2.4,1.6-4.3,1.6c-1.9,0-3.3-0.5-4.3-1.6c-1-1-1.5-2.6-1.5-4.6s0.5-3.5,1.5-4.5
			c1-1,2.4-1.6,4.3-1.6c1.9,0,3.3,0.5,4.3,1.6C199.6,213,200.1,214.5,200.1,216.5z M191.9,216.5c0,2.3,0.8,3.5,2.4,3.5
			c0.8,0,1.4-0.3,1.8-0.8c0.4-0.6,0.6-1.4,0.6-2.6s-0.2-2.1-0.6-2.6c-0.4-0.6-1-0.9-1.8-0.9C192.7,213,191.9,214.2,191.9,216.5z"/>
		<path d="M208.7,222.5h-3.2v-9.3h-2.9v-2.6h9v2.6h-2.9L208.7,222.5L208.7,222.5z"/>
		<path d="M227.3,222.5h-3.8l-1.1-5.2c-0.1-0.2-0.1-0.7-0.3-1.3c-0.1-0.6-0.2-1.2-0.3-1.6c0,0.4-0.1,0.8-0.2,1.3s-0.2,1-0.3,1.4
			c-0.1,0.4-0.5,2.2-1.2,5.4h-3.8l-3-11.9h3.1l1.3,6c0.3,1.3,0.5,2.4,0.6,3.2c0.1-0.6,0.2-1.3,0.4-2.3c0.2-1,0.4-1.7,0.5-2.4
			l1.1-4.5h3l1,4.5c0.2,0.7,0.4,1.6,0.5,2.5c0.2,0.9,0.3,1.7,0.4,2.1c0.1-0.6,0.3-1.7,0.6-3.1l1.3-6h3.1L227.3,222.5z"/>
		<path d="M240.1,222.5H233v-11.9h7.1v2.6h-3.9v1.9h3.6v2.6h-3.6v2.3h3.9V222.5z"/>
		<path d="M250.7,222.5l-0.6-2.2h-3.9l-0.6,2.2h-3.5l3.9-12h4.3l3.9,12H250.7z M249.4,217.6l-0.5-2c-0.1-0.4-0.3-1-0.4-1.7
			c-0.2-0.7-0.3-1.2-0.3-1.5c0,0.3-0.1,0.7-0.3,1.4c-0.1,0.6-0.5,1.9-1,3.8H249.4z"/>
		<path d="M259.9,218.2v4.3h-3.2v-11.9h3.9c3.2,0,4.9,1.2,4.9,3.5c0,1.4-0.7,2.5-2,3.2l3.5,5.2h-3.7l-2.5-4.3H259.9z M259.9,215.7
			h0.6c1.1,0,1.7-0.5,1.7-1.5c0-0.8-0.6-1.2-1.7-1.2h-0.6V215.7z"/>
	</g>
</g>
<g id="_x35_11" display="none">
</g>
</svg>
