<svg id="Layer_1" data-name="Layer 1" xmlns="http://www.w3.org/2000/svg" viewBox="0 0 120 22"><defs><style>.cls-1{fill:#ed174c;}</style></defs><title>AK Steel</title><path d="M42.73,16l-1.09,2.75H37.26L43.36,2.94h4.5l6,15.84H49.43L48.4,16ZM45.6,7.84h0l-1.7,5h3.42Z"/><path d="M63.4,2.94H68.5l-6.3,7.5,6.87,8.34H63.73l-5.32-6.87h0v6.87H54.26V2.94h4.12V9.48h0Z"/><path d="M79.7,7A4.33,4.33,0,0,0,77,6c-.76,0-1.77.44-1.77,1.32S76.32,8.6,77,8.83l1.05.32C80.29,9.8,82,10.91,82,13.48a5.38,5.38,0,0,1-1.64,4.27,7,7,0,0,1-4.5,1.49,9.78,9.78,0,0,1-5.57-1.81l1.77-3.32a5.65,5.65,0,0,0,3.66,1.64c1,0,2-.48,2-1.6s-1.62-1.55-2.5-1.81c-2.58-.74-4.29-1.41-4.29-4.48a5.13,5.13,0,0,1,5.46-5.32,10.83,10.83,0,0,1,5,1.3Z"/><path d="M87,18.81H83.14V11.19H81.9V8h1.24V4.8H87V8h2.16v3.15H87Z"/><path d="M101.25,14.06h-8a2.14,2.14,0,0,0,2.4,2.4,1.91,1.91,0,0,0,1.83-1h3.68c-.61,2.54-3,3.7-5.48,3.7-3.57,0-6.24-2-6.24-5.74s2.46-5.76,6-5.76c3.74,0,5.9,2.31,5.9,6ZM97.7,11.86a2.29,2.29,0,0,0-4.43,0Z"/><path d="M113.83,14.06h-8a2.14,2.14,0,0,0,2.4,2.4,1.91,1.91,0,0,0,1.83-1h3.68c-.61,2.54-3,3.7-5.48,3.7-3.57,0-6.24-2-6.24-5.74s2.46-5.76,6-5.76c3.74,0,5.9,2.31,5.9,6Zm-3.55-2.21a2.29,2.29,0,0,0-4.43,0Z"/><path d="M118.42,18.81H114.6V3.46h3.82Z"/><path class="cls-1" d="M21.52,2.93h7L24.41,9.15s-.63,1-.89,1c.47.11,1.35,1.48,1.35,1.47L30,18.85H22.75l-5.41-7.5H20.7V9.46H17.34l4.17-6.53Z"/><path class="cls-1" d="M10.74,14.25a5,5,0,0,0,.42-1.55v6.14H17.5V14.79h-2V11.35H12.4V9.5h3.13V6.1h2V2.93H11.16L1,18.85H8.26l2.47-4.6Z"/></svg>