<svg xmlns="http://www.w3.org/2000/svg" viewBox="0 0 207 41">
  <path d="M177.21 13.41l-6.9-1.94a.47.47 0 0 1-.38-.46V8a.33.33 0 0 1 .35-.35h4.64a.33.33 0 0 1 .35.35v2h4.92V6.93a3.8 3.8 0 0 0-3.81-3.82h-7.63a3.8 3.8 0 0 0-3.81 3.82v5.16c0 2.12 1.18 3 3.22 3.6l6.73 1.91c.27.07.45.21.45.45v3.22a.33.33 0 0 1-.35.35h-4.85a.33.33 0 0 1-.35-.35v-2h-4.92v3.08a3.81 3.81 0 0 0 3.82 3.82h7.83a3.8 3.8 0 0 0 3.81-3.82V17c0-2.1-1.14-3-3.12-3.59zM156.14 13.41l-6.9-1.94a.46.46 0 0 1-.38-.46V8a.33.33 0 0 1 .35-.35h4.64a.33.33 0 0 1 .35.35v2h4.92V6.93a3.8 3.8 0 0 0-3.81-3.82h-7.63a3.8 3.8 0 0 0-3.81 3.82v5.16c0 2.12 1.18 3 3.22 3.6l6.73 1.91c.27.07.45.21.45.45v3.22a.33.33 0 0 1-.35.35h-4.85a.33.33 0 0 1-.35-.35v-2h-4.92v3.08a3.8 3.8 0 0 0 3.81 3.82h7.83a3.81 3.81 0 0 0 3.82-3.82V17c0-2.1-1.15-3-3.12-3.59zM134.53 3.11H126a3.81 3.81 0 0 0-3.82 3.82v15.45A3.81 3.81 0 0 0 126 26.2h8.52a3.81 3.81 0 0 0 3.82-3.82V6.93a3.81 3.81 0 0 0-3.81-3.82zm-1.21 18.16a.33.33 0 0 1-.35.35h-5.4a.33.33 0 0 1-.35-.35V8a.33.33 0 0 1 .35-.35H133a.33.33 0 0 1 .35.35zM113.51 17.57a3.85 3.85 0 0 0 2.74-3.68v-7a3.81 3.81 0 0 0-3.82-3.82H99.61v10h-1.16v4.61h1.16v8.52h5v-8.5h3.43l4 8.5h5.52zm-2.26-4.79a.32.32 0 0 1-.34.35h-6.27V7.69h6.27a.32.32 0 0 1 .34.35zM89.63 3.11H81.7a3.81 3.81 0 0 0-3.82 3.82v15.45a3.81 3.81 0 0 0 3.82 3.82h7.93a3.81 3.81 0 0 0 3.82-3.82v-4.81h-4.93v3.7a.32.32 0 0 1-.34.35h-4.92a.33.33 0 0 1-.35-.35V8a.33.33 0 0 1 .35-.35h4.92a.32.32 0 0 1 .34.35v3.18h4.93V6.93a3.81 3.81 0 0 0-3.82-3.82zM67.72 3.11h-5.06l-7.56 23.1h5.13l1.39-4.58h7.11l1.45 4.58h5.14zM63.11 17.2l2.08-7.7 2.08 7.7zM42.94 3.11h-5.03V26.2h14.21v-4.58h-9.18V3.11zM12.24 21.68c-4.19 0-5.69 4.55-5.69 4.55h7.21l1.66-4.55zM17.68 15.51h-12C1.5 15.51 0 20.05 0 20.05h16zM19.94 9.34H0s1.5 4.54 5.69 4.54h12.58zM15.39 26.39l4.35 6.4-.01-18.14-4.34 11.74zM19.85 14.34l6.77-4.58-2.85-6.06-3.92 10.64zM27.18 11.21l-5.84 3.91V26.2h6.61v-4.87l1.64-1.01-1.97-5.41.92-1.07-1.36-2.63zM6.42 3.17s1.5 4.54 5.7 4.54h8.42l1.66-4.54zM56.3 34.04h3.51v.79h-2.66v1.73h2.42v.79h-2.42v1.86h2.67V40H56.3v-5.96zM63.59 37.12c-.53-.15-.94-.42-.94-1V35a1 1 0 0 1 1-1h1.75a1 1 0 0 1 1 1v.68l-.85.15v-.63a.38.38 0 0 0-.39-.38h-1.29a.38.38 0 0 0-.37.38v.8c0 .24.15.33.36.4l1.63.45c.51.15.93.43.93 1V39a1 1 0 0 1-1 1H63.6a1 1 0 0 1-1-1v-.68l.85-.14v.64a.38.38 0 0 0 .38.38h1.33a.38.38 0 0 0 .39-.38V38c0-.21-.1-.3-.38-.38zM68.9 34.04h4.26v.79h-1.71V40h-.85v-5.17h-1.7v-.79zM78.09 34h-.8l-2 6h.87l.47-1.41h2.19l.45 1.41h.86zm-1.24 3.78l.84-2.65.84 2.65zM86 36.91a.78.78 0 0 0 .51-.71V35a1 1 0 0 0-1-1h-2.79v6h2.88a.94.94 0 0 0 1-1v-1.38a.72.72 0 0 0-.6-.71zm-2.42-2.09h1.69a.37.37 0 0 1 .39.37v1a.35.35 0 0 1-.36.37h-1.73zm2.13 4a.35.35 0 0 1-.38.37h-1.76v-1.9h1.75a.37.37 0 0 1 .38.38zM89.55 34.04h.85v5.17h2.63V40h-3.48v-5.96zM95.8 34.04h.85v5.97h-.85zM100.64 37.12c-.53-.15-.94-.42-.94-1V35a1 1 0 0 1 1-1h1.77a1 1 0 0 1 1 1v.68l-.85.15v-.63a.39.39 0 0 0-.39-.38h-1.28a.38.38 0 0 0-.38.38v.8c0 .24.15.33.37.4l1.62.45c.51.15.93.43.93 1V39a1 1 0 0 1-1 1h-1.83a1 1 0 0 1-1-1v-.68l.85-.14v.64a.38.38 0 0 0 .38.38h1.33a.38.38 0 0 0 .38-.38V38c0-.21-.1-.3-.37-.38zM109.73 37.33h-2.43V40h-.85v-5.96h.85v2.51h2.43v-2.51h.85V40h-.85v-2.67zM113.67 34.04h3.51v.79h-2.66v1.73h2.41v.79h-2.41v1.86h2.67V40h-3.52v-5.96zM122.89 34h-2.8v6h2.8a1 1 0 0 0 1-1v-4a1 1 0 0 0-1-1zm.14 4.8a.37.37 0 0 1-.39.37h-1.7v-4.34h1.7a.37.37 0 0 1 .39.37zM132.28 34.04V40h-.83v-5.14l-1.59.52v-.82l1.59-.52h.83zM138.39 36.94a.79.79 0 0 0 .43-.67V35a1 1 0 0 0-1-1h-1.55a.93.93 0 0 0-.94 1v1.28a.75.75 0 0 0 .42.66.73.73 0 0 0-.47.72v1.4a.93.93 0 0 0 .94 1h1.65a.94.94 0 0 0 1-1v-1.4a.72.72 0 0 0-.48-.72zm-2.2-1.77a.37.37 0 0 1 .38-.38h1a.38.38 0 0 1 .39.38v1a.37.37 0 0 1-.35.38h-1.09a.37.37 0 0 1-.37-.38zm1.86 3.7a.38.38 0 0 1-.39.38h-1.14a.37.37 0 0 1-.38-.38v-1.15a.37.37 0 0 1 .38-.38h1.14a.38.38 0 0 1 .39.38zM144.32 34h-1.55a1 1 0 0 0-1 1v1.55a.9.9 0 0 0 1 1 5 5 0 0 0 1.67-.32v1.7a.37.37 0 0 1-.38.38h-1a.38.38 0 0 1-.39-.38v-.43l-.82.15v.46a.94.94 0 0 0 1 1h1.52a.93.93 0 0 0 .94-1V35a.93.93 0 0 0-.99-1zm.12 2.05c0 .22-.17.35-.38.43a3.4 3.4 0 0 1-1 .18.35.35 0 0 1-.38-.38v-1.11a.37.37 0 0 1 .38-.38h1a.37.37 0 0 1 .38.38zM147.75 34.04h3.46v.69L149.29 40h-.85l1.95-5.21h-2.64v-.75zM191.25 21.62v-4.95h8.6v-4.58h-8.6v-4.4h9.32V3.11h-14.35v9h-1.15v4.61h1.15v9.48h14.39v-4.58h-9.36zM206.07 0h-2.21a.77.77 0 0 0-.79.79v2.46a.77.77 0 0 0 .79.8h2.21a.78.78 0 0 0 .81-.8V.79a.78.78 0 0 0-.81-.79zm.32 3.27a.32.32 0 0 1-.34.32h-2.17a.32.32 0 0 1-.33-.32V.78a.32.32 0 0 1 .33-.31h2.17a.32.32 0 0 1 .34.31z"></path>
  <path d="M205.39 2.25a.34.34 0 0 0 .25-.32v-.57a.33.33 0 0 0-.33-.33h-1V3h.36v-.74h.33l.45.78h.39zm-.11-.4a.08.08 0 0 1-.08.08h-.55v-.57h.55a.08.08 0 0 1 .08.07z"></path>
</svg>