<svg xmlns="http://www.w3.org/2000/svg" viewBox="0 0 255.12 255.49">

<g transform="translate(-38 -37) scale(1.19)">
  <g>
    <path d="M139.39,245.29c-6.6,0-13.22-0.62-19.81-1.86c-57.69-10.89-95.75-66.75-84.84-124.53
      c10.91-57.77,66.71-95.92,124.4-85.03c27.9,5.27,52.1,21.14,68.15,44.68c16.04,23.55,21.97,51.9,16.7,79.85
      c-2.4,12.71-7,24.71-13.69,35.68c-0.68,1.12-2.14,1.47-3.26,0.79c-1.12-0.68-1.47-2.14-0.79-3.26
      c6.38-10.47,10.78-21.94,13.08-34.09c5.04-26.7-0.63-53.8-15.96-76.3c-15.33-22.5-38.45-37.66-65.11-42.7
      c-55.12-10.4-108.44,26.05-118.86,81.25c-10.42,55.21,25.95,108.59,81.07,118.99c20.68,3.9,41.73,1.35,60.87-7.38
      c1.19-0.54,2.6-0.02,3.14,1.17s0.02,2.6-1.17,3.14C169.36,242.06,154.46,245.29,139.39,245.29z"></path>

    <polygon points="57.65,151.62 66.18,106.42 52.86,114.22 54.95,103.15 68.27,95.36 78.53,97.29 67.9,153.56"></polygon>

    <path d="M112.62,120.75c0.89-4.74-1.32-8.18-5.34-8.94c-4.02-0.76-7.42,1.63-8.31,6.37l-4.43,23.47
      c-0.89,4.74,1.41,8.12,5.43,8.89c4.02,0.76,7.32-1.57,8.22-6.31L112.62,120.75z M98.22,159.77c-9.15-1.73-15.99-9.24-13.96-19.99
      l4.47-23.71c2.03-10.75,11.13-15.25,20.29-13.52c9.15,1.73,15.91,9.22,13.88,19.97l-4.47,23.71
      C116.4,156.98,107.38,161.5,98.22,159.77"></path>
    <path d="M155.86,128.91c0.89-4.74-1.32-8.18-5.34-8.94c-4.02-0.76-7.42,1.63-8.31,6.37l-4.43,23.47
      c-0.89,4.74,1.41,8.12,5.43,8.89c4.02,0.76,7.32-1.57,8.22-6.31L155.86,128.91z M141.46,167.94c-9.15-1.73-15.99-9.24-13.96-19.99
      l4.47-23.71c2.03-10.75,11.13-15.25,20.29-13.52c9.15,1.73,15.91,9.22,13.88,19.97l-4.47,23.71
      C159.64,165.15,150.62,169.66,141.46,167.94"></path>
    <path d="M221.11,163.98c0.57-3.01-0.65-4.79-3.17-5.26c-2.6-0.49-4.31,0.74-4.87,3.74l-1.36,7.19
      c-0.57,3,0.57,4.77,3.17,5.26c2.52,0.48,4.31-0.74,4.87-3.74L221.11,163.98z M213.63,181.56c-6.23-1.18-10.74-5.87-9.4-12.99
      l1.48-7.82c1.34-7.11,7.25-9.84,13.48-8.67c6.16,1.16,10.74,5.87,9.4,12.99l-1.48,7.82C225.77,180,219.78,182.72,213.63,181.56
       M186.57,175.96l-8.05-1.52l37.21-51.25l8.05,1.52L186.57,175.96z M190.53,129.48c0.56-3.01-0.65-4.79-3.17-5.27
      c-2.61-0.49-4.31,0.74-4.87,3.75l-1.36,7.19c-0.56,3,0.65,4.79,3.17,5.26c2.53,0.48,4.31-0.74,4.87-3.74L190.53,129.48z
       M183.04,147.06c-6.23-1.18-10.74-5.87-9.4-12.99l1.48-7.82c1.34-7.11,7.25-9.84,13.49-8.67c6.15,1.16,10.74,5.87,9.4,12.99
      l-1.48,7.82C195.19,145.5,189.2,148.22,183.04,147.06"></path>
    <path d="M102.15,89.47c13.4-10.18,30.88-14.88,48.66-11.53c17.78,3.36,32.34,14.11,41.11,28.47L102.15,89.47z
       M194.76,111.6l5.68,1.07c-8.38-19.75-26.14-35.1-48.74-39.36c-22.59-4.27-44.72,3.54-59.73,18.87l-0.01,0.01l0,0
      c0,0,0,0.01,0,0.01l5.67,1.07c0,0,0.01-0.01,0.01-0.01L194.76,111.6z"></path>
    <path d="M127.92,199.25c-17.79-3.36-32.35-14.11-41.12-28.48l89.78,16.95C163.18,197.9,145.7,202.61,127.92,199.25
       M181.1,183.94L83.97,165.6l-5.67-1.07c8.38,19.76,26.14,35.1,48.74,39.37c22.6,4.27,44.73-3.55,59.74-18.89L181.1,183.94z"></path>
  </g>
  <g class="icon-light">
    <path class="st0" d="M196.33,228.4l0.76,2.99c0.51-0.37,1.04-0.85,1.43-1.28L196.33,228.4z"></path>
    <path class="st0" d="M241.29,212.44l-0.68-3.7c-0.11-0.21-0.01-0.56-0.3-0.69c-0.23-0.02-0.17,0.3-0.25,0.4l0.16,7.26l1.09,16.67
      l1.05,13.82c0.11,0.02,0.24,0.06,0.3-0.04c1.27-9,0.58-17.79-0.36-26.43L241.29,212.44z"></path>
    <path class="st0" d="M216.35,237.5l-11.52,2.71c-0.25-0.41-0.45-0.81-0.71-1.17l-1.71,1.55l-1.12-1.32
      c-0.65,1.13-1.31,2.3-1.86,3.52l0.37,0.8l0.07,0.01l14.17-3.41l8.08-1.98c-0.74-0.54-1.44-1.13-2.24-1.59L216.35,237.5z"></path>
    <path class="st0" d="M247.12,231.77c-0.1-4.75-0.43-8.69-1.02-12.38l-1.45-8.53l0-0.02l0-0.02l-1.37-6.89l0-0.02l0-0.02
      l-1.03-4.46l0.99-1.69l1.63-2.8l-3.14,0.82l-0.91,0.24l-0.14,0.04l-0.13,0.06c-1.52,0.76-2.91,1.68-4.26,2.57
      c-0.42,0.28-0.85,0.56-1.28,0.84l-0.03,0.02l-0.02,0.02l-7.34,5.19l-1.36-0.5c-2.72-3.24-4.65-5.75-6.43-8.36l-0.02-0.03
      l-0.02-0.03c-1.1-1.47-2.35-2.93-4.34-3.3l-1.48-0.27l-0.11,1.5l-0.15,2.01l-1.15,6.94l-0.85,5.19l-5.78,5.19l-0.23,0.2
      l-0.12,0.28l-1.75,4.21l-12.09,8.46l-0.83,0.58l0.32,0.96l2.88,8.57l0.22,0.66l0.67,0.2l3.45,1.02l-0.4,0.72l-0.76,0.49l-0.47,0.3
      l-0.12,0.55c-0.05,0.23-0.12,0.48-0.2,0.73c-0.12,0.4-0.23,0.8-0.3,1.25l-0.09,0.58l0.36,0.46c0.35,0.45,0.7,0.92,1.07,1.42
      c0.56,0.75,1.14,1.53,1.75,2.25l0.47,0.56l0.72-0.09l5.88-0.72l-1.54,6.04c-0.11,0.37-0.08,0.76,0.08,1.1
      c0.27,0.55,0.77,0.74,0.97,0.8l0.83,0.42l0.69-0.72l2.97-3.12l-0.1,0.7l-0.39,2.68l2.37-1.3l6.34-3.47l-2.73,7.19l-1.3,3.44
      l17.1-9.36l0.13,1.14l-6.21,4.57l-3.04,2.24l3.77,0.2l10.26,0.54l7.06,3.29l0.08,0.04l0.08,0.03l0.44,0.14l1.76,0.56l0-1.84
      l0.02-7.46l0.35-3.72l0-0.01l0-0.01l0.48-6.8l0-0.02l0-0.02l0.21-5.12l0-0.02l0-0.02l0.05-6.97l0-0.02L247.12,231.77z
       M218.72,196.6c2.12,3.12,4.35,5.92,6.74,8.75l2.36,0.88l7.92-5.6c1.79-1.15,3.5-2.38,5.41-3.33l0.91-0.24l-0.11,0.15
      l-11.24,11.61l-0.89-0.18l-8.62-2.4l-4.08-8.12c-0.68-1.42-1.4-2.84-1.9-4.29C216.75,194.11,217.77,195.35,218.72,196.6z
       M220.68,222.38l-0.03,0.07l-4.28,1.29l-2.66-1.53l-5.96,2.5c-0.15-0.01-0.14-0.18-0.22-0.29l7.23-4.98
      c-0.04-0.49-0.22-0.98-0.19-1.48l7.78,1.45c0,0.11,0.08,0.21,0.02,0.33c-1.11,0.37-2.24,0.69-3.34,1.14
      C219.53,221.44,220.14,221.88,220.68,222.38z M217.78,213.94c-1.02,0.6-1.94,1.01-2.93,1.69c-0.11-0.02-0.14-0.16-0.23-0.21
      l0.08-0.1l7.05-5.59c1.14,0.09,2.25,0.09,3.4,0.14l0.1,0.27l-0.04,0.09L217.78,213.94z M245.71,238.77l-0.21,5.12l-0.48,6.8
      l-0.35,3.79l-0.02,7.52l-0.44-0.14l-7.3-3.4l-10.52-0.55l6.83-5.03l-0.43-3.93l-15.59,8.58l-0.07-0.01l4.03-10.61l-9.54,5.23
      l0.71-4.89l-5.89,6.19c-0.12-0.06-0.37-0.07-0.29-0.29l2.02-7.94l-0.25-0.03l-7.58,0.93c-0.96-1.14-1.87-2.46-2.79-3.63
      c0.1-0.64,0.35-1.27,0.49-1.91l1.05-0.67l0.89-1.59l1.21,0.19l0.37-0.76l-6.15-1.83l-2.88-8.57l12.41-8.68l1.9-4.58l6.13-5.51
      l0.93-5.66l1.16-7c0.1-0.04,0.22-0.04,0.35-0.01l3.94,11.81l-0.06,0.11l-10.8,7.53l-0.96,0.71c-0.14,0.34,0.31,0.21,0.31,0.21
      c0.71,0.13,1.44,0.25,2.12,0.41l-0.04,0.11c-1.15,1.02-2.11,2.17-3.31,3.12l-10.05,6.9c1.82,0.8,3.67,1.5,5.49,2.28l-0.04,0.11
      l-4.13,4.05l0.08,1.11l0.19,0.13l6.87,2.19l1.81,0.18l12.59-0.76l0.02-0.02c-0.9-0.78-1.84-1.59-2.8-2.36
      c0.01-0.13,0.05-0.36,0.2-0.33l8.61,1.49c-1.06-1.21-2.28-2.42-3.43-3.61l-0.52-1.44l5.96-4.37c0.06-0.01,0.06-0.1,0.05-0.15
      l-4.03-5.98l7.65-5.31c0.36-0.26,0.74-0.46,1.05-0.77c-0.87-1.14-1.77-2.31-2.58-3.44l3.12,0.54l2.88-3.95l5.16-7.11l0.1,0.19
      l1.09,4.72l1.37,6.89l1.45,8.52c0.65,4.01,0.92,8.08,1.01,12.19L245.71,238.77z"></path>
  </g>
  <g class="icon-dark">
    <path d="M246.76,255.72l0.37-4.03l0.51-7.24l0.22-5.45l0.06-7.43c-0.09-4.38-0.38-8.71-1.07-12.98l-1.54-9.07
      l-1.46-7.34l-1.16-5.03l-0.11-0.2l-5.49,7.57l-3.07,4.21l-3.32-0.57c0.86,1.21,1.82,2.45,2.75,3.66
      c-0.33,0.33-0.74,0.54-1.11,0.82l-8.15,5.65l4.29,6.36c0.01,0.04,0.01,0.15-0.05,0.15l-6.34,4.65l0.56,1.54
      c1.22,1.27,2.52,2.55,3.65,3.85l-9.17-1.58c-0.16-0.03-0.2,0.21-0.21,0.35c1.02,0.82,2.02,1.68,2.98,2.51l-0.02,0.02l-13.4,0.81
      l-1.93-0.19l-7.31-2.33l-0.2-0.14l-0.09-1.18l4.4-4.31l0.04-0.11c-1.94-0.83-3.91-1.58-5.84-2.43l10.7-7.35
      c1.27-1.02,2.3-2.24,3.52-3.33l0.04-0.12c-0.73-0.17-1.5-0.3-2.25-0.44c0,0-0.48,0.14-0.33-0.22l1.02-0.76l11.5-8.02l0.06-0.11
      l-4.2-12.57c-0.14-0.03-0.26-0.03-0.37,0.01L214,200.8l-0.99,6.02l-6.53,5.86l-2.02,4.87l-13.22,9.24l3.07,9.13l6.55,1.94
      l-0.4,0.81l-1.29-0.2l-0.95,1.69l-1.12,0.72c-0.15,0.69-0.41,1.36-0.52,2.04c0.98,1.24,1.95,2.65,2.98,3.87l8.07-0.99l0.26,0.03
      l-2.15,8.45c-0.08,0.23,0.18,0.24,0.31,0.3l6.27-6.59l-0.75,5.21l10.16-5.56l-4.29,11.3l0.08,0.01l16.59-9.13l0.46,4.18
      l-7.28,5.36l11.2,0.59l7.77,3.62l0.46,0.15L246.76,255.72z M195.3,227.96l2.33,1.82c-0.41,0.46-0.98,0.97-1.52,1.36L195.3,227.96
      z M214.15,240.51l-15.09,3.63l-0.08-0.01l-0.4-0.85c0.59-1.3,1.29-2.55,1.98-3.75l1.19,1.41l1.82-1.65
      c0.28,0.38,0.49,0.81,0.75,1.25l12.27-2.88l3.76-0.93c0.85,0.48,1.6,1.11,2.39,1.69L214.15,240.51z M244.31,246.91l-1.12-14.71
      l-1.16-17.75l-0.17-7.73c0.08-0.11,0.02-0.45,0.26-0.42c0.3,0.14,0.19,0.51,0.32,0.74l0.73,3.94l1.07,7.76
      c1.01,9.2,1.74,18.55,0.39,28.14C244.56,246.97,244.43,246.93,244.31,246.91"></path>
    <path d="M231.89,207.11l-0.95-0.2l-9.18-2.55l-4.35-8.65c-0.73-1.51-1.49-3.02-2.03-4.57
      c1.64,0.3,2.73,1.63,3.74,2.96c2.26,3.32,4.64,6.3,7.18,9.31l2.51,0.93l8.43-5.97c1.91-1.23,3.72-2.53,5.76-3.55l0.97-0.25
      l-0.11,0.16L231.89,207.11z"></path>
    <path d="M226.08,208.52l-0.04,0.09l-7.92,3.95c-1.08,0.64-2.06,1.07-3.12,1.8c-0.12-0.02-0.15-0.17-0.25-0.23
      l0.08-0.11l7.51-5.95c1.21,0.1,2.4,0.09,3.62,0.15L226.08,208.52z"></path>
    <path d="M222.99,218.4c0,0.12,0.08,0.22,0.02,0.35c-1.18,0.4-2.39,0.73-3.56,1.21c0.55,0.59,1.2,1.06,1.78,1.6
      l-0.03,0.07l-4.56,1.37l-2.83-1.63l-6.35,2.66c-0.16-0.01-0.15-0.19-0.23-0.31l7.7-5.3c-0.05-0.52-0.24-1.05-0.2-1.57
      L222.99,218.4z"></path>
  </g>
  <g>
    <path d="M185.79,242.29h-1.49v4.7h-1.11v-4.7h-1.49v-0.99h4.09V242.29z"></path>
    <path d="M191.85,246.99h-1.11v-3.31l-1.09,2.02h-0.75l-1.1-2.02v3.31h-1.11v-5.69h1.1l1.49,2.95l1.48-2.95h1.1V246.99
      z"></path>
  </g>
</g>

  <!-- ENGLISH -->
<g>
  <path d="M52.5 199.79a7.42 7.42 0 0 1-4.8-3.64 7.25 7.25 0 0 1-.88-5.7 5.74 5.74 0 0 1 1.72-2.91 27.14 27.14 0 0 1 4-2.81 26.68 26.68 0 0 1 4.46-2.25 5.62 5.62 0 0 1 3.38-.15A7.25 7.25 0 0 1 65 185.8a7.1 7.1 0 0 1-1.61 9.66l-2-3.34a3.38 3.38 0 0 0 .65-4.54 3.13 3.13 0 0 0-2.21-1.58c-1.16-.15-1.89 0-5.25 2s-3.92 2.54-4.31 3.69a3.07 3.07 0 0 0 .39 2.65 3.55 3.55 0 0 0 2.34 1.83 3.88 3.88 0 0 0 2.72-.59l.64-.39-1.87-3.13 2.77-1.66 3.84 6.42-2.48 1.48c-2.48 1.49-4.21 1.91-6.15 1.48M60.49 213.47c-2.72-3-2.83-7.26.28-10.08l9.66-8.73 2.57 2.87-9.55 8.64c-1.69 1.53-1.81 3.44-.41 5a3.29 3.29 0 0 0 5 .12l9.55-8.64 2.57 2.85-9.66 8.73c-3.11 2.82-7.31 2.27-10-.75M85 216.76L78.65 221l3.94 3zm-4.65 14l1.16-3.51-5.67-4.25-3 2.09-3.23-2.41 17.6-11.57 2.42 1.82-6 20.21zM102.55 224.54L99.26 223 97 227.68l3.28 1.57a2.62 2.62 0 1 0 2.26-4.72m-4.37 16.05l-.06-8.79-2.5-1.2-3.42 7.13-3.48-1.72 8.57-17.86 7 3.35c3.63 1.74 4.59 5.26 3.16 8.24a5.33 5.33 0 0 1-5.51 3.13l.29 9.61zM118.48 232.81l-4.23 6.35 4.76 1.23zm1 14.67l-.25-3.69-6.85-1.79-2 3.09-3.9-1 11.94-17.37 2.94.76 2 21z" transform="translate(-14.17 -13.99)"></path>
  <path d="M126.8 235.95l-7.18-12.57-.64 12.14-3.86-.21 1.05-19.78 3.44.18 7.18 12.54.65-12.11 3.85.2-1.04 19.79-3.45-.18zM143.52 218.35l2.26 16.2-3.83.54-2.26-16.2-5.12.72-.48-3.42 14.07-1.97.47 3.42-5.11.71zM157.12 232.29l-6.15-18.82 12.38-4.07 1.08 3.28-8.72 2.86 1.44 4.42 7.42-2.44 1.07 3.27-7.42 2.44 1.5 4.58 8.71-2.86 1.07 3.27-12.38 4.07zM176 225.32l-9.44-17.4 11.44-6.25 1.65 3.04-8.06 4.39 2.22 4.08 6.86-3.74 1.64 3.03-6.86 3.74 2.3 4.23 8.05-4.39 1.65 3.03-11.45 6.24z"></path>
  <path d="M205.47 211.19a3.46 3.46 0 0 0-3 .89l-2.26 1.85 8.18 10 2.26-1.85a3.46 3.46 0 0 0 1.46-2.78c0-1.15-.82-2.31-2.72-4.64s-2.78-3.22-3.91-3.45m10.47 8.52a7.21 7.21 0 0 1-2.84 4.78l-5.53 4.49L195 213.72l5.52-4.54a7.22 7.22 0 0 1 5.24-1.86c3.13.31 4.68 2.56 6.57 4.86s3.89 4.4 3.58 7.53M92.21 72.11a9.42 9.42 0 0 1-7.27 1.81A7.45 7.45 0 0 1 81 72a35.08 35.08 0 0 1-4.11-4.93 35 35 0 0 1-3.41-5.43 7.34 7.34 0 0 1-.58-4.36 9.45 9.45 0 0 1 4-6.37c4-2.92 8.65-2.73 12.44 1l-4.12 3c-1.73-1.47-3.69-1.83-5.65-.4a4 4 0 0 0-1.82 3c-.19 1.52.32 2.59 3.25 6.63s3.79 4.85 5.29 5.13a4 4 0 0 0 3.39-.81c2-1.43 2.22-3.4 1.36-5.51l4.12-3c2.38 4.75 1.1 9.27-2.88 12.16M104.13 42.9a4.15 4.15 0 0 0-3.49 0 4.26 4.26 0 0 0-2.48 2.51c-.49 1.38-.27 2.58 1.62 7.16s2.58 5.58 3.89 6.21a4.24 4.24 0 0 0 3.53 0 4.18 4.18 0 0 0 2.45-2.5c.49-1.38.3-2.59-1.59-7.17s-2.61-5.57-3.93-6.2m10.11 14.75A10 10 0 0 1 101.4 63c-3.4-1.41-4.56-4.41-6.25-8.52s-3-7.06-1.58-10.46a9.41 9.41 0 0 1 5.36-5.28 9.29 9.29 0 0 1 7.48-.05c3.4 1.41 4.59 4.4 6.29 8.51s3 7.07 1.55 10.48" transform="translate(-14.17 -13.99)"></path>
  <path d="M126.29 41.88l-1.41-14.95-3.97 10.19-3.38.32-5.85-9.26 1.41 14.94-5 .47-2.42-25.63 4.93-.47 8 13.23 5.34-14.49 4.93-.47 2.42 25.64-5 .48zM145.98 22.35l-1.21 6.21 9.96 1.94-.85 4.4-9.97-1.93-1.99 10.26-4.93-.96 4.92-25.28 16.63 3.23-.86 4.4-11.7-2.27z"></path>
  <path d="M190.5 47.52a4.16 4.16 0 0 0-2.32-2.61 4.24 4.24 0 0 0-3.53-.14c-1.34.57-2.08 1.54-4.19 6s-2.38 5.67-2 7.07a4.25 4.25 0 0 0 2.36 2.63 4.16 4.16 0 0 0 3.49.12c1.34-.57 2.11-1.52 4.22-6s2.35-5.69 1.93-7.09m-4.07 17.43A10 10 0 0 1 173.84 59c-1.25-3.46.18-6.34 2.08-10.37s3.19-7 6.65-8.23a10 10 0 0 1 12.59 5.92c1.25 3.46-.15 6.36-2 10.39s-3.23 7-6.69 8.21M213 61.36l-3.6-3.08-4.4 5.18 3.6 3.08a3.41 3.41 0 1 0 4.4-5.18m-10.82 18.72L205 69l-2.75-2.35-6.66 7.81-3.79-3.26 16.7-19.6 7.66 6.55c4 3.41 4 8.15 1.23 11.43a6.92 6.92 0 0 1-8 2.09l-2.79 12.19z" transform="translate(-14.17 -13.99)"></path>
  <path d="M217.89 69.02l-17.4 12.22-2.88-4.11 17.4-12.23-3.86-5.5 3.66-2.58 10.6 15.13-3.66 2.58-3.86-5.51z"></path>
</g>
<!-- END ENGLISH -->
  </svg>