<?xml version="1.0" encoding="UTF-8" standalone="no"?>
<!-- Created with Inkscape (http://www.inkscape.org/) -->
<svg
   xmlns:dc="http://purl.org/dc/elements/1.1/"
   xmlns:cc="http://creativecommons.org/ns#"
   xmlns:rdf="http://www.w3.org/1999/02/22-rdf-syntax-ns#"
   xmlns:svg="http://www.w3.org/2000/svg"
   xmlns="http://www.w3.org/2000/svg"
   xmlns:sodipodi="http://sodipodi.sourceforge.net/DTD/sodipodi-0.dtd"
   xmlns:inkscape="http://www.inkscape.org/namespaces/inkscape"
   width="250.67813"
   height="51.166248"
   id="svg2810"
   sodipodi:version="0.32"
   inkscape:version="0.46"
   version="1.0"
   sodipodi:docname="ALSCO-Logo.svg"
   inkscape:output_extension="org.inkscape.output.svg.inkscape">
  <defs
     id="defs2812">
    <clipPath
       clipPathUnits="userSpaceOnUse"
       id="clipPath369">
      <path
         d="M 36,761.949 L 236.693,761.949 L 236.693,704.489 L 36,704.489 L 36,761.949 z"
         id="path371" />
    </clipPath>
    <inkscape:perspective
       sodipodi:type="inkscape:persp3d"
       inkscape:vp_x="0 : 526.18109 : 1"
       inkscape:vp_y="0 : 1000 : 0"
       inkscape:vp_z="744.09448 : 526.18109 : 1"
       inkscape:persp3d-origin="372.04724 : 350.78739 : 1"
       id="perspective2818" />
  </defs>
  <sodipodi:namedview
     id="base"
     pagecolor="#ffffff"
     bordercolor="#666666"
     borderopacity="1.0"
     inkscape:pageopacity="0.0"
     inkscape:pageshadow="2"
     inkscape:zoom="2.2578755"
     inkscape:cx="125.33907"
     inkscape:cy="35.961872"
     inkscape:document-units="px"
     inkscape:current-layer="layer1"
     showgrid="false"
     inkscape:window-width="640"
     inkscape:window-height="667"
     inkscape:window-x="88"
     inkscape:window-y="67" />
  <metadata
     id="metadata2815">
    <rdf:RDF>
      <cc:Work
         rdf:about="">
        <dc:format>image/svg+xml</dc:format>
        <dc:type
           rdf:resource="http://purl.org/dc/dcmitype/StillImage" />
      </cc:Work>
    </rdf:RDF>
  </metadata>
  <g
     inkscape:label="Ebene 1"
     inkscape:groupmode="layer"
     id="layer1"
     transform="translate(-151.80379,-179.25745)">
    <g
       id="g29"
       transform="matrix(1.25,0,0,-1.25,161.60817,229.01433)">
      <path
         d="M 0,0 L 17.18,0 L 20.449,8.935 C 20.449,8.935 17.356,9.709 12.716,9.709 C 8.076,9.709 4.035,9.193 4.035,9.193 L 0,0"
         style="fill:#00853f;fill-opacity:1;fill-rule:nonzero;stroke:none"
         id="path31" />
    </g>
    <g
       id="g33"
       transform="matrix(1.25,0,0,-1.25,173.20692,203.23808)">
      <path
         d="M 0,0 L 8.588,19.074 L 27.233,19.074 L 45.452,-19.847 L 45.452,-20.62 L 29.213,-20.62 L 29.213,-18.301 C 29.213,-18.301 28.684,-15.858 25.003,-13.403 C 21.652,-11.169 15.379,-9.537 10.568,-9.365 C 5.757,-9.193 -8.42,-8.334 -17.012,-14.262 C -17.012,-14.262 -14.046,-7.598 6.96,-7.475 C 28.783,-7.347 32.134,-16.84 30.416,-18.73 C 30.416,-18.73 31.962,-18.816 31.962,-15.294 C 31.962,-11.771 23.714,-5.928 12.373,-5.928 C 2.835,-5.928 -5.069,-4.639 -16.153,-11.943 C -16.153,-11.943 -9.709,-4.027 6.444,-4.124 C 20.793,-4.21 23.542,-5.928 25.26,-6.53 C 26.979,-7.131 33.852,-10.139 32.907,-15.122 C 32.907,-15.122 36.516,-13.661 32.735,-8.506 C 28.955,-3.351 13.404,-2.148 11.771,-2.148 C 10.139,-2.148 -2.921,-1.289 -13.489,-8.334 C -13.489,-8.334 -7.045,-0.159 10.139,-0.258 C 25.089,-0.343 30.587,-4.21 31.532,-4.812 C 32.478,-5.413 36.258,-8.248 35.399,-11.943 C 35.399,-11.943 37.289,-11.427 36.774,-7.991 C 36.258,-4.554 32.134,-2.663 30.673,-1.976 C 29.213,-1.289 23.827,0.953 19.803,1.169 L 18.278,4.549 L 17.613,4.554 L 16.583,1.375 C 16.583,1.375 4.725,1.633 0,0"
         style="fill:#00853f;fill-opacity:1;fill-rule:nonzero;stroke:none"
         id="path35" />
    </g>
    <g
       id="g37"
       transform="matrix(1.25,0,0,-1.25,173.20692,203.23808)">
      <path
         d="M 0,0 L 8.588,19.074 L 27.233,19.074 L 45.452,-19.847 L 45.452,-20.62 L 29.213,-20.62 L 29.213,-18.301 C 29.213,-18.301 28.684,-15.858 25.003,-13.403 C 21.652,-11.169 15.379,-9.537 10.568,-9.365 C 5.757,-9.193 -8.42,-8.334 -17.012,-14.262 C -17.012,-14.262 -14.046,-7.598 6.96,-7.475 C 28.783,-7.347 32.134,-16.84 30.416,-18.73 C 30.416,-18.73 31.962,-18.816 31.962,-15.294 C 31.962,-11.771 23.714,-5.928 12.373,-5.928 C 2.835,-5.928 -5.069,-4.639 -16.153,-11.943 C -16.153,-11.943 -9.709,-4.027 6.444,-4.124 C 20.793,-4.21 23.542,-5.928 25.26,-6.53 C 26.979,-7.131 33.852,-10.139 32.907,-15.122 C 32.907,-15.122 36.516,-13.661 32.735,-8.506 C 28.955,-3.351 13.404,-2.148 11.771,-2.148 C 10.139,-2.148 -2.921,-1.289 -13.489,-8.334 C -13.489,-8.334 -7.045,-0.159 10.139,-0.258 C 25.089,-0.343 30.587,-4.21 31.532,-4.812 C 32.478,-5.413 36.258,-8.248 35.399,-11.943 C 35.399,-11.943 37.289,-11.427 36.774,-7.991 C 36.258,-4.554 32.134,-2.663 30.673,-1.976 C 29.213,-1.289 23.827,0.953 19.803,1.169 L 18.278,4.549 L 17.613,4.554 L 16.583,1.375 C 16.583,1.375 4.725,1.633 0,0 z"
         style="fill:none;stroke:#00853f;stroke-width:0.221;stroke-linecap:butt;stroke-linejoin:miter;stroke-miterlimit:4;stroke-dasharray:none;stroke-opacity:1"
         id="path39" />
    </g>
    <g
       id="g41"
       transform="matrix(1.25,0,0,-1.25,230.55942,185.94683)">
      <path
         d="M 0,0 L 0,-33.509 L -0.516,-33.509 L -0.516,-34.453 L 20.273,-34.453 L 28.095,-27.838 L 28.783,-27.838 L 28.783,-33.509 C 28.783,-33.509 30.587,-35.398 42.014,-35.398 C 53.441,-35.398 56.792,-31.532 57.136,-31.103 C 57.479,-30.673 60.229,-28.439 60.229,-24.315 C 60.229,-20.191 58.253,-16.325 54.215,-14.692 C 50.176,-13.06 46.653,-12.802 44.763,-12.372 C 42.873,-11.942 41.756,-11.599 41.756,-9.795 C 41.756,-7.991 44.106,-7.623 46.254,-7.623 C 48.402,-7.623 53.301,-8.194 54.644,-8.42 C 55.693,-8.596 57.651,-9.279 57.651,-9.279 L 57.651,-0.687 C 57.651,-0.687 51.723,0.344 45.451,0.344 C 39.179,0.344 30.845,-1.632 29.384,-6.1 C 27.924,-10.568 28.009,-16.325 32.133,-18.558 C 36.258,-20.792 39.522,-21.222 41.412,-21.737 C 43.303,-22.253 46.826,-22.94 46.826,-24.659 C 46.826,-26.377 46.653,-27.15 41.327,-27.15 C 36,-27.15 29.728,-25.432 29.126,-25.088 L 12.626,-25.088 L 12.626,0.016 L 0,0"
         style="fill:#00853f;fill-opacity:1;fill-rule:nonzero;stroke:none"
         id="path43" />
    </g>
    <g
       id="g45"
       transform="matrix(1.25,0,0,-1.25,230.55942,185.94683)">
      <path
         d="M 0,0 L 0,-33.509 L -0.516,-33.509 L -0.516,-34.453 L 20.273,-34.453 L 28.095,-27.838 L 28.783,-27.838 L 28.783,-33.509 C 28.783,-33.509 30.587,-35.398 42.014,-35.398 C 53.441,-35.398 56.792,-31.532 57.136,-31.103 C 57.479,-30.673 60.229,-28.439 60.229,-24.315 C 60.229,-20.191 58.253,-16.325 54.215,-14.692 C 50.176,-13.06 46.653,-12.802 44.763,-12.372 C 42.873,-11.942 41.756,-11.599 41.756,-9.795 C 41.756,-7.991 44.106,-7.623 46.254,-7.623 C 48.402,-7.623 53.301,-8.194 54.644,-8.42 C 55.693,-8.596 57.651,-9.279 57.651,-9.279 L 57.651,-0.687 C 57.651,-0.687 51.723,0.344 45.451,0.344 C 39.179,0.344 30.845,-1.632 29.384,-6.1 C 27.924,-10.568 28.009,-16.325 32.133,-18.558 C 36.258,-20.792 39.522,-21.222 41.412,-21.737 C 43.303,-22.253 46.826,-22.94 46.826,-24.659 C 46.826,-26.377 46.653,-27.15 41.327,-27.15 C 36,-27.15 29.728,-25.432 29.126,-25.088 L 12.626,-25.088 L 12.626,0.016 L 0,0 z"
         style="fill:none;stroke:#00853f;stroke-width:0.223;stroke-linecap:butt;stroke-linejoin:miter;stroke-miterlimit:4;stroke-dasharray:none;stroke-opacity:1"
         id="path47" />
    </g>
    <g
       id="g49"
       transform="matrix(1.25,0,0,-1.25,345.04817,197.92808)">
      <path
         d="M 0,0 L 0,8.926 C 0,8.926 -2.321,9.729 -10.265,9.729 C -18.209,9.729 -30.08,7.052 -30.08,-8.48 C -30.08,-24.011 -13.3,-25.885 -10.889,-25.885 C -8.479,-25.885 -3.303,-25.439 0.179,-24.278 L 0.179,-15.675 C 0.179,-15.675 -3.213,-16.87 -7.23,-16.87 C -11.247,-16.87 -16.691,-15.085 -16.691,-7.855 C -16.691,-0.625 -10.889,1.25 -7.498,1.25 C -4.105,1.25 0,0 0,0"
         style="fill:#00853f;fill-opacity:1;fill-rule:nonzero;stroke:none"
         id="path51" />
    </g>
    <g
       id="g53"
       transform="matrix(1.25,0,0,-1.25,345.04817,197.92808)">
      <path
         d="M 0,0 L 0,8.926 C 0,8.926 -2.321,9.729 -10.265,9.729 C -18.209,9.729 -30.08,7.052 -30.08,-8.48 C -30.08,-24.011 -13.3,-25.885 -10.889,-25.885 C -8.479,-25.885 -3.303,-25.439 0.179,-24.278 L 0.179,-15.675 C 0.179,-15.675 -3.213,-16.87 -7.23,-16.87 C -11.247,-16.87 -16.691,-15.085 -16.691,-7.855 C -16.691,-0.625 -10.889,1.25 -7.498,1.25 C -4.105,1.25 0,0 0,0 z"
         style="fill:none;stroke:#00853f;stroke-width:0.223;stroke-linecap:butt;stroke-linejoin:miter;stroke-miterlimit:4;stroke-dasharray:none;stroke-opacity:1"
         id="path55" />
    </g>
    <g
       id="g57"
       transform="matrix(1.25,0,0,-1.25,378.29692,207.85808)">
      <path
         d="M 0,0 C 0,-5.423 -2.142,-9.729 -5.713,-9.729 C -9.372,-9.729 -11.141,-5.334 -11.141,0.089 C -11.141,5.512 -9.194,9.908 -5.713,9.908 C -2.142,9.908 0,5.423 0,0 z M -25.26,0.045 C -25.26,-9.987 -18.923,-17.852 -5.713,-17.852 C 7.586,-17.852 13.97,-9.987 13.97,0.045 C 13.97,10.076 6.962,17.852 -5.623,17.852 C -18.565,17.852 -25.26,10.076 -25.26,0.045"
         style="fill:#00853f;fill-opacity:1;fill-rule:nonzero;stroke:none"
         id="path59" />
    </g>
    <g
       id="g61"
       transform="matrix(1.25,0,0,-1.25,378.29692,207.85808)">
      <path
         d="M 0,0 C 0,-5.423 -2.142,-9.729 -5.713,-9.729 C -9.372,-9.729 -11.141,-5.334 -11.141,0.089 C -11.141,5.512 -9.194,9.908 -5.713,9.908 C -2.142,9.908 0,5.423 0,0 z"
         style="fill:none;stroke:#00853f;stroke-width:0.223;stroke-linecap:butt;stroke-linejoin:miter;stroke-miterlimit:4;stroke-dasharray:none;stroke-opacity:1"
         id="path63" />
      <g
         id="g65"
         transform="translate(-25.26,4.5e-2)">
        <path
           d="M 0,0 C 0,-10.032 6.337,-17.897 19.547,-17.897 C 32.846,-17.897 39.229,-10.032 39.229,0 C 39.229,10.031 32.222,17.807 19.636,17.807 C 6.694,17.807 0,10.031 0,0 z"
           style="fill:none;stroke:#00853f;stroke-width:0.223;stroke-linecap:butt;stroke-linejoin:miter;stroke-miterlimit:4;stroke-dasharray:none;stroke-opacity:1"
           id="path67" />
      </g>
    </g>
    <g
       id="g361"
       transform="matrix(1.25,0,0,-1.25,398.26692,224.30308)">
      <path
         d="M 0,0 L 0.575,0 C 1.146,0 1.828,0.019 1.828,-0.72 C 1.828,-1.032 1.618,-1.291 1.28,-1.337 L 1.28,-1.345 C 1.424,-1.356 1.508,-1.501 1.561,-1.619 L 1.988,-2.658 L 1.394,-2.658 L 1.074,-1.828 C 0.998,-1.63 0.929,-1.554 0.705,-1.554 L 0.533,-1.554 L 0.533,-2.658 L 0,-2.658 L 0,0 z M 0.533,-1.135 L 0.708,-1.135 C 0.971,-1.135 1.272,-1.097 1.272,-0.766 C 1.272,-0.446 0.975,-0.419 0.708,-0.419 L 0.533,-0.419 L 0.533,-1.135"
         style="fill:#00853f;fill-opacity:1;fill-rule:nonzero;stroke:none"
         id="path363" />
    </g>
    <g
       transform="matrix(1.25,0,0,-1.25,106.61567,1131.6931)"
       id="g365">
      <g
         id="g367"
         clip-path="url(#clipPath369)">
        <g
           id="g373"
           transform="translate(236.416,724.52)">
          <path
             d="M 0,0 C 0,-1.231 -0.997,-2.228 -2.228,-2.228 C -3.459,-2.228 -4.456,-1.231 -4.456,0 C -4.456,1.231 -3.459,2.229 -2.228,2.229 C -0.997,2.229 0,1.231 0,0 z"
             style="fill:none;stroke:#00853f;stroke-width:0.55800003;stroke-linecap:butt;stroke-linejoin:miter;stroke-miterlimit:4;stroke-dasharray:none;stroke-opacity:1"
             id="path375" />
        </g>
      </g>
    </g>
  </g>
</svg>
