<svg version="1.1" xmlns="http://www.w3.org/2000/svg" xmlns:xlink="http://www.w3.org/1999/xlink" x="0px" y="0px" viewBox="0 0 175 47" enable-background="new 0 0 175 47" xml:space="preserve">
<g>
	<g>
		<path fill="#004C97" d="M54.6,33.8c-1.6,0-3.1-0.7-4.2-2.1v0.1c0,1-0.8,1.8-1.8,1.8c-1,0-1.8-0.8-1.8-1.8V16.2
			c0-1,0.8-1.7,1.8-1.7c1,0,1.7,0.8,1.7,1.7v5.4c1.1-1.4,2.6-2.1,4.2-2.1c3.5,0,6,2.7,6,7.2C60.6,31.2,58,33.8,54.6,33.8z
			 M53.5,22.6c-1.2,0-2.5,0.7-3.1,1.6v4.8c0.6,0.9,1.9,1.5,3.1,1.5c2.1,0,3.5-1.6,3.5-4C56.9,24.3,55.6,22.6,53.5,22.6z"></path>
		<path fill="#004C97" d="M64.4,33.6c-1,0-1.8-0.8-1.8-1.8V16.2c0-1,0.8-1.7,1.8-1.7c1,0,1.7,0.8,1.7,1.7v15.6
			C66.2,32.8,65.4,33.6,64.4,33.6z"></path>
		<path fill="#004C97" d="M80,33.6c-1,0-1.8-0.8-1.8-1.8v-0.1c-0.9,1-2.6,2.1-4.8,2.1c-3,0-4.4-1.6-4.4-4.3v-8.1
			c0-1,0.8-1.7,1.8-1.7c1,0,1.7,0.8,1.7,1.7v6.7c0,1.9,1,2.5,2.5,2.5c1.4,0,2.5-0.8,3.1-1.6v-7.6c0-1,0.8-1.7,1.8-1.7
			c1,0,1.7,0.8,1.7,1.7v10.4C81.8,32.8,81,33.6,80,33.6z"></path>
		<path fill="#004C97" d="M95.9,27.8h-8.4c0.2,1.7,1.6,3.2,3.9,3.2c0.8,0,1.8-0.2,2.6-0.7c0.2-0.1,0.5-0.2,0.7-0.2
			c0.8,0,1.5,0.6,1.5,1.4c0,1.6-3.5,2.3-5.3,2.3c-4.1,0-7.3-2.8-7.3-7.2c0-3.9,2.9-7.1,7-7.1c3.1,0,5.4,1.8,6.4,4.6
			c0.2,0.6,0.4,1.4,0.4,2.1C97.6,27,96.8,27.8,95.9,27.8z M90.8,22.3c-2.2,0-3.2,1.7-3.3,3h6.7C94.1,24,93.2,22.3,90.8,22.3z"></path>
	</g>
	<g>
		<path fill="#004C97" d="M110,33.6c-0.6,0-1-0.5-1-1v-8.1c0-2.4-1.2-3.1-3.1-3.1c-1.6,0-3.2,1-4,2.1v9.1c0,0.6-0.5,1-1.1,1
			c-0.6,0-1-0.5-1-1V15.5c0-0.5,0.5-1,1.1-1c0.5,0,1,0.5,1,1v6.3c1-1.1,2.8-2.3,4.9-2.3c2.8,0,4.3,1.4,4.3,4.3v8.7
			C111.1,33.1,110.6,33.6,110,33.6z"></path>
		<path fill="#004C97" d="M124.2,33.6c-0.6,0-1-0.5-1-1.1v-0.6c-1.1,1.2-2.7,1.9-4.5,1.9c-2.3,0-4.8-1.6-4.8-4.5
			c0-3,2.4-4.5,4.8-4.5c1.9,0,3.4,0.6,4.5,1.9v-2.5c0-1.8-1.5-2.9-3.4-2.9c-1.3,0-2.5,0.4-3.5,1.3c-0.2,0.1-0.4,0.2-0.6,0.2
			c-0.5,0-0.9-0.3-0.9-0.8c0-0.2,0.1-0.5,0.3-0.6c1.4-1.3,3.1-1.9,5.1-1.9c2.9,0,5.3,1.3,5.3,4.6v8.5
			C125.2,33.1,124.7,33.6,124.2,33.6z M123.1,28c-0.8-1.1-2.2-1.7-3.7-1.7c-2,0-3.3,1.2-3.3,3c0,1.7,1.4,3,3.3,3
			c1.5,0,2.9-0.6,3.7-1.7V28z"></path>
		<path fill="#004C97" d="M134.4,21.7c-1.4,0.1-2.7,0.7-3.6,2.1v8.8c0,0.6-0.5,1-1.1,1h0c-0.6,0-1-0.5-1-1V20.6c0-0.5,0.5-1,1.1-1
			c0.5,0,1,0.5,1,1V22c0.8-1.1,2.2-2.4,3.7-2.4c0.5,0,1,0.4,1,1C135.5,21.2,135.1,21.7,134.4,21.7z"></path>
		<path fill="#004C97" d="M144,33.8c-1.9,0-3.6-1-4.6-2.4v1.2c0,0.6-0.5,1-1.1,1c-0.6,0-1-0.5-1-1V15.5c0-0.5,0.5-1,1.1-1
			c0.5,0,1,0.5,1,1v6.4c1.1-1.5,2.7-2.4,4.6-2.4c3.5,0,6,2.8,6,7.2C150.1,31.1,147.6,33.8,144,33.8z M143.5,21.4c-1.7,0-3.3,1-4,2.2
			v6.2c0.7,1.2,2.4,2.1,4,2.1c2.8,0,4.4-2.2,4.4-5.2C147.9,23.6,146.2,21.4,143.5,21.4z"></path>
		<path fill="#004C97" d="M158.7,33.8c-4.1,0-6.7-3.2-6.7-7.2s2.6-7.1,6.7-7.1s6.7,3.2,6.7,7.1S162.9,33.8,158.7,33.8z M158.7,21.4
			c-2.9,0-4.5,2.5-4.5,5.2c0,2.8,1.6,5.3,4.5,5.3c2.9,0,4.5-2.5,4.5-5.3C163.2,23.8,161.6,21.4,158.7,21.4z"></path>
		<path fill="#004C97" d="M173.9,21.7c-1.4,0.1-2.7,0.7-3.6,2.1v8.8c0,0.6-0.5,1-1.1,1h0c-0.6,0-1-0.5-1-1V20.6c0-0.5,0.5-1,1.1-1
			c0.5,0,1,0.5,1,1V22c0.8-1.1,2.2-2.4,3.7-2.4c0.5,0,1,0.4,1,1C175,21.2,174.5,21.7,173.9,21.7z"></path>
	</g>
</g>
<g>
	<path fill="#004C97" d="M65.6,46.3c-0.9,0-1.7-0.3-2.2-0.8c-0.1-0.1-0.1-0.2-0.1-0.3c0-0.2,0.1-0.4,0.4-0.4c0.1,0,0.2,0,0.2,0.1
		c0.4,0.4,1,0.7,1.8,0.7c1.1,0,1.5-0.6,1.5-1.1c0-1.6-3.7-0.7-3.7-3c0-1,0.9-1.7,2.1-1.7c0.8,0,1.5,0.2,2,0.7
		c0.1,0.1,0.1,0.2,0.1,0.3c0,0.2-0.2,0.4-0.4,0.4c-0.1,0-0.2,0-0.2-0.1c-0.5-0.4-1-0.5-1.6-0.5c-0.7,0-1.3,0.4-1.3,1
		c0,1.4,3.7,0.6,3.7,2.9C67.9,45.4,67.3,46.3,65.6,46.3z"></path>
	<path fill="#004C97" d="M75.6,46.2h-3.3c-0.3,0-0.6-0.3-0.6-0.6v-5.1c0-0.3,0.3-0.6,0.6-0.6h3.3c0.2,0,0.3,0.2,0.3,0.4
		c0,0.2-0.2,0.3-0.3,0.3h-3v2h3c0.2,0,0.3,0.2,0.3,0.4c0,0.2-0.2,0.3-0.3,0.3h-3v2.2h3c0.2,0,0.3,0.2,0.3,0.3
		C75.9,46,75.8,46.2,75.6,46.2z"></path>
	<path fill="#004C97" d="M84.5,46.2c-0.1,0-0.3-0.1-0.4-0.2l-3.5-4.9v4.7c0,0.2-0.2,0.4-0.4,0.4c-0.2,0-0.4-0.2-0.4-0.4v-5.5
		c0-0.2,0.2-0.5,0.5-0.5c0.2,0,0.3,0.1,0.4,0.2l3.5,4.7v-4.6c0-0.2,0.2-0.4,0.4-0.4c0.2,0,0.4,0.2,0.4,0.4v5.6
		C85,46,84.8,46.2,84.5,46.2z"></path>
	<path fill="#004C97" d="M89.5,46.2c-0.2,0-0.4-0.2-0.4-0.4v-5.6c0-0.2,0.2-0.4,0.4-0.4c0.2,0,0.4,0.2,0.4,0.4v5.6
		C89.9,46.1,89.8,46.2,89.5,46.2z"></path>
	<path fill="#004C97" d="M97,46.3c-1.9,0-3.1-1.4-3.1-3.2c0-1.9,1.2-3.2,3.1-3.2c1.8,0,3.1,1.4,3.1,3.2
		C100.1,44.9,98.8,46.3,97,46.3z M97,40.5c-1.4,0-2.3,1.1-2.3,2.5c0,1.5,0.9,2.5,2.3,2.5c1.4,0,2.3-1.1,2.3-2.5
		C99.3,41.6,98.4,40.5,97,40.5z"></path>
	<path fill="#004C97" d="M106.8,43.6l1.3,2c0,0.1,0.1,0.1,0.1,0.2c0,0.2-0.2,0.4-0.4,0.4c-0.1,0-0.2-0.1-0.3-0.2l-1.5-2.4h-1.2v2.2
		c0,0.2-0.2,0.4-0.4,0.4c-0.2,0-0.4-0.2-0.4-0.4v-5.4c0-0.3,0.3-0.6,0.6-0.6h1.9c1.1,0,2,0.7,2,1.9
		C108.5,42.9,107.7,43.6,106.8,43.6z M104.8,40.6V43h1.6c0.7,0,1.2-0.5,1.2-1.2c0-0.7-0.5-1.2-1.2-1.2H104.8z"></path>
	<path fill="#004C97" d="M120.9,46.2h-2.8c-0.3,0-0.6-0.3-0.6-0.6v-5.4c0-0.2,0.2-0.4,0.4-0.4c0.2,0,0.4,0.2,0.4,0.4v5.3h2.6
		c0.2,0,0.3,0.2,0.3,0.3C121.3,46,121.1,46.2,120.9,46.2z"></path>
	<path fill="#004C97" d="M125.4,46.2c-0.2,0-0.4-0.2-0.4-0.4v-5.6c0-0.2,0.2-0.4,0.4-0.4c0.2,0,0.4,0.2,0.4,0.4v5.6
		C125.8,46.1,125.6,46.2,125.4,46.2z"></path>
	<path fill="#004C97" d="M135.1,40.4l-2.2,5.4c-0.1,0.3-0.4,0.4-0.6,0.4h0c-0.3,0-0.5-0.2-0.6-0.4l-2.2-5.4c0,0,0-0.1,0-0.2
		c0-0.2,0.2-0.4,0.4-0.4c0.2,0,0.3,0.1,0.4,0.3l2,5.2l2-5.2c0.1-0.2,0.2-0.3,0.4-0.3c0.2,0,0.4,0.2,0.4,0.4
		C135.2,40.3,135.2,40.4,135.1,40.4z"></path>
	<path fill="#004C97" d="M139.3,46.2c-0.2,0-0.4-0.2-0.4-0.4v-5.6c0-0.2,0.2-0.4,0.4-0.4c0.2,0,0.4,0.2,0.4,0.4v5.6
		C139.7,46.1,139.5,46.2,139.3,46.2z"></path>
	<path fill="#004C97" d="M148.5,46.2c-0.2,0-0.3-0.1-0.4-0.2l-3.5-4.9v4.7c0,0.2-0.2,0.4-0.4,0.4c-0.2,0-0.4-0.2-0.4-0.4v-5.5
		c0-0.2,0.2-0.5,0.5-0.5c0.2,0,0.3,0.1,0.4,0.2l3.5,4.7v-4.6c0-0.2,0.2-0.4,0.4-0.4c0.2,0,0.4,0.2,0.4,0.4v5.6
		C149,46,148.8,46.2,148.5,46.2z"></path>
	<path fill="#004C97" d="M156.1,46.3c-1.8,0-3.2-1.3-3.2-3.3s1.4-3.2,3.2-3.2c0.9,0,1.6,0.4,2.1,0.9c0.1,0.1,0.1,0.2,0.1,0.3
		c0,0.2-0.1,0.4-0.4,0.4c-0.1,0-0.2,0-0.3-0.1c-0.4-0.4-1-0.7-1.6-0.7c-1.4,0-2.4,1.1-2.4,2.5c0,1.5,1,2.6,2.4,2.6
		c0.7,0,1.4-0.4,1.7-0.7v-1.3h-1.9c-0.2,0-0.3-0.2-0.3-0.4c0-0.2,0.1-0.3,0.3-0.3h2.1c0.3,0,0.6,0.3,0.6,0.6v1.2
		C158.6,45.7,157.2,46.3,156.1,46.3z"></path>
</g>
<g>
	<path fill="#B2C9E0" d="M16.6,0c0,0,1.8,3.8,5.4,6.1c3.7,2.2,7.3,3.2,10.2,6.4c5.6,6.2,5.3,13.4,5.3,13.4s-2.7-4.8-7.5-7.5
		c-4.8-2.7-11.3-5.1-12.9-9.1C15.5,5.3,16.6,0,16.6,0"></path>
	<path fill="#6694C1" d="M5.1,11.2c0,0,4.6,4.1,8.3,5.3c7.3,2.2,12.6,4,18.2,8.2c5.6,4.2,6.4,13.7,6.4,13.7s-2.1-4.8-11-8
		c-7.2-2.6-13.4-1.9-18.2-7.5C4,17.3,5.1,11.2,5.1,11.2"></path>
	<path fill="#004C97" d="M0,24.5c0,0,3.2,4.3,12.4,6.6c5.7,1.4,10.6,2,16.2,4.3c8.4,3.5,9.7,11.7,9.7,11.7s-2.1-2.5-8.1-3.8
		c-7-1.6-12.4,0.5-19.6-3C0.3,35,0,24.5,0,24.5"></path>
</g>
</svg>