<svg version="1.1" id="Layer_1" xmlns="http://www.w3.org/2000/svg" xmlns:xlink="http://www.w3.org/1999/xlink" x="0px" y="0px" width="232px" height="36px" viewBox="0 0 232 36" enable-background="new 0 0 232 36" xml:space="preserve">
<path fill-rule="evenodd" clip-rule="evenodd" fill="#E9804F" d="M13.557,7.008c1.791-1.039,3.824-1.386,5.374-1.429l0,0
	c0.031,0.001,0.209,0.002,0.491,0.016l0,0c0.935,0.044,3.004,0.221,4.452,0.855l0,0c0.004,0.002,0.028,0.012,0.076,0.033l0,0
	c0.335,0.146,1.783,0.823,2.967,1.984l0.141-0.144l-0.135,0.149l0,0c1.085,0.987,1.742,2.29,1.736,3.187l0,0
	c0,0.259-0.052,0.481-0.152,0.657l0,0c-0.034,0.062-0.077,0.136-0.125,0.217l0,0c-0.029,0.026-0.048,0.031-0.048,0.031l-0.001,0
	c-0.002-0.001-0.013,0.002-0.052-0.028l0,0c-0.34-0.264-0.826-0.336-1.297-0.339l0,0c-0.153,0-0.304,0.009-0.448,0.025l0,0
	c-1.13,0.108-2.406,0.329-3.831,0.413l0,0c-0.362,0.026-0.723,0.041-1.076,0.041l0,0c-1.039,0.001-2.013-0.133-2.683-0.484l0,0
	c-0.448-0.235-0.674-0.491-0.802-0.69l0,0c-0.064-0.1-0.103-0.186-0.131-0.253l0,0c-0.015-0.034-0.025-0.063-0.04-0.093l0,0
	c-0.008-0.015-0.015-0.031-0.03-0.053l0,0c-0.016-0.02-0.036-0.055-0.104-0.085l0,0c-0.027-0.011-0.058-0.015-0.076-0.014l0,0
	c-0.101,0.006-0.13,0.042-0.165,0.068l0,0c-0.091,0.087-0.146,0.22-0.148,0.41l0,0c0,0.083,0.012,0.176,0.039,0.278l0,0
	c0.097,0.449,0.454,0.967,1.014,1.309l0,0c1.017,0.621,2.441,0.764,3.821,0.766l0,0c0.117,0,0.234-0.001,0.351-0.003l0,0
	c1.514-0.011,2.974-0.296,4.038-0.353l0,0c0.089-0.005,0.172-0.008,0.25-0.007l0,0c0.283-0.001,0.49,0.032,0.606,0.073l0,0
	c0.007,0.003,0.014,0.005,0.021,0.008l0,0c-0.114,0.11-0.24,0.219-0.38,0.327l0,0c-0.745,0.566-1.625,1.087-2.959,1.22l0,0
	c-0.645,0.063-1.258,0.103-1.917,0.103l0,0c-1.035,0-2.185-0.098-3.751-0.361l-0.004,0h-0.001l0,0
	c-0.006-0.001-0.369-0.051-0.885-0.051l0,0c-0.583,0-1.362,0.062-2.056,0.341l0,0c-0.018,0.007-0.047,0.021-0.082,0.036l0,0
	c-0.033,0.016-0.058,0.026-0.091,0.046l0,0c-0.096,0.051-0.299,0.162-0.73,0.403l0,0c-0.322,0.173-0.651,0.327-0.975,0.405l0,0
	c-0.18,0.044-0.337,0.065-0.471,0.065l0,0c-0.354-0.007-0.552-0.12-0.743-0.409l0,0c-0.001-0.002-0.002-0.004-0.003-0.006l0,0
	c0.022-0.02,0.085-0.063,0.15-0.092l0,0c0.226-0.118,0.258-0.13,0.478-0.277l0,0c0.404-0.267,0.602-0.442,0.853-0.728l0,0
	c0.291-0.332,0.404-0.677,0.403-0.962l0,0c0-0.172-0.039-0.323-0.108-0.443l0,0c-0.069-0.116-0.175-0.225-0.346-0.23l0,0
	c-0.001,0-0.002,0-0.002,0l0,0c-0.001,0-0.002,0-0.003,0l0,0l0,0l0,0l0,0c-0.001,0-0.002,0-0.002,0h0c-0.003,0-0.004,0-0.004,0l0,0
	l0,0c-0.063,0.003-0.1,0.028-0.12,0.044l0,0c-0.04,0.033-0.045,0.049-0.054,0.063l0,0c-0.026,0.044-0.038,0.075-0.064,0.13l0,0
	c-0.075,0.155-0.226,0.444-0.556,0.768l0,0c-0.247,0.242-0.576,0.503-0.962,0.743l0,0c-0.195,0.118-0.402,0.235-0.615,0.327l0,0l0,0
	c-0.045,0.018-0.055,0.031-0.084,0.049l0,0c-0.042,0.032-0.088,0.073-0.133,0.126l0,0c-0.042,0.052-0.087,0.11-0.106,0.209l0,0l0,0
	c-0.008,0.039-0.011,0.076-0.011,0.11l0,0c0,0.09,0.02,0.166,0.038,0.225l0,0c0.063,0.193,0.213,0.443,0.312,0.587l0,0
	c0.159,0.214,0.424,0.563,0.813,0.714v0.009l0.147,0.04l0,0c0.121,0.033,0.293,0.066,0.497,0.067l0,0
	c0.182,0,0.389-0.027,0.607-0.106l0,0c0,0,0.002-0.001,0.004-0.002l0,0c-0.025,0.116-0.045,0.259-0.045,0.42l0,0
	c0,0.172,0.024,0.365,0.096,0.559l0,0c0.015,0.047,0.083,0.246,0.254,0.473l0,0c0.187,0.25,0.507,0.536,1.005,0.663l0,0
	c0.01,0.002,0.228,0.059,0.511,0.059l0,0c0.191,0,0.415-0.025,0.626-0.127l0,0l0,0c0.059-0.029,0.478-0.229,0.682-0.707l0.001-0.003
	l0.001-0.003l0,0c0.004-0.014,0.091-0.242,0.091-0.557l0,0c0-0.245-0.054-0.55-0.256-0.827l0,0l0,0
	c-0.031-0.044-0.187-0.257-0.492-0.43l0,0c0.418-0.112,0.978-0.229,1.486-0.228l0,0c0.046,0,0.091,0.001,0.137,0.003l0,0
	c0.554,0.024,0.909,0.026,1.508,0.265l0,0c0.124,0.044,0.454,0.29,0.552,0.452l0,0c0.094,0.143,0.163,0.255,0.246,0.352l0,0
	c0.081,0.096,0.196,0.18,0.334,0.206l0,0c0.069,0.014,0.133,0.021,0.193,0.021l0,0c0.124,0.001,0.236-0.033,0.32-0.083l0,0
	c0.085-0.049,0.143-0.107,0.194-0.152l0,0c0.16-0.142,0.217-0.208,0.342-0.354l0,0c0.216-0.251,0.506-0.282,0.859-0.353l0,0
	c0.169-0.037,0.514-0.057,1.056-0.057l0,0c0.156,0,0.329,0.002,0.519,0.005h0.011l0.008-0.001l0,0
	c0.106-0.009,0.632-0.023,1.222-0.023l0,0c0.282,0,0.581,0.003,0.862,0.012l0,0c-1.658,0.842-5.692,2.947-5.693,2.947l-0.006,0.004
	l-0.002,0.002l0,0c-1.073,0.635-2.833,1.336-4.484,1.342l0,0c-0.022,0-0.044,0-0.066,0l0,0c-1.697-0.002-3.441-0.352-4.95-1.911l0,0
	c-1.195-1.236-1.71-2.804-1.711-4.44l0,0c0-0.771,0.116-1.556,0.33-2.324l0,0C10.079,9.864,11.826,8.009,13.557,7.008L13.557,7.008z
	 M19.857,10.867c-0.439,0-0.801-0.347-0.802-0.787l0,0c0-0.439,0.363-0.784,0.802-0.785l0,0c0.441,0.002,0.793,0.355,0.802,0.785
	l0,0h0.003c0,0.015-0.002,0.028-0.003,0.038l0,0C20.637,10.538,20.285,10.867,19.857,10.867L19.857,10.867L19.857,10.867
	L19.857,10.867z"></path>
<path fill-rule="evenodd" clip-rule="evenodd" fill="#007B9B" d="M35.69,19.991c0.026,0.043,0.033,0.092,0.036,0.143
	c0.005,0.682-0.061,1.393-0.186,1.933C33.694,29.995,26.543,36,18,36c-3.332,0-6.454-0.905-9.13-2.482c0,0-0.787-0.412-2.15-1.475
	c-0.656-0.524-1.175-0.967-1.752-1.604c-0.812-0.897-0.817-1.905-0.812-2.208c0.002-0.383,0.106-0.737,0.395-1.022l0.007-0.006
	l0.006-0.008c0.147-0.176,0.386-0.27,0.598-0.268c0.133,0,0.249,0.037,0.319,0.092c0.475,0.358,0.736,0.672,1.185,1.022
	c0.887,0.694,1.767,1.184,2.592,1.55c0.879,0.387,1.486,0.508,2.017,0.526c0.412,0.016,0.786-0.131,0.987-0.291
	c0.202-0.166,0.295-0.365,0.308-0.455c0.009-0.059-0.023-0.131-0.063-0.17c-0.072-0.072-0.252-0.109-0.4-0.152
	c-0.436-0.123-1.278-0.365-2.335-0.868H9.77l-0.003-0.002c-0.777-0.342-1.445-0.711-2.288-1.364
	c-0.392-0.305-1.447-1.284-1.611-1.407c-0.164-0.123-0.363-0.266-0.667-0.276c-0.164-0.006-0.57,0.115-0.88,0.297
	c-0.311,0.182-0.746,0.557-0.951,0.834c-0.269,0.365-0.375,0.819-0.372,1.319c0.002,0.336-0.131,0.195-0.165,0.152
	C0.989,24.878,0,21.597,0,18C0,8.059,8.058,0,18,0c9.245,0,16.841,6.945,17.886,16.019c0.081,0.704,0.125,0.944,0.011,0.993
	c-0.087,0.037-0.319-0.575-1.017-1.227c-0.46-0.429-0.935-0.774-1.254-0.917c-0.129-0.054-0.321-0.216-0.399-0.321
	c-0.048-0.061-0.081-0.151-0.125-0.267c-0.045-0.112-0.104-0.255-0.243-0.368c-0.116-0.093-0.255-0.136-0.384-0.135
	c-0.143,0.001-0.277,0.048-0.387,0.131c-0.13,0.101-0.334,0.273-0.527,0.37c-0.269,0.136-0.887,0.381-1.486,0.571
	c-0.517,0.165-2.195,1.164-2.288,1.036c-0.096-0.133,2.26-1.963,2.539-3.65c0.222-1.34,0.042-2.004-0.198-2.639
	c-0.448-1.398-4.761-6.282-11.958-5.616C11.53,4.594,7.979,8.621,7.304,13.398c-0.507,3.585,1.075,8.879,8.224,9.188
	c7.07,0.307,15.528-11.16,19.733-4.417c0.032,0.052,0.084,0.13,0.024,0.223c-0.039,0.059-0.098,0.037-0.256,0.038
	c-0.443,0.003-0.942,0.174-1.424,0.448c-0.48,0.275-0.94,0.656-1.282,1.098c-0.741,0.907-1.175,1.993-1.847,2.994
	c-0.656,1.047-1.432,2.104-2.295,3.079c-1.699,1.925-3.927,3.574-5.759,3.631c-0.069,0.004-0.133,0.004-0.194,0.004
	c-0.383,0-0.639-0.057-0.817-0.123c-0.178-0.066-0.275-0.137-0.361-0.193c-0.096-0.063-0.183-0.158-0.26-0.236
	c-0.055-0.057-0.127-0.105-0.232-0.107c-0.077-0.004-0.167,0.041-0.212,0.107c-0.046,0.065-0.058,0.133-0.058,0.197
	c0.003,0.162,0.075,0.336,0.233,0.573c0.3,0.455,0.865,0.913,1.995,0.918c0.023,0,0.047,0,0.072,0
	c2.274-0.008,4.651-1.792,6.51-3.728c0.948-0.997,1.799-2.081,2.515-3.154c0.749-1.065,1.261-2.181,1.831-2.812l0.003-0.002
	l0.002-0.002c0.951-1.129,1.69-1.221,1.948-1.223C35.433,19.897,35.625,19.881,35.69,19.991z M21.374,27.082
	c0-0.49,0.406-0.879,0.898-0.879l0,0c0.492,0,0.899,0.387,0.899,0.879l0,0c0,0.491-0.408,0.877-0.899,0.877l0,0
	C21.78,27.959,21.375,27.572,21.374,27.082L21.374,27.082z"></path>
<path fill="#75777B" d="M215.4,9.354c0,1.4-0.85,2.184-2.034,2.3v-0.933c0.651-0.133,0.967-0.633,0.967-1.334V9.204h-1.184V8.028
	c0,0,0.16-0.86,0.993-0.925h0.17h0.105h0.983v0.958v0.18V9.354 M50.807,21.288c3.154,0,5.363-1.675,5.363-4.486V16.76
	c0-2.488-1.652-3.626-4.828-4.398c-2.874-0.685-3.561-1.202-3.561-2.359V9.959c0-0.988,0.902-1.782,2.446-1.782
	c1.373,0,2.724,0.537,4.077,1.546l1.416-1.994c-1.522-1.223-3.261-1.89-5.449-1.89c-2.982,0-5.128,1.781-5.128,4.356v0.043
	c0,2.768,1.803,3.713,4.999,4.484c2.789,0.644,3.39,1.224,3.39,2.297v0.042c0,1.138-1.03,1.889-2.66,1.889
	c-1.867,0-3.304-0.708-4.741-1.954l-1.588,1.889C46.344,20.495,48.51,21.288,50.807,21.288z M63.508,21.329
	c2.082,0,3.561-0.834,4.634-2.122l-1.523-1.353c-0.901,0.88-1.802,1.353-3.068,1.353c-1.674,0-2.982-1.032-3.262-2.877h8.326
	c0.022-0.257,0.043-0.492,0.043-0.729c0-3.26-1.824-6.093-5.428-6.093c-3.24,0-5.537,2.661-5.537,5.9v0.043
	C57.694,18.949,60.226,21.329,63.508,21.329z M60.268,14.614c0.236-1.76,1.352-2.982,2.939-2.982c1.717,0,2.704,1.308,2.875,2.982
	H60.268z M112.176,21.329c2.082,0,3.563-0.834,4.634-2.122l-1.523-1.353c-0.901,0.88-1.802,1.353-3.068,1.353
	c-1.674,0-2.982-1.032-3.261-2.877h8.325c0.022-0.257,0.041-0.492,0.041-0.729c0-3.26-1.822-6.093-5.427-6.093
	c-3.24,0-5.536,2.661-5.536,5.9v0.043C106.362,18.949,108.894,21.329,112.176,21.329z M108.936,14.614
	c0.236-1.76,1.352-2.982,2.941-2.982c1.715,0,2.701,1.308,2.873,2.982H108.936z M131.73,21.329c2.81,0,4.526-1.028,6.091-2.66
	l-1.694-1.716c-1.286,1.202-2.466,1.953-4.311,1.953c-2.876,0-4.957-2.403-4.957-5.343V13.52c0-2.94,2.081-5.298,4.957-5.298
	c1.716,0,3.003,0.749,4.205,1.865l1.694-1.951c-1.438-1.374-3.111-2.339-5.88-2.339c-4.547,0-7.746,3.497-7.746,7.766v0.043
	C124.089,17.919,127.353,21.329,131.73,21.329z M153.738,21.073h2.595V9.745h-2.595V21.073z M75.066,21.31
	c1.768,0,2.899-0.946,3.701-2.124v1.888h2.487V9.315h-2.487v2.188c-0.782-1.051-1.912-1.995-3.701-1.995
	c-2.592,0-5.039,2.124-5.039,5.878v0.044C70.027,19.186,72.516,21.31,75.066,21.31z M75.662,19.057
	c-1.687,0-3.126-1.439-3.126-3.627v-0.044c0-2.252,1.419-3.625,3.126-3.625c1.665,0,3.146,1.437,3.146,3.625v0.044
	C78.807,17.597,77.326,19.057,75.662,19.057z M179.732,21.073h2.597V16.76c0-3.003,1.589-4.485,3.863-4.485h0.15V9.529
	c-1.997-0.085-3.304,1.073-4.014,2.768V9.745h-2.597V21.073z M90.507,11.975v-2.23h-3.046V4.682h-1.52
	c-0.617,0.018-1.025,0.402-1.077,1.176v3.886h-1.437v2.23h1.437v5.966c0,2.488,1.353,3.327,3.263,3.327
	c0.965,0,1.695-0.215,2.339-0.58v-2.124c-0.516,0.257-1.031,0.386-1.61,0.386c-0.88,0-1.395-0.407-1.395-1.417v-5.557H90.507z
	 M99.037,11.975v-2.23h-3.046V4.682h-1.516c-0.628,0.018-1.04,0.413-1.081,1.213v3.849h-1.437v2.23h1.437v5.966
	c0,2.488,1.352,3.327,3.262,3.327c0.966,0,1.695-0.215,2.339-0.58v-2.124c-0.516,0.257-1.031,0.386-1.61,0.386
	c-0.88,0-1.395-0.407-1.395-1.417v-5.557H99.037z M102.71,4.679c-0.605,0.005-1.014,0.354-1.099,1.064v15.33h2.597V4.679H102.71z
	 M146.424,9.509c-1.76,0-2.81,0.921-3.541,1.995V4.686h-1.567c-0.604,0.04-0.999,0.443-1.028,1.241v15.146h2.595v-6.394
	c0-1.76,1.051-2.811,2.552-2.811c1.546,0,2.425,1.009,2.425,2.768v6.437h2.595v-7.209C150.455,11.225,148.976,9.509,146.424,9.509z
	 M160.883,4.674c-0.576,0.041-0.958,0.417-1.012,1.152v15.247h2.597V4.674H160.883z M176.494,4.687v16.386h-2.595v-1.888
	c-0.836,1.178-2.017,2.124-3.861,2.124c-2.661,0-5.256-2.124-5.256-5.88v-0.044c0-3.754,2.55-5.878,5.256-5.878
	c1.866,0,3.046,0.944,3.861,1.995v-5.91c0.115-0.572,0.469-0.868,0.975-0.907H176.494z M173.94,15.386
	c0-2.187-1.544-3.625-3.281-3.625c-1.78,0-3.261,1.373-3.261,3.625v0.044c0,2.187,1.503,3.627,3.261,3.627
	c1.737,0,3.281-1.46,3.281-3.627V15.386z M193.398,21.329c2.079,0,3.56-0.834,4.633-2.122l-1.524-1.353
	c-0.901,0.88-1.802,1.353-3.068,1.353c-1.675,0-2.982-1.032-3.261-2.877h8.326c0.02-0.257,0.041-0.492,0.041-0.729
	c0-3.26-1.823-6.093-5.428-6.093c-3.24,0-5.534,2.661-5.534,5.9v0.043C187.583,18.949,190.113,21.329,193.398,21.329z
	 M190.156,14.614c0.237-1.76,1.35-2.982,2.941-2.982c1.716,0,2.702,1.308,2.872,2.982H190.156z M201.161,21.073h2.597v-6.394
	c0-1.76,1.051-2.811,2.552-2.811c1.544,0,2.425,1.009,2.425,2.768v6.437h2.595v-7.209c0-2.639-1.481-4.355-4.033-4.355
	c-1.759,0-2.81,0.921-3.539,1.995V9.745h-2.597V21.073z M220.418,21.288c2.358,0,4.205-1.18,4.205-3.563v-0.043
	c0-2.037-1.866-2.788-3.519-3.304c-1.331-0.428-2.554-0.772-2.554-1.588v-0.042c0-0.665,0.58-1.137,1.589-1.137
	c0.944,0,2.102,0.408,3.197,1.073l1.03-1.846c-1.202-0.793-2.745-1.289-4.162-1.289c-2.255,0-4.035,1.31-4.035,3.456v0.044
	c0,2.166,1.868,2.852,3.541,3.325c1.333,0.407,2.532,0.708,2.532,1.588v0.043c0,0.751-0.645,1.222-1.759,1.222
	c-1.161,0-2.489-0.471-3.713-1.394l-1.159,1.762C217.028,20.708,218.808,21.288,220.418,21.288z M155.07,7.51
	c0.799,0,1.446-0.648,1.446-1.447c0-0.797-0.647-1.445-1.446-1.445c-0.799,0-1.448,0.648-1.448,1.445
	C153.622,6.862,154.271,7.51,155.07,7.51z M45.733,32.733h0.93v-2.229h2.525v2.229h0.929v-5.289h-0.929v2.2h-2.525v-2.2h-0.93
	V32.733z M54.536,32.825c1.626,0,2.774-1.247,2.774-2.736v-0.016c0-1.489-1.133-2.72-2.757-2.72c-1.625,0-2.774,1.247-2.774,2.736
	v0.014C51.779,31.594,52.912,32.825,54.536,32.825z M54.553,31.969c-1.05,0-1.799-0.852-1.799-1.88v-0.016
	c0-1.028,0.733-1.866,1.782-1.866c1.052,0,1.8,0.852,1.8,1.882v0.014C56.336,31.131,55.603,31.969,54.553,31.969z M60.788,32.809
	c1.111,0,1.89-0.588,1.89-1.581v-0.014c0-0.877-0.582-1.278-1.7-1.549c-1.013-0.24-1.255-0.422-1.255-0.83v-0.016
	c0-0.348,0.317-0.625,0.862-0.625c0.485,0,0.96,0.188,1.435,0.541l0.499-0.702c-0.537-0.432-1.149-0.666-1.919-0.666
	c-1.051,0-1.807,0.627-1.807,1.534v0.018c0,0.975,0.635,1.307,1.761,1.577c0.982,0.229,1.195,0.43,1.195,0.809v0.016
	c0,0.401-0.363,0.666-0.938,0.666c-0.657,0-1.165-0.25-1.67-0.69l-0.56,0.664C59.216,32.528,59.98,32.809,60.788,32.809z
	 M64.309,32.733h0.929v-1.7h1.05c1.164,0,2.117-0.619,2.117-1.808v-0.014c0-1.065-0.78-1.768-2.011-1.768h-2.086V32.733z
	 M65.238,30.193v-1.901h1.081c0.696,0,1.141,0.324,1.141,0.942v0.018c0,0.551-0.439,0.942-1.141,0.942H65.238z M69.945,32.733h0.929
	v-5.289h-0.929V32.733z M74.119,32.733h0.937v-4.428h1.678v-0.862h-4.291v0.862h1.677V32.733z M77.117,32.733h0.952l0.544-1.276
	h2.501l0.536,1.276h0.982l-2.326-5.327h-0.863L77.117,32.733z M78.953,30.632l0.907-2.114l0.914,2.114H78.953z M84.077,32.733h3.71
	v-0.846h-2.781v-4.443h-0.929V32.733z M93.26,31.138c0.589,0,1.073-0.469,1.073-1.057v-0.016c0-0.59-0.492-1.057-1.073-1.057
	c-0.574,0-1.065,0.467-1.065,1.057v0.016C92.195,30.67,92.678,31.138,93.26,31.138z M99.132,32.733h0.929V30.89h1.148h0.016
	l1.299,1.843h1.095l-1.427-2.003c0.741-0.211,1.261-0.733,1.261-1.602v-0.014c0-0.461-0.158-0.856-0.439-1.141
	c-0.339-0.332-0.861-0.53-1.526-0.53h-2.357V32.733z M100.061,30.066v-1.774h1.351c0.69,0,1.097,0.309,1.097,0.875v0.016
	c0,0.535-0.424,0.883-1.088,0.883H100.061z M105.132,32.733h3.959v-0.83h-3.03v-1.421h2.653v-0.83h-2.653v-1.376h2.992v-0.832
	h-3.921V32.733z M112.582,32.809c1.111,0,1.89-0.588,1.89-1.581v-0.014c0-0.877-0.584-1.278-1.702-1.549
	c-1.013-0.24-1.254-0.422-1.254-0.83v-0.016c0-0.348,0.318-0.625,0.862-0.625c0.484,0,0.961,0.188,1.436,0.541l0.498-0.702
	c-0.537-0.432-1.149-0.666-1.92-0.666c-1.05,0-1.806,0.627-1.806,1.534v0.018c0,0.975,0.635,1.307,1.761,1.577
	c0.982,0.229,1.195,0.43,1.195,0.809v0.016c0,0.401-0.363,0.666-0.938,0.666c-0.657,0-1.163-0.25-1.67-0.69l-0.56,0.664
	C111.01,32.528,111.774,32.809,112.582,32.809z M116.102,32.733h3.958v-0.83h-3.029v-1.421h2.652v-0.83h-2.652v-1.376h2.992v-0.832
	h-3.921V32.733z M121.248,32.733h0.952l0.543-1.276h2.501l0.537,1.276h0.981l-2.325-5.327h-0.864L121.248,32.733z M123.083,30.632
	l0.907-2.114l0.915,2.114H123.083z M128.208,32.733h0.928V30.89h1.149h0.016l1.299,1.843h1.094l-1.426-2.003
	c0.741-0.211,1.26-0.733,1.26-1.602v-0.014c0-0.461-0.158-0.856-0.438-1.141c-0.34-0.332-0.862-0.53-1.526-0.53h-2.357V32.733z
	 M129.137,30.066v-1.774h1.354c0.688,0,1.094,0.309,1.094,0.875v0.016c0,0.535-0.424,0.883-1.088,0.883H129.137z M136.661,32.825
	c0.991,0,1.595-0.361,2.147-0.938l-0.598-0.604c-0.453,0.422-0.868,0.686-1.518,0.686c-1.014,0-1.747-0.844-1.747-1.88v-0.016
	c0-1.036,0.733-1.866,1.747-1.866c0.604,0,1.057,0.264,1.481,0.657l0.596-0.688c-0.506-0.485-1.094-0.823-2.069-0.823
	c-1.602,0-2.728,1.231-2.728,2.736v0.014C133.973,31.623,135.122,32.825,136.661,32.825z M140.319,32.733h0.93v-2.229h2.525v2.229
	h0.928v-5.289h-0.928v2.2h-2.525v-2.2h-0.93V32.733z M150.568,31.138c0.59,0,1.075-0.469,1.075-1.057v-0.016
	c0-0.59-0.492-1.057-1.075-1.057c-0.572,0-1.065,0.467-1.065,1.057v0.016C149.503,30.67,149.986,31.138,150.568,31.138z
	 M156.442,32.733h0.93V30.58h2.667v-0.846h-2.667v-1.442h3.007v-0.848h-3.937V32.733z M164.412,32.825
	c1.624,0,2.771-1.247,2.771-2.736v-0.016c0-1.489-1.133-2.72-2.757-2.72c-1.624,0-2.773,1.247-2.773,2.736v0.014
	C161.653,31.594,162.786,32.825,164.412,32.825z M164.426,31.969c-1.049,0-1.798-0.852-1.798-1.88v-0.016
	c0-1.028,0.733-1.866,1.784-1.866c1.049,0,1.798,0.852,1.798,1.882v0.014C166.21,31.131,165.477,31.969,164.426,31.969z
	 M171.017,32.817c1.383,0,2.274-0.793,2.274-2.374v-2.999h-0.93v3.046c0,0.973-0.504,1.471-1.329,1.471
	c-0.832,0-1.339-0.528-1.339-1.508v-3.009h-0.928v3.046C168.766,32.024,169.643,32.817,171.017,32.817z M175.106,32.733h0.914V28.97
	l2.915,3.763h0.78v-5.289h-0.915v3.658l-2.835-3.658h-0.86V32.733z M181.611,32.733h1.974c1.661,0,2.81-1.155,2.81-2.644v-0.016
	c0-1.489-1.149-2.63-2.81-2.63h-1.974V32.733z M182.541,31.887v-3.595h1.043c1.11,0,1.835,0.762,1.835,1.798v0.014
	c0,1.036-0.725,1.784-1.835,1.784H182.541z M187.241,32.733h0.952l0.545-1.276h2.501l0.535,1.276h0.983l-2.327-5.327h-0.862
	L187.241,32.733z M189.077,30.632l0.907-2.114l0.914,2.114H189.077z M194.82,32.733h0.936v-4.428h1.678v-0.862h-4.293v0.862h1.678
	V32.733z M199.004,32.733h0.928v-5.289h-0.928V32.733z M204.403,32.825c1.626,0,2.773-1.247,2.773-2.736v-0.016
	c0-1.489-1.133-2.72-2.757-2.72c-1.624,0-2.773,1.247-2.773,2.736v0.014C201.646,31.594,202.779,32.825,204.403,32.825z
	 M204.418,31.969c-1.049,0-1.8-0.852-1.8-1.88v-0.016c0-1.028,0.733-1.866,1.784-1.866c1.051,0,1.8,0.852,1.8,1.882v0.014
	C206.202,31.131,205.47,31.969,204.418,31.969z M208.84,32.733h0.915V28.97l2.917,3.763h0.778v-5.289h-0.914v3.658l-2.833-3.658
	h-0.862V32.733z M229.081,10.497c1.634,0,2.919-1.328,2.919-2.914V7.568c0-1.584-1.27-2.897-2.904-2.897
	c-1.633,0-2.92,1.328-2.92,2.912V7.6C226.176,9.184,227.446,10.497,229.081,10.497z M229.081,10.248
	c-1.504,0-2.639-1.191-2.639-2.648V7.583c0-1.456,1.14-2.663,2.654-2.663c1.506,0,2.639,1.191,2.639,2.648v0.015
	C231.735,9.041,230.595,10.248,229.081,10.248z M227.946,8.993h0.442V7.866h0.747h0.018l0.86,1.128h0.546l-0.924-1.2
	c0.45-0.106,0.774-0.395,0.774-0.878V6.899c0-0.241-0.097-0.442-0.241-0.578c-0.192-0.194-0.508-0.314-0.885-0.314h-1.335V8.993z
	 M228.388,7.472V6.41h0.875c0.429,0,0.686,0.2,0.686,0.513v0.017c0,0.339-0.29,0.531-0.708,0.531H228.388z"></path>
</svg>