<svg id="Layer_1" data-name="Layer 1" xmlns="http://www.w3.org/2000/svg" viewBox="0 0 585.22 307.71"><defs><style>.cls-1{fill:#db2943;}</style></defs><title>dansko_logo_tomato</title><path class="cls-1" d="M97.6,161.44A110.19,110.19,0,0,0,95.87,144h14.21a118.4,118.4,0,0,1,2,20c0,9.81.43,120,.43,121.55a5.3,5.3,0,0,0,2.16,3.9H101.3c-2.06,0-2.38-5.09-2.38-5.09s-1.95,5.09-9.41,5.09H44.15c-19.33,0-17.34-13-18-18V234.59c0-8.66,3-16.45,20.78-16.45H88.3c3.62,0,7.82.43,9.52,5.63C97.82,223.77,97.6,169.81,97.6,161.44Zm-51,120.9H91.18c4.27-.38,6.49-0.93,6.49-7.32V231.89c0-5.3-.9-6.17-6.56-6.17H47.9c-3.8,0-7.61-.38-7.61,6.89V276c0.09,0.54-1,6.39,6.31,6.39h0v-0.05Z" transform="translate(0 0)"/><path class="cls-1" d="M117,218h66.87c0.32,0,15.91,0,15.91,14.28v47.61a20.19,20.19,0,0,0,2.49,9.63l-13.59-.11c-1.15,0-2.1-3.9-2.1-3.9s-2.6,3.9-5,3.9h-50c-12.78,0-16.76-7.58-16.66-13.42v-21.7s-0.87-13,17.31-13,43.28-.22,43.28-0.22c0.33,0,10,1.16,10-4.76v-6c0-5-6.36-5.25-9.09-5.41H131.15c-5.84,0-15.15,2-15.15,2Zm19.23,64h43.1c1.58-.44,6.67,1.1,6.67-7V250.17c0-2.42-1-2-2.16-2H137.93c-9.7,0-9,3.21-9.38,7.5v18.9c0,9,5,6.65,7.65,7.43h0Z" transform="translate(0 0)"/><path class="cls-1" d="M202.62,289.34c1-3.68,1.24-3.57,1.24-10.17V226.8c0-6.49-1.84-8.87-1.84-8.87h16.56l-0.1,4.23c1-2.28,2.47-4.23,8-4.23H275.6c14.49,0,14.39,12.44,14.39,15.58v44.36a49.56,49.56,0,0,0,1.62,11.47H274.14a42.09,42.09,0,0,0,2.06-11.47v-45c0-8-2.6-8-11.74-8H225.93c-3.19,0-7.57.74-7.57,6.06v47.83a38.2,38.2,0,0,0,1.84,10.61H202.62v0Z" transform="translate(0 0)"/><path class="cls-1" d="M374.1,227.23l-1.66-9.38H311.63c-18.81,0-19.2,14.11-19,13.42v10.39c0,9.81,3.42,16.23,18,16.23,18.4,0,43.28.22,43.28,0.22,3.1,0,7.57-.61,7.57,6.93v10.6c0,3-.48,6.28-6.2,6.28H300.81a25.71,25.71,0,0,1-8.71-1.69l2,9.26h63.41c3.83,0,16.23-.73,16.23-10.6V259.41c0.16-3.32-1.12-13.63-15.65-13.63h-43c-3.84,0-8.44.73-8.44-6.93v-6.71c0-4.47,1-6.28,7.79-6.28H362.7A45.38,45.38,0,0,1,374.1,227.23Z" transform="translate(0 0)"/><path class="cls-1" d="M374.39,289.42h18.76a11.19,11.19,0,0,1-1.88-5.19c0-2.45-.14-23.81-0.14-23.81L407.3,250s32.1,32,42.71,42.56c11.29,11.37,28.41,13.27,45.72,15.15,0,0-21.35-7.5-33.47-20-10.56-10.94-42.85-45-42.85-45L458.8,218H441s0.29,1.15-3.9,3.89S391,251,391,251l-0.43-121.34h-16.9a34.93,34.93,0,0,1,2,12.55c0,7.79,1.73,133.89,1.73,138.5A16.41,16.41,0,0,1,374.39,289.42Z" transform="translate(0 0)"/><path class="cls-1" d="M457.06,272.55v-39s-1.3-15.15,19-15.15h48.48c20.2,0,19.48,11.31,19.48,18.61V272.5c0,17.15-9.38,16.88-20.78,16.88H475.67C456.44,289.43,457.06,278.52,457.06,272.55Zm19.33,9.73h45.3c7.91,0,8.08-2.85,8.08-6.35V232.07c0-6-2.31-6.35-6.93-6.35H478.13c-6.94,0-7.21,4-7.21,5.77v43.28c0,7.79,5.48,7.5,5.48,7.5h0Z" transform="translate(0 0)"/><path class="cls-1" d="M0,187.85c32.36-1.18,118.34.75,225.65-44.44,31.42-13.23,39.22-16.74,74.16-35.2,15.29-8.08,59.81-33.5,79.35-45,12.14-7.16,18.14-4.92,18.14-4.92,35.09,1.83,44.23,4.45,88.3-6.13,31-7.44,89.67-35.91,99.55-52.16,0,0,2.16,13-17.31,25.1s-56.27,26-78.34,31.6a261.35,261.35,0,0,1-61,7.79c-17.33,0-35.64-2.67-37.66-2-7.25,2.59-25,13.63-67.09,37.87a722.52,722.52,0,0,1-88.87,43.86C109.05,195.75,23.47,188.15,0,187.85Z" transform="translate(0 0)"/><path class="cls-1" d="M16.74,195.49a599.51,599.51,0,0,0,76.32-6.78c40.47-6.15,88.79-18,131.72-36.07,31.42-13.23,42.39-17.61,77.33-36.07,15.29-8.08,52.3-27.53,77-38.67,5.45-2.45,12.34-5,12.34-5L397.3,73c27,0.65,60.16,2.88,87.43.58,36-3,49.58-3.54,71-10.68,3.71-1.24,17.86-7.21,18.76-9.23a72.86,72.86,0,0,1-6.35,9.81c-4.68,5-8.31,11.52-18.75,13.52-17.62,3.36-32.46,5.48-53.09,5.48-20.2,0-44.73-.53-65.21-1.44-19.33-.87-35.49-2.74-39.24-1.73-14.93,4-34,15-76.18,36.36-18.08,9.16-47,23.08-85.12,38.67C105.77,205.42,3.93,195.33,16.74,195.49Z" transform="translate(0 0)"/><path class="cls-1" d="M90,195.64c13.67-1.13,71-9.23,146-37.8C301,133.12,365.89,100,376.55,94.65c4-2,15.87-6.06,15.87-6.06S403.1,90,408.29,90.9s49,7.5,58.58,8.66,41.26,6.35,57.42,4.62c8.34-.89,7.56-0.42,12.41-2.31,5.19-2,10.67-4.33,10.67-4.33S537.3,116.7,514.48,116c-28.28-.87-35.49-4-51.65-6.64-11.92-1.92-54.9-10.31-64.35-11.25-5.77-.58-11.25.58-17,2.6-7,2.45-126,54.84-152.36,63.77C178,181.79,139.08,191.6,90,195.64Z" transform="translate(0 0)"/><path class="cls-1" d="M173.56,184.82c15.65-2.89,39.75-8,73.36-19.48,8.87-3,14.75-4.65,32.25-11.69,37.82-15.2,96-38.78,100.42-41.12,2.46-1.3,12-4.9,12-4.9s8.61,2.2,13.85,4c9.88,3.46,35.58,9.38,47.32,12.7,10.53,3,30.17,5,36.93,5.77a116.58,116.58,0,0,0,21.71.14s-8.87,8.66-20.34,10a61.07,61.07,0,0,1-18,0c-8.15-1-28.21-6.71-38.23-9.52s-25.18-8.51-33-10.17-16.16-2.16-23.37.65c-4.74,1.85-44.87,17.48-73.8,28.35-15.11,5.68-25.73,9.29-29.72,10.6C205.59,183.08,173.56,184.82,173.56,184.82Z" transform="translate(0 0)"/><path class="cls-1" d="M564.52,225.6a7.15,7.15,0,1,1-7.15-7.15,7.15,7.15,0,0,1,7.15,7.15h0Zm-13.2,0a6.08,6.08,0,1,0,6.07-6.09,6.08,6.08,0,0,0-6.07,6.09h0Zm6-3.83c2.21,0,3.25.71,3.25,2.21a2.06,2.06,0,0,1-1.63,2.08l1.69,3.38H558.8l-1.5-3.12h-1.1v3.12h-1.69v-7.68h2.81Zm-1.11,3.38h1.09c1,0,1.56-.26,1.56-1S558.3,223,557.24,223h-1v2.21Z" transform="translate(0 0)"/></svg>