<?xml version="1.0" encoding="utf-8"?>
<!-- Generator: Adobe Illustrator 18.1.0, SVG Export Plug-In . SVG Version: 6.00 Build 0)  -->
<svg version="1.1" id="Layer_1" xmlns:svg="http://www.w3.org/2000/svg"
	 xmlns="http://www.w3.org/2000/svg" xmlns:xlink="http://www.w3.org/1999/xlink" x="0px" y="0px" viewBox="20 89.5 300 120.9"
	 enable-background="new 20 89.5 300 120.9" xml:space="preserve">
<g id="full-svg-transform" transform="translate(5 5) scale(0.7694246766593629) translate(-104.5 -194.55078125)">
	<g id="full-svg-wrapper">
		<polygon points="393.2,376.3 392.9,376.5 392.9,376.8 		"/>
		<path d="M234.1,428.7l-1.2-0.5l-0.7,0.9c-8.9,10.8-16.3,16.8-34.6,16.8c-11.2,0-21.4-4.3-29.3-12.2c-11.6-11.6-18-30.1-18-52.3
			c0-38.6,18-65.5,43.8-65.5c25.5,0,28.3,7.5,36.8,16.9l0.1,0.2l0.4,0.4h0.8h2.9h1.5l-0.3-0.9l-0.2-22.3l-0.2-1.2h-1.3h-5.1h-1
			l-0.4,0.9l-2.6,4.9c-9.2-7.8-19-10.5-35.6-10.5c-15.2,0-30.1,6.3-41.9,17.7c-15.3,14.8-24.1,35.8-24.1,59.5
			c0,23.4,7.9,44.2,22.4,58.6c12.9,12.8,29.6,19.5,48.6,19.5c26.6,0,35.4-13.5,45.7-27.1l0.6-0.8l-1.1-0.5L234.1,428.7z M216.1,392
			v-28.5c0-5.4,1-6.8,5.2-7.2h0.7v-6.8h-23.6v6.8c4.9,0,5.9,1.5,5.9,7.2v8.1h-16.5v-8.1c0-4.9,0-6.2,5.9-7.2v-6.8h-23.6v6.8
			c4.4,0.5,5.9,0.9,5.9,7.2V392c0,5.9-1.5,6.6-5.9,7.1v6.8h23.6v-6.8c-4.4-0.7-5.9-1-5.9-7.1v-12.4h16.5V392c0,5.4-1.5,7.1-5.9,7.1
			v6.8H222v-6.8C218.1,399.2,216.1,398.3,216.1,392z M247,392v-17.5v-11c0-5.4,1-6.7,5.3-7.1l0.6-0.1v-6.8h-23.6v6.8
			c4.4,0,5.9,1.5,5.9,7.2V392c0,5.4-1.5,7.1-5.9,7.1v6.8h23.6v-6.8C248.5,399.2,247,397.5,247,392z M297.9,351.4
			c-2.8-1.4-5.4-1.7-10.8-1.7h-24.6v6.8c4.4,0,5.9,1.5,5.9,7.2v28.5c0,5.4-1.5,7.1-5.9,7.1v6.8h23.6v-6.8c-4.5,0-5.9-1.5-5.9-7.1
			v-8.9h6.9c12.3,0,18.8-5.8,18.8-16.7C305.8,360,302.9,353.7,297.9,351.4z M282.3,375.7c-0.7,0-1.1,0-2.1-0.2v-0.5v-11.9
			c0-5.4,0.6-6,4.8-6c4.8,0,7.9,3.5,7.9,8.9C292.9,372.6,289.3,375.7,282.3,375.7z M343.6,351.4c-2.7-1.4-5.4-1.7-10.8-1.7h-24.6
			v6.8c4.4,0,5.9,1.5,5.9,7.2v28.5c0,5.4-1.5,7.1-5.9,7.1v6.8h23.6v-6.8c-4.5,0-5.9-1.5-5.9-7.1v-8.9h6.9c12.3,0,18.9-5.8,18.9-16.7
			C351.5,360,348.6,353.7,343.6,351.4z M328,375.7c-0.7,0-1.1,0-2.1-0.2v-12.3c0-5.4,0.6-6,4.8-6c4.8,0,7.9,3.5,7.9,8.9
			C338.6,372.6,335,375.7,328,375.7z M352.4,349.6v6.8c4.4,0.4,5.9,1.1,5.9,7.2v28.5c0,5.8-1.5,6.7-5.9,7.1v6.8h40.4l7.4-19.5
			l-4.7-2.7c-5.9,10.5-11.7,14.8-20,14.8c-2.9,0-4.5-0.7-5-2c-0.3-0.9-0.3-1.8-0.3-7.4v-9.8c6.5,0,7.9,1.3,8.8,9.1h5.2v-25.7h-5.2
			c-0.1,8.4-1.6,9-8.8,9v-7.1c0-7.2,0.5-7.7,6.8-7.7c6.7,0,12.2,4.1,16.9,12.4l4.5-2.8l-6.7-17h-39.2V349.6z M464.4,356.4v-6.8
			h-20.3v6.8c4.5,0.2,6,1.1,6,3.7c0,0.5-0.1,1.3-0.2,1.7l-6.5,27.1l-6.2-27.4c-0.2-0.9-0.3-1.7-0.3-2.3c0-2,1.2-2.7,4.7-2.8v-6.8
			h-21.1v6.8c2.4,0.1,3.3,1,4.3,4.5l2.1,7.5l-5.1,19.8l-5.8-27.1c-0.3-1.3-0.4-2-0.4-2.6c0-1.5,0.8-2.1,2.9-2.3v-6.8h-20.2v6.8
			c3.2,0.3,4.3,1.6,5.6,6.8l10.9,42.8h8.7l6.7-25.7l6.3,25.7h8.8l10.5-39.7C458,358.1,459.3,356.6,464.4,356.4z M475.9,349.6
			l-13.4,39.3c-2.5,7.6-4,9.2-8.9,10.3v6.8h20.8v-6.8c-1.7-0.3-6-0.3-6-3.3c0-2.5,1.9-7.5,2.7-10h14.5c0.8,2.7,2.7,8,2.7,10.6
			c0,1.5-1.4,2.1-5.6,2.5v6.8h24.6v-6.8c-5.3-1.1-5.8-3.1-7.7-9.2l-13.2-40.3H475.9z M473.3,378.6l5.2-16l4.9,16H473.3z M501.7,355
			h2l3,4.9h1.9l-3.3-5c1.6-0.2,3-1.1,3-3.2c0-2.2-1.4-3.3-4.1-3.3H500V360h1.7V355z M501.7,350h2.3c1.3,0,2.5,0.3,2.5,1.6
			c0,1.7-1.4,1.8-2.8,1.8h-2V350z M503.8,364.2c5.4,0,10.1-4.2,10.1-10c0-5.7-4.6-9.9-10.1-9.9c-5.4,0-10.1,4.2-10.1,9.9
			C493.8,360.1,498.3,364.2,503.8,364.2z M503.8,346c4.5,0,8,3.6,8,8.2c0,4.7-3.6,8.3-8,8.3c-4.5,0-8.1-3.5-8.1-8.3
			C495.7,349.6,499.3,346,503.8,346z"/>
		<polygon points="392.9,376.8 393.2,376.3 392.9,376.5 		"/>
		<path d="M283.3,446.4h-2.2c-0.5,0-0.7,0.2-0.9,0.3c-0.1,0.2-0.3,0.4-0.3,0.9l0.1,2.2h-7.8v-7.5h4.6l-0.1,1.3
			c0,0.5,0.1,0.7,0.3,0.9c0.1,0.2,0.4,0.3,0.9,0.3h2.2c0.7,0,1.2-0.5,1.2-1.2v-7c0-0.7-0.5-1.2-1.2-1.2h-2.2c-0.5,0-0.7,0.2-0.9,0.3
			c-0.1,0.2-0.3,0.4-0.3,0.9l0.1,1.5h-4.7v-7.6h7.1l-0.1,2.1c0,0.5,0.1,0.7,0.3,0.9c0.1,0.2,0.4,0.3,0.9,0.3h2.2
			c0.7,0,1.2-0.5,1.2-1.2v-5.2c0-0.7-0.5-1.2-1.2-1.2h-17.2c-0.7,0-1.2,0.5-1.2,1.2v2c0,0.7,0.5,1.2,1.2,1.2h1.5v19.4h-1.5
			c-0.7,0-1.2,0.5-1.2,1.2v1.9c0,0.7,0.5,1.2,1.2,1.2h18c0.7,0,1.2-0.5,1.2-1.2v-5.2C284.4,446.9,284,446.4,283.3,446.4z M305,442.7
			c-0.4-0.9-0.8-1.5-1.3-2c-0.5-0.6-1.2-1.1-2-1.5c-0.9-0.5-1.5-0.9-2-1.1c-0.5-0.2-1.4-0.5-2.6-1.1c-1.3-0.5-2.2-1.1-2.8-1.6
			c-0.6-0.6-0.9-1.4-0.9-2.3c0-1,0.3-1.6,1-2.1c0.7-0.5,1.5-0.8,2.7-0.8c1.1,0,2,0.2,2.9,0.7l-0.1,2.3c0,0.5,0.1,0.7,0.3,0.9
			c0.1,0.2,0.4,0.3,0.9,0.3h2.2c0.7,0,1.2-0.5,1.2-1.2v-5.4c0-0.6-0.4-1.1-1-1.3c-1.9-0.6-4-0.9-6-0.9c-2.9,0-5.2,0.8-6.9,2.4
			c-1.6,1.5-2.5,3.6-2.5,6s0.8,4.3,2.4,5.5c0.8,0.6,1.5,1.1,2.2,1.5c0.8,0.4,1.8,0.8,3.2,1.3c1.3,0.4,2.3,1,3.2,1.7
			c0.8,0.7,1.1,1.5,1.1,2.6c0,1.5-0.5,3.4-4.4,3.4c-0.8,0-1.5-0.1-2.2-0.4c-0.7-0.2-1.1-0.5-1.4-0.6l0.1-3c0-0.4-0.1-0.7-0.3-0.9
			c-0.1-0.2-0.4-0.3-0.9-0.3h-2.2c-0.7,0-1.2,0.5-1.2,1.2v6.2c0,0.6,0.4,1.1,1,1.3c2.2,0.7,4.5,1.1,6.8,1.1c3.1,0,5.6-0.8,7.4-2.3
			c1.7-1.5,2.6-3.7,2.6-6.5C305.5,444.6,305.3,443.6,305,442.7z M329.1,426.3h-20.5c-0.7,0-1.2,0.5-1.2,1.2v5.6
			c0,0.7,0.5,1.2,1.2,1.2h2.4c0.5,0,0.7-0.2,0.9-0.3c0.2-0.2,0.3-0.5,0.3-0.9l-0.2-2.5h4.2v19.3h-2.7c-0.7,0-1.2,0.5-1.2,1.2v1.9
			c0,0.7,0.5,1.2,1.2,1.2h10.9c0.7,0,1.2-0.5,1.2-1.2v-1.9c0-0.7-0.5-1.2-1.2-1.2h-2.7v-19.3h4.2l-0.2,2.5c0,0.5,0.1,0.7,0.3,0.9
			c0.1,0.2,0.4,0.3,0.9,0.3h2.4c0.7,0,1.2-0.5,1.2-1.2v-5.6C330.1,426.7,329.7,426.3,329.1,426.3z M335.9,453.8
			c-0.7,0.7-1.7,1.1-3,1.1c-1.3,0-2.2-0.4-3-1.1c-0.7-0.7-1.1-1.5-1.1-2.6s0.4-1.9,1.2-2.7c0.8-0.7,1.7-1.1,2.9-1.1
			c1.2,0,2.1,0.4,2.9,1.1c0.8,0.7,1.2,1.5,1.2,2.6S336.7,453.2,335.9,453.8z M341.3,426.3h9.1c0.4,0,0.7,0.1,0.8,0.2
			c0.1,0.2,0.2,0.4,0.2,0.8v22.4h3.8c0.4,0,0.7,0,0.8,0.2c0.1,0.2,0.2,0.4,0.2,0.8v2.3c0,0.4-0.1,0.7-0.2,0.8
			c-0.2,0.1-0.4,0.2-0.8,0.2h-13.5c-0.4,0-0.7-0.1-0.8-0.2s-0.2-0.4-0.2-0.8v-2.3c0-0.4,0.1-0.7,0.2-0.8c0.1-0.1,0.4-0.2,0.8-0.2
			h3.8v-19.2l-4.1,0.2c-0.4,0-0.7,0-0.8-0.2c-0.1-0.1-0.2-0.4-0.2-0.8v-2.5c0-0.4,0.1-0.7,0.2-0.8
			C340.7,426.3,341,426.3,341.3,426.3z M368.4,461.6c-6,0-9.1-2.7-9.6-8c0-0.4,0-0.7,0.2-0.8c0.1-0.1,0.4-0.2,0.8-0.2h3
			c0.4,0,0.7,0.1,0.9,0.2c0.1,0.1,0.3,0.6,0.4,1.5c0.4,1.9,1.9,2.9,4.5,2.9c5.2,0,7.9-4,8-12c-1.9,2.7-4.6,4-8.2,4
			c-3.6,0-6.2-1.1-8-3.1c-1.8-2.1-2.7-4.9-2.7-8.5s1.1-6.5,3.3-8.8c2.1-2.3,5.2-3.5,9.3-3.5c8.3,0,12.5,5.5,12.5,16.5
			C382.8,454.9,378,461.6,368.4,461.6z M370.1,444.4c1.6,0,3.1-0.5,4.3-1.4c1.2-0.9,1.9-2.1,2.1-3.8c0.1-0.4,0.1-1.1,0.1-1.9
			c0-2.1-0.5-4-1.5-5.5c-1-1.5-2.7-2.3-5-2.3c-4.3,0-6.4,2.4-6.4,7.4C363.7,441.9,365.8,444.4,370.1,444.4z M385.9,440.3
			c0-2.7,0.4-5,1.3-7.1c0.8-2,1.9-3.6,3.3-4.7c2.7-2.2,6-3.3,9.7-3.3s6.9,1.2,9.4,3.5c2.5,2.3,3.8,6.1,3.8,11.1
			c0,5-1.3,8.8-3.9,11.2s-6,3.6-10.1,3.6c-4.2,0-7.4-1.3-9.8-3.7C387,448.4,385.9,444.9,385.9,440.3z M392.2,440.2
			c0,3.1,0.6,5.5,1.7,7.3s3,2.6,5.5,2.6c2.5,0,4.5-0.8,5.6-2.4c1.3-1.6,1.8-4.2,1.8-7.6c0-7-2.5-10.4-7.5-10.4
			C394.7,429.6,392.2,433.2,392.2,440.2z M416.1,426.3h9.1c0.4,0,0.7,0.1,0.8,0.2c0.1,0.2,0.2,0.4,0.2,0.8v22.4h3.8
			c0.4,0,0.7,0,0.8,0.2c0.1,0.2,0.2,0.4,0.2,0.8v2.3c0,0.4-0.1,0.7-0.2,0.8c-0.2,0.1-0.4,0.2-0.8,0.2h-13.5c-0.4,0-0.7-0.1-0.8-0.2
			c-0.2-0.1-0.2-0.4-0.2-0.8v-2.3c0-0.4,0.1-0.7,0.2-0.8s0.4-0.2,0.8-0.2h3.8v-19.2l-4.1,0.2c-0.4,0-0.7,0-0.8-0.2
			c-0.2-0.1-0.2-0.4-0.2-0.8v-2.5c0-0.4,0.1-0.7,0.2-0.8C415.4,426.3,415.7,426.3,416.1,426.3z"/>
	</g>
</g>
</svg>
