<?xml version="1.0" encoding="utf-8"?>
<!-- Generator: Adobe Illustrator 23.0.4, SVG Export Plug-In . SVG Version: 6.00 Build 0)  -->
<svg version="1.1" id="Layer_1" xmlns="http://www.w3.org/2000/svg" xmlns:xlink="http://www.w3.org/1999/xlink" x="0px" y="0px"
	 viewBox="0 0 216.4 32.4" style="enable-background:new 0 0 216.4 32.4;" xml:space="preserve">
<title>georgia-logo</title>
<path d="M214.6,4.3c0.8,0,1.5-0.7,1.5-1.5c0,0,0,0,0,0c0-0.8-0.7-1.5-1.5-1.5s-1.5,0.7-1.5,1.5C213.1,3.6,213.8,4.3,214.6,4.3
	C214.6,4.3,214.6,4.3,214.6,4.3 M214.6,1c1,0,1.8,0.8,1.7,1.8s-0.8,1.8-1.8,1.7c-1,0-1.7-0.8-1.7-1.8C212.8,1.8,213.6,1,214.6,1
	C214.6,1,214.6,1,214.6,1z"/>
<path d="M214.6,2.8c0.1,0,0.2,0,0.3,0.1c0.1,0.1,0.1,0.3,0.1,0.5c0,0.1,0,0.3,0.1,0.4h0.3c-0.1-0.2-0.1-0.4-0.1-0.6
	c0-0.2-0.1-0.4-0.3-0.4l0,0c0.2-0.1,0.4-0.3,0.4-0.5c0-0.4-0.4-0.5-0.7-0.5h-0.8v2.1h0.3V2.8 M214.2,1.9h0.5c0.3,0,0.4,0.2,0.4,0.3
	c0,0.2-0.1,0.3-0.4,0.3h-0.5L214.2,1.9z"/>
<path d="M14,17.3h3.4c-0.5,1.8-2.2,2.9-4,2.8c-4.7,0-5.7-4.1-5.7-6.5c0-1.7-0.2-7.3,5.2-7.3c1.8,0,3.4,1.3,3.7,3.1h7.4
	C22.9,3.5,18.9,0,12.5,0C6.8,0,0,3.8,0,13.4c0,7.2,4.6,13,12,13c2.8,0.1,5.4-1,7.2-3.2l0.2,2.6h4.9V12H14L14,17.3z"/>
<path d="M35.3,7.1c-5.2-0.2-9.5,3.9-9.7,9.1c0,0.2,0,0.4,0,0.6c0,6.1,4.4,9.6,10.2,9.6c4.2,0,8-1.8,9.4-5.8h-6.5
	c-0.7,0.9-1.8,1.4-2.9,1.3c-2.2,0-3.4-1.5-3.6-3.6h13.4C45.8,11.2,42.6,7.1,35.3,7.1z M32.3,14.6c0.1-1.8,1.8-3.2,3.6-3.1
	c0,0,0,0,0,0c1.7,0,3,1.3,3,3c0,0,0,0.1,0,0.1L32.3,14.6z"/>
<path d="M56.6,7.2c-6.9,0-10,4.5-10,9.6s3.1,9.6,10,9.7s10-4.5,10-9.6S63.5,7.2,56.6,7.2z M56.6,21.3c-2.6,0-3-2.6-3-4.6
	s0.4-4.5,3-4.5s3,2.6,3,4.5S59.2,21.3,56.6,21.3L56.6,21.3z"/>
<path d="M93.4,9.9L93.4,9.9c-0.8-1.9-2.8-2.7-4.8-2.7c-2.9,0-5.6,1.6-6.9,4.2V7.5c-0.7-0.2-1.3-0.3-2-0.3c-2.6,0-4,1.2-5.2,3.4h-0.1
	V7.6h-6.7l-0.1,18.3h7v-7.2c0-3.9,1.5-5.5,4.2-5.5c0.7,0.1,1.4,0.2,2.1,0.4c-0.2,0.8-0.3,1.6-0.3,2.4c0,4.9,2.4,8.9,7.8,9
	c2,0.1,3.8-0.9,4.9-2.5h0.1v1.7c0,1.5-0.5,4.2-2.8,4.2c-0.8-0.1-1.6-0.6-2-1.4c-0.1-0.2-0.3-0.5-0.4-0.6h-7.1
	c0.6,4.9,5.2,6.1,9.6,6.1c8.6,0,9.5-5.1,9.5-8.7v-16h-7L93.4,9.9z M90.6,20.4c-2.5,0-3.1-2.4-3.1-4.5s1-3.6,3-3.6s3,1.6,3,3.6
	S93.2,20.4,90.6,20.4z"/>
<polygon points="101.9,26 108.9,26 109,7.7 102,7.7 "/>
<polygon points="102,5.7 109,5.7 109,0.8 102,0.8 "/>
<path d="M129.2,14.5c0-3.5,0.1-7.1-8.7-7.2c-4.3,0-9.2,0.8-9.4,6h6.5c0-0.8,0.5-1.9,2.6-1.9c1.1,0,2.3,0.5,2.3,1.7s-1,1.5-1.9,1.6
	c-3.6,0.6-10.3,0.4-10.4,6.2c0,3.8,2.9,5.5,6.4,5.5c2.2,0,4.4-0.5,5.9-2.2h0c0,0.6,0.1,1.2,0.2,1.7h7.1c-0.7-1.3-1-2.7-0.8-4.1
	L129.2,14.5z M122.5,19.5c0.1,1.5-1.1,2.8-2.7,2.9c-0.1,0-0.2,0-0.3,0c-1.1,0.1-2-0.6-2.2-1.7c0-1.2,0.8-1.6,2.4-2
	c0.9-0.2,1.9-0.5,2.7-0.9V19.5z"/>
<path d="M154.2,12.6c2-0.9,3.2-2.8,3.1-5c0-2.6-1.4-6.3-8-6.3h-13.8l-0.1,25.2h14.3c4.4,0,8.8-2.6,8.8-7.6
	C158.8,16,157,13.4,154.2,12.6z M143.2,7.4h4.1c1.6,0,2.6,0.5,2.6,1.7c0,1.6-1,2.1-2.6,2.1h-4.1V7.4z M147.7,20.5h-4.6v-4.7h4.9
	c1.8,0,2.7,0.8,2.7,2.3C150.8,20.1,149.4,20.5,147.7,20.5L147.7,20.5z"/>
<path d="M169.3,7.8c-6.9,0-10,4.5-10,9.6s3.1,9.6,10,9.7s10-4.5,10-9.6S176.2,7.8,169.3,7.8z M169.3,21.9c-2.7,0-3-2.6-3-4.5
	s0.4-4.5,3-4.5s3,2.6,3,4.5S172,21.9,169.3,21.9L169.3,21.9z"/>
<path d="M190.1,7.8c-6.9,0-10,4.5-10,9.6s3.1,9.6,10,9.7s10-4.6,10-9.6S197,7.9,190.1,7.8z M190.1,22c-2.7,0-3-2.6-3-4.6
	s0.4-4.5,3-4.5s3,2.6,3,4.5S192.7,22,190.1,22L190.1,22z"/>
<path d="M213.9,12.6V8.3h-3.7V2.6h-7v5.6H200l-0.1,4.3h3.2v8.7c0,5,3.3,5.5,6.2,5.5c1.5,0,3.1-0.2,4.5-0.2v-5.3
	c-0.5,0.1-1.1,0.1-1.6,0.1c-1.7,0-2.1-0.8-2.1-2.5v-6.4L213.9,12.6z"/>
</svg>
