<svg xmlns="http://www.w3.org/2000/svg" xmlns:xlink="http://www.w3.org/1999/xlink" id="logo-tbl-tblpro" viewBox="0 0 360 40" cursor="pointer" pointer-events="all"><style>.st0{fill:#fff}</style><a xlink:href="/"><path class="st0" d="M222.09 5.09c0-1.15.91-2.08 2.06-2.09a2.06 2.06 0 0 1 2.08 2.05 2.06 2.06 0 0 1-2.05 2.08c-1.12.03-2.04-.86-2.07-1.97v-.03l-.02-.04zm2.07 1.71c.94.05 1.75-.67 1.81-1.61v-.01c.05-.95-.67-1.76-1.62-1.81-.95-.05-1.76.67-1.81 1.62v.1c-.06.89.62 1.66 1.51 1.71h.11zm-.43-.54h-.36V3.91h.9c.55 0 .84.21.84.68.02.34-.24.63-.58.65l.66 1.03h-.4l-.61-1.02h-.42l-.03 1.01zm.43-1.32c.31 0 .57 0 .57-.39s-.26-.34-.5-.34h-.5v.73h.43zm-67.41.15c-.01-1.14.91-2.08 2.05-2.08s2.08.91 2.08 2.05a2.06 2.06 0 0 1-2.05 2.08c-1.12.03-2.06-.86-2.08-1.99v-.06zm2.08 1.71c.94.05 1.75-.67 1.81-1.61v-.01c.05-.95-.67-1.76-1.62-1.81-.95-.05-1.76.67-1.81 1.62v.1c-.06.89.62 1.66 1.51 1.71h.11zm-.47-.54H158V3.91h.89c.57 0 .84.21.84.68.02.34-.24.63-.58.65l.66 1.03h-.39l-.63-1.02h-.44v1.01zm.42-1.32c.31 0 .58 0 .58-.39s-.27-.34-.52-.34h-.48v.73h.42zM23.63 1.66c0 .09.03.18.08.26.47 1.78.89 3.57 1.28 5.38.27 1.28.53 2.57.78 3.86.1.57-.1 1.14-.52 1.54-.3.34-.72.56-1.18.61-.64.03-1.27-.23-1.7-.71-1.36-2.02-1.79-4.43-3.44-6.25a1.02 1.02 0 0 0-.4-.24 1.41 1.41 0 0 0-.48-.15.925.925 0 0 0-.63.1c-.08.06-.16.13-.23.21l-.19.17v28.8c-.01.53.19 1.04.55 1.42.35.37.81.63 1.31.73.49-.16.9-.5 1.15-.95.18-.37.27-.78.27-1.2v-14.8c.04-.28 0-.57-.11-.82-.1-.19-.24-.36-.42-.48-.36-.24-.71-.5-1.03-.79-.08-.1-.15-.2-.21-.31v-.08c-.11-.29.21-.61.42-.79.24-.21.52-.37.81-.5 1.24-.58 2.55-.97 3.83-1.47.48-.21.99-.42 1.47-.66.31-.16.67-.23 1.02-.19.24-.03.49-.03.73 0 .29.09.51.32.6.61.02.2.02.4 0 .6v19.39c0 .74.16 1.81.89 2.2.16.05.31.12.45.21.08.1.13.21.15.34.01.26-.05.52-.18.74-.45.53-1.13.81-1.83.76H20.4c-.31.03-.62-.01-.9-.13-.26-.14-.5-.31-.71-.52-.97.6-2.1.87-3.23.79h-3.93c-1.01.13-2.03.13-3.04 0-.32-.06-.63-.16-.92-.29-.26-.13-.53-.27-.61-.58-.03-.15-.03-.31 0-.47 0-.42.44-.57.78-.69.16-.06.31-.15.44-.26.13-.13.24-.28.31-.45.15-.3.24-.62.27-.95.03-.41.03-.83 0-1.24V13.44l-.15-6.93c-.22-.32-.61-.5-1-.45-.76-.01-1.21.84-1.61 1.38-.87 1.62-1.47 3.23-2.25 4.85-.26.53-.72.94-1.28 1.13-.78.25-1.63 0-2.15-.63-.9-1.15-.1-2.59 0-3.88l.52-2.36c.32-1.44.63-2.86.94-4.3.1-.45.37-1.16.9-1.28.25-.1.53-.1.78 0 .22.12.41.26.58.43.17.18.38.33.6.45.3.1.62.1.92 0h14.95c.53 0 .94-.52 1.36-.78.18-.18.41-.29.66-.32.33.06.61.28.76.58.09.1.17.21.24.33zm92.95.47c.29.32.42.76.36 1.2v30.99c-.05.67.05 1.34.31 1.96.15.32.37.6.66.81.13.05.25.13.36.21.09.1.14.22.16.36.08.25.08.51 0 .76-.36.95-1.39 1.08-2.31 1.08h-5.87c-.65.03-1.26-.28-1.62-.82-.12-.2-.18-.42-.18-.65-.03-.21.01-.43.13-.61.18-.16.37-.3.58-.42.2-.15.38-.31.53-.5.27-.45.39-.98.32-1.5V18.9c-.48 1.16 0 2.83-1.23 3.51-.61.23-1.3.07-1.75-.4-.23-.25-.41-.53-.53-.84-.08-.18-.15-.36-.21-.55-.11-.32-.1-.66-.55-.69-.29.01-.56.09-.81.24-.81.58-1.5 1.31-2.02 2.17-.52.82-.9 1.72-1.11 2.67-.21.98-.32 1.98-.34 2.99 0 .57 0 7.95.13 8.22.16.28.41.49.71.6.29.13.73.36.73.76-.01.43-.17.84-.45 1.16-.52.37-1.16.55-1.79.5h-7.06c-.46-.12-.83-.45-1-.89-.15-.35-.1-.76.13-1.07.42-.44 1.16-.32 1.36-1.02v-1.62l-.04-14.74c0-.78-.86-1.07-1.34-1.49-.14-.11-.25-.25-.32-.4a.707.707 0 0 1 0-.57c.2-.29.46-.52.78-.68.47-.29.97-.52 1.49-.69l1.94-.73.48-.19 1.41-.55c.41-.25.87-.4 1.34-.45.52 0 1.42.13 1.5.78.03.54.03 1.08 0 1.62-.02.29-.02.57 0 .86-.02.26.02.53.11.78.34.47.94-.74 1.1-.95.37-.53.79-1.03 1.24-1.49.86-.92 2.08-1.44 3.34-1.41.96-.14 1.93.24 2.54 1l.1-.27V8.8c.02-.29-.02-.58-.11-.86-.01-.25-.07-.51-.16-.74-.19-.27-.43-.51-.71-.69-.19-.15-.36-.34-.48-.55a.987.987 0 0 1 0-.79c0-.1.18-.19.26-.27l.29-.26c.19-.16.4-.31.61-.45.43-.25.89-.47 1.36-.65.95-.36 1.96-.61 2.88-1.03l.68-.37c.22-.19.48-.34.76-.44.23-.05.48-.05.71 0 .22.08.43.23.6.43zm88.64 3.57l1.07-.23s-1.62-3.65-2.31-5.51c.54-.04 1.09.01 1.62.13.82 1.37 2.28 4.1 2.28 4.1s2.54-1.44 3.81-2.07c.41.1.78.31 1.07.61l-3.89 3.46 1.15 3.23s2.75-3.88 4.12-5.74c.48.13.89.43 1.16.84-.55 1.02-1.39 1.96-1.81 2.92 1.62.13 3.31 0 4.94.21.46.46.84 1.01 1.1 1.62l-4.12.32-1.97 3.41 2.67-.58s2.1-.87 4.28-1.71c.36.48.62 1.03.78 1.62l-4.46 1.78-3.98.86c-.51.66-.96 1.36-1.36 2.08 3.54-.66 7-1.79 10.58-2.5 1.55 5.37.76 11.15-2.18 15.9-9.7 2.44-19.91-.66-29.91.68l-2.89.36a18.512 18.512 0 0 1-3.65-8.76c-.5-3.49-.1-7.05 1.18-10.34.29 0 4.69-.44 4.69-.44l-2.7-3.23c.2-.55.52-1.04.94-1.44 1.42 1.49 4.07 4.49 4.07 4.49l1.5-.13-4.67-5.3c.53-.76 1.18-1.42 1.92-1.96l3.94.71V1.87c.81-.47 1.69-.81 2.6-1 .79 1.39 1.37 2.89 2.21 4.28 1.02-1.62 1.89-3.44 2.8-5.2.13-.08.3-.08.44 0l2.98 5.75zm-2.86-1.96l-2.1 3.96 1.24 4.12 1.83-1.28.48-3.41c-.48-1.11-.93-2.29-1.45-3.39zm-6.09.23v1.99l.97.23c-.26-.74-.58-1.46-.97-2.15v-.07zm-5.1 2.38v.13c1.03 1.05 3.12 3.38 3.12 3.38V7.28l-3.12-.93zm15.86.93l-.92.6.19.68.84-.78-.11-.5zm-10.66.86l.13 3.68 1.41-3.23-1.54-.45zm17.01 1.62l-1.33.16-2.07 3.23h1.34l2.06-3.39zm-8.08 2.4l.16 3.77 2.83-3.6c.17-.22.29-.48.34-.76l-.53-1.71-2.8 2.3zm-6.12-.5l-.92 1.78 1.62 1.92c-.16-1.25-.41-2.5-.74-3.72l.04.02zm3.98 1.62l-1.08.53v1.5l.89.31.19-2.34zm-11.32.19l-1.52 2.34 3.1 1.2 2.57-2.23-.99-1.05-3.16-.26zm-6.35.47l2.68 1.24.84-1.39-3.52.15zm23.13 1.75l-1.42 2.34 1.62-.15 1.45-2.41-1.65.22zm-10.94.48l-4.85 4.01-2.34.1c.47-.51.89-1.05 1.28-1.62-.87-.41-1.76-.76-2.67-1.05l-1.81 2.29a5.53 5.53 0 0 0-1.62.19c-.04 1.86.18 3.71.65 5.51.18.45.31 1.23.99 1.16 4.72.16 9.42.58 14.09 1.24v-7.35c-.34-.62-.73-1.2-1.18-1.75l-2.2 1.29h-4.1s3.23-1.92 4.85-2.92c-.4-.39-.66-.89-1.2-1.15l.11.05zm-11.69.1c-.24.73-.31 1.51-.19 2.28.39-.61 1.33-1.84 1.33-1.84l-1.14-.44zm34.39.98l-1.73.48c.45.9 1.5 2.73 1.5 2.73h-2l-1.99-2.18-2.99.66.84 1.62-1.5.18-1.16-1.5s-4.27 1.23-6.35 1.89l-.13.19c0 2.31.19 4.61.45 6.9l.19.48c4.03.65 8.09 1.03 12.17 1.16l.47-.27c1.05-1.64 1.86-3.43 2.41-5.3.73-2.32.65-4.81-.23-7.08l.05.04zM66.89 1.9c.05.06.09.14.11.21.05.13.1.27.13.4v11.94c0 .26 0 .82.39.79s.36-.19.36-.19c.13-.15.28-.29.44-.42.2-.15.42-.25.66-.29.43-.11.88-.16 1.33-.15.55.02 1.1.12 1.62.31 1.12.43 2.09 1.19 2.8 2.17.71.95 1.26 2.01 1.62 3.13.4 1.08.71 2.2.94 3.33.15.79.27 1.62.42 2.39l.1-.1c.39-4.04 1.21-8.31 4.85-10.52.95-.55 2.02-.84 3.12-.82a7.2 7.2 0 0 1 3.23.66c.49.29.92.66 1.29 1.1.39.41.76.83 1.11 1.26.7.86 1.25 1.83 1.62 2.88.28.83.4 1.7.37 2.57v1.26c0 .42 0 .39-.1.58-.1.19 0 .5-.31.61-.6.31-1.23.55-1.84.81-.61.26-1.26.53-1.91.78-1.29.5-2.59.99-3.86 1.52l-.44.16c-.31.1-.5.41-.47.73.02.29.09.58.19.86.19.61.44 1.21.74 1.78.2.37.45.71.76 1 .53.43 1.17.71 1.84.81.63.24 1.34.16 1.91-.21.86-.78.19-3.09 2.08-2.5.41.1.8.27 1.15.5.39.24.66.63.74 1.08.15 1.13 0 2.28-.44 3.33-.18.44-.38.86-.6 1.28-.17.42-.43.79-.76 1.1a7.51 7.51 0 0 1-3.34 1.44c-.58.1-1.17.15-1.76.15a9.41 9.41 0 0 1-1.76-.11c-4.85-.99-6.46-6.09-7.19-10.33.02.12.02.24 0 .36v1.1c-.03.51-.09 1.02-.18 1.52-.15 1.34-.5 2.64-1.03 3.88-.25.58-.58 1.12-.97 1.62a5.77 5.77 0 0 1-3.12 1.79c-.94.21-1.91.24-2.86.1a7.216 7.216 0 0 1-3.43-1.41c-.32-.24-.58-.57-.74-.94-.11-.24-.26-.52-.55-.55s-.78.36-.95.69c-.17.38-.38.74-.61 1.08-.05.07-.1.13-.16.18-.25.19-.51.36-.79.5-.27.15-.58.25-.89.27-.58 0-.84-.44-1.15-.86-.9 1.02-2.25.69-3.47.76h-4.85c-.58-.09-1.06-.5-1.26-1.05-.03-.24.06-.48.24-.65l.31-.21c.13-.05.25-.11.36-.19.05-.05.09-.11.11-.18.02-.31.02-.61 0-.92.12-.46.16-.93.13-1.41-.15-3.68-.52-7.3-.94-10.96.02-1.46-.45-2.88-1.34-4.04a.652.652 0 0 0-.21-.16c-.71-.31-1.29.55-1.62 1.02a.4.4 0 0 0-.1.18v15.06c.08.38.23.74.42 1.07.15.28.38.5.66.63l.18.08c.25.25.3.64.13.95-.68 1.02-2.07.89-3.13.84H44.3c-.66.05-1.32.05-1.97 0-.83.07-1.65-.28-2.18-.92-.16-.39.01-.85.39-1.03.37-.12.68-.39.84-.74.24-.43.37-.92.37-1.42V20.05c0-.74-.9-1.05-1.47-1.07-.69.11-1.29.54-1.62 1.16-.42.84-.57 1.8-.42 2.73.11 2.68 0 5.36.1 8.08v4.85c0 .43.21.84.55 1.1.15.15.31.26.47.4s.36.27.37.48c.03.28-.06.56-.24.78-.11.17-.26.32-.44.42-.21.08-.42.13-.65.15-1.39.13-2.79.18-4.19.15H32.1c-.54.03-1.09-.01-1.62-.13-.39-.1-.72-.34-.94-.68-.13-.26-.23-.71 0-.94s.39-.21.55-.34c.18-.13.34-.28.47-.45.28-.49.44-1.05.44-1.62.02-.27.02-.54 0-.81V20.06c-.05-.37-.27-.69-.6-.87-.31-.18-.6-.39-.87-.61a.81.81 0 0 1-.24-.78c0-.24.32-.44.5-.58.21-.16.44-.31.68-.42.71-.36 1.47-.58 2.21-.87s1.89-.68 2.78-1.11c.32-.15.66-.25 1-.32.5-.1 1.62 0 1.7.68v.11c0 .4-.21 1.62.57 1.54.38-.12.69-.39.87-.74.23-.32.5-.61.81-.86.81-.62 1.81-.92 2.83-.86.52.01 1.03.08 1.54.21.5.09.99.28 1.42.55.3.25.57.53.79.86.15.21.42.79.68.86h.23c.86-.23.97-1.33 1.62-1.76 1.63-.83 3.57-.74 5.12.23 2.47 2.02 2.47 5.27 3.23 8.08.06.32.11.65.15.97l.15 1c.1.66.19 1.33.27 2 .16 1.34.31 2.7.39 4.07v2.04c-.05.7-.05 1.4 0 2.1-.02.73.35 1.42.99 1.79.14.07.27.16.37.27l.11-.21c.03-.1.03-.21 0-.31V8.3c-.1-.99-.57-1.9-1.31-2.55a.573.573 0 0 1-.21-.53c.03-.23.13-.44.29-.6.31-.34.67-.63 1.07-.87.52-.26 1.06-.47 1.62-.63l1.29-.55c.58-.15 1.13-.4 1.62-.76.36-.3.82-.46 1.29-.42.24 0 .47.06.68.18.09.09.18.2.25.33zm16.25 16.68c-.09.33-.14.67-.16 1.02 0 .32-.08.66-.11 1v1.96c.02.54.08 1.08.18 1.62.05.5.18.99.37 1.45.05.11.11.21.19.29.24.24.45 0 .69 0l.73-.32c.5-.2.97-.48 1.37-.84l.23-.24c.62-1.05.73-2.33.29-3.47-.43-1.13-.97-2.21-1.62-3.23-.23-.4-.9-.31-1.26-.13-.38.18-.7.5-.9.89zm-13.65-.78c-.44.18-.79.51-1 .94a19.423 19.423 0 0 0-1.28 10.52c.15.86.37 1.71.66 2.54.13.41.31.81.53 1.18.18.29.44.74.79.79.36.05.94-.42 1.18-.78.24-.42.45-.86.61-1.31.29-.75.51-1.52.65-2.31.27-1.55.33-3.12.16-4.69-.18-1.96-.58-3.89-1.18-5.77-.2-.4-.57-1.2-1.12-1.11zM173.37 2.13v31.9c.02.36.24.69.58.82.32.13.87.16.95.65.06.27.06.55 0 .82-.05.26-.19.49-.39.66-1.18.62-2.41 1.16-3.67 1.62-.48.18-.97.36-1.47.5l-.73.23c-.23.05-.46.11-.68.19-.49.19-1.04.15-1.5-.11-.27-.19-.13-.53-.1-.79s-.1-.78-.44-.52c-.61.5-1.31 1.62-2.13 1.62-2.03.31-4.09-.37-5.54-1.83-3.23-3.68-2.99-9.44-2.28-14.19.4-3.26 1.86-6.3 4.15-8.65a4.58 4.58 0 0 1 3.98-1.08c.73.11 1.26.74 1.84 1.15.07-.02.14-.05.19-.1.1-.13.14-.29.1-.45V7.72c-.05-.29-.21-.55-.44-.74-.24-.22-.5-.43-.78-.61-.45-.34-1-.78-.81-1.41.08-.33.3-.61.6-.76.6-.19 1.29 0 1.86-.29 1.73-.97 3.62-1.62 5.43-2.46a.71.71 0 0 1 .87.08c.22.15.36.36.41.6zm-9.32 15.8c-.1.02-.19.06-.26.13a3.72 3.72 0 0 0-.9 2.1c-.19.94-.4 1.87-.55 2.83-.54 2.93-.32 5.95.63 8.77.13.38.31.74.53 1.07.11.17.23.34.36.5.12.16.28.3.45.4.61.32 1.07-.15 1.31-.69.29-.66.53-1.35.71-2.05.39-1.59.55-3.22.48-4.85-.07-1.68-.3-3.35-.68-4.99-.15-.65-.37-1.28-.66-1.87-.27-.47-.86-1.42-1.42-1.39v.04zm-11.47-.9c.75 1.23 1.26 2.59 1.5 4.01.84 4.64 1.42 9.32 1.73 14.03.02.31.06.61.15.9.05.27.17.53.36.74a.7.7 0 0 0 .26.19c.34.19.69.36.69.79 0 .37-.16.72-.44.97-.3.2-.66.31-1.02.31-1.39.12-2.78.17-4.17.13h-2.47c-.64.01-1.23-.35-1.5-.94-.15-.41.03-.87.42-1.07.42-.18.74-.54.86-.99.3-1.3.36-2.65.18-3.98-.08-1.39-.23-2.78-.45-4.15-.24-1.34-.53-2.68-.86-4.01-.15-.52-.27-1.05-.42-1.62-.15-.57-.26-1.03-.44-1.54-.19-.58-.59-1.08-1.11-1.39-.4-.15-.85.03-1.03.42a5.33 5.33 0 0 0-.11 1.91v12.93c-.03.4-.03.8 0 1.2.06.34.25.63.52.84.29.27.81.58.86 1.02.01.25-.08.49-.26.66-.2.25-.48.42-.79.48-1.18.16-2.37.24-3.55.23h-3.23c-.32.02-.63-.02-.94-.1-.23-.08-.44-.21-.61-.37-.08-.08-.16-.17-.23-.26-.06-.09-.11-.2-.15-.31-.23.16-.58.58-.87.86-.46.37-1.03.6-1.62.66-.6.15-1.23.15-1.83 0l-.11-.31c-.26-.11-.5-.26-.73-.42-.5-.36-.97-.74-1.42-1.16h-.68c-.18.18-.37.35-.58.5-.23.19-.47.36-.73.52-.51.31-1.05.56-1.62.74-1.16.4-2.42.4-3.57 0-.56-.19-1.11-.44-1.62-.74-.5-.32-.97-.71-1.37-1.15a5.592 5.592 0 0 1-1.6-3.13c-.16-1.03-.22-2.08-.18-3.12.07-1.01.34-2 .79-2.91 1.62-2.89 4.85-4.3 7.84-5.28 0 0 .37-.08.4-.15.45-1.14.49-2.41.1-3.57-.06-.19-.15-.38-.26-.55-.08-.19-.17-.36-.27-.53-.2-.47-.67-.76-1.18-.73h-1.65c-.18-.05-.37-.05-.55 0-.16.03-.27.16-.27.32-.02.04-.02.08 0 .11.21.36.61.52.89.81.27.44.39.97.32 1.49.03.57-.11 1.13-.4 1.62a.91.91 0 0 1-.29.36c-1.23.84-2.83.9-4.12.16a3.703 3.703 0 0 1-1.16-2.97c-.04-.55.05-1.1.26-1.62.2-.47.48-.9.84-1.26.63-.66 1.39-1.17 2.25-1.49 2.41-.66 4.93-.79 7.4-.39a4.86 4.86 0 0 1 3.8 2.83c.79 2.45 1.28 4.98 1.44 7.55.11 1.37.19 2.75.26 4.1s.13 2.75.21 4.1c0 .53 0 1.2.5 1.5h.5c1.1 0 1.23 1.42 1.23 2.29l.45-.15c.14-.08.28-.17.4-.27.57-.73.8-1.66.63-2.57V19.9c-.1-1.28-3.23-1.83-1.05-3.09.61-.32 1.24-.6 1.89-.84l1.89-.82 1.62-.76.24-.11c.31-.06.63-.06.94 0 .31.02.6.14.84.34.21.27.13 1.42.57 1.49.44.06.74-1 .99-1.23.79-.79 1.95-1.12 3.04-.86 1.41.61 2.63 1.66 3.45 3.01zm-26.63 9.48l-.32.24c-.6.48-1.02 1.15-1.2 1.89-.16.64-.24 1.31-.23 1.97v2.33c0 1.03.58 1.98 1.5 2.44.78.27 1.65.01 2.15-.65.04-2.79-.09-5.59-.37-8.37-.18-.42-.63-.4-1-.24-.19.12-.37.25-.53.39zm93.17 5.25a18.59 18.59 0 0 1-4.52 4.46c-9.11-.13-17.48-2.6-26.37-3.02-.32-.24-.55-.56-.68-.94 6.93-1.21 13.96-.53 20.83-.11 3.61.18 7.22-.06 10.78-.71l-.04.32zm-13.64 4.3c2.63.29 5.3.52 7.95.86a19.897 19.897 0 0 1-19.96.55c-1.64-.92-3.13-2.09-4.41-3.46 0-.19.39 0 .58-.13l3.78.32 12.06 1.86z"></path><path fill="none" d="M0 0h241v40H0z"></path></a><path class="st0" d="M241.68 0h1.22v40h-1.22z"></path><a xlink:href="/timberlandpro.html"><path class="st0" d="M357.95 2.1c-1.12 0-2.06.88-2.06 2.08 0 1.21.95 2.09 2.06 2.09 1.1 0 2.05-.88 2.05-2.09 0-1.2-.95-2.08-2.05-2.08zm0 3.81c-.93 0-1.65-.74-1.65-1.74 0-.99.72-1.73 1.65-1.73.92 0 1.64.74 1.64 1.73 0 1.01-.72 1.74-1.64 1.74zm.93-2.25c0-.48-.27-.69-.83-.69h-.89v2.4h.35V4.34h.41l.62 1.04h.4l-.67-1.06c.35-.04.61-.23.61-.66zm-1.36.37v-.74h.48c.25 0 .51.06.51.35 0 .37-.27.39-.57.39h-.42zM308.76 24.7c.73.58 16.79 15.3 16.79 15.3h-16.44l-14.99-15.59c2.94-3.85 2.92-6.62 2.92-6.62l.67.05c2.35 0 4.7-.37 4.7-3.32 0-3.06-2.14-3.43-4.6-3.43h-.95s-.79-7.41-9.04-10.89h12.19c8.85 0 16.34 3.81 16.34 13.84 0 6.01-2.29 8.54-7.59 10.34v.32zm-12.9-9.88c0 8.1-5 13.15-12.97 13.15h-6.28v-10h.39c2.5 0 5.21-.42 5.21-3.63 0-3.1-2.92-3.26-5.27-3.26h-1.35v6.89h.02v10h-.02V40h-13.74V.2h18.07c9.17 0 15.94 4.76 15.94 14.62zm50.97 2.38c.45-.68.78-1.43 1.36-2.08l3.96-.84 4.45-1.79c-.16-.62-.39-1.17-.78-1.69-2.18.84-4.27 1.71-4.27 1.71l-2.68.59 1.96-3.4 4.13-.33c-.2-.62-.69-1.17-1.1-1.66-1.63-.13-3.29-.07-4.94-.2.42-.97 1.27-1.91 1.82-2.92-.29-.35-.69-.78-1.17-.84-1.37 1.85-4.12 5.72-4.12 5.72l-1.14-3.22 3.89-3.45c-.29-.29-.68-.55-1.07-.61-1.3.68-3.83 2.11-3.83 2.11s-1.46-2.72-2.28-4.09c-.52-.13-1.07-.17-1.66-.13.69 1.85 2.31 5.49 2.31 5.49l-1.07.23-2.93-5.75c-.13-.1-.33-.03-.42.04-.91 1.76-1.79 3.57-2.8 5.2-.85-1.4-1.43-2.89-2.21-4.29-.88.16-1.79.55-2.59 1.01-.06 1.17-.03 3.28-.03 3.28l-3.93-.72c-.68.49-1.46 1.24-1.92 1.95l4.65 5.29-1.5.13s-2.65-3.01-4.06-4.49c-.36.46-.84.88-.94 1.43l2.71 3.27s-4.41.39-4.69.43c-1.27 3.09-1.66 6.86-1.17 10.34.55 3.19 1.59 6.24 3.64 8.76l2.89-.36c9.97-1.34 20.21 1.75 29.86-.68 2.89-4.53 3.8-10.58 2.21-15.94-3.55.72-7 1.85-10.54 2.5zm.55-7.21l1.32-.16-2.04 3.38-1.34.04 2.06-3.26zm-1.83 5.55l-1.45 2.4-1.63.15 1.43-2.34 1.65-.21zm-3.19-8.1l.11.51-.83.77-.19-.68.91-.6zm1.02 2.5l.54 1.7s-.09.49-.34.75L340.75 16l-.16-3.77 2.79-2.29zm-8.9 1.8c.33 1.2.59 2.4.81 3.67l-1.69-1.92.88-1.75zm-2.86-7.59c.36.72.75 1.43.98 2.21l-.98-.23V4.15zm1.62 4.64l-1.4 3.18-.12-3.67 1.52.49zm-6.71-2.15v-.12l3.12.87V10s-2.08-2.32-3.12-3.36zm.64 6.89l3.15.26.97 1.04-2.55 2.24-3.09-1.2 1.52-2.34zm-2.83.31l-.84 1.39-2.68-1.25 3.52-.14zm-1.89 2.91s-.93 1.23-1.32 1.85c-.07-.68-.1-1.62.19-2.27l1.13.42zm14.3 11.28c-4.75-.49-9.25-1.23-14.06-1.23-.69.06-.81-.72-.97-1.17-.36-1.79-.78-3.58-.65-5.49.42-.2 1.04-.13 1.59-.2l1.72-2.31c.87.26 1.82.66 2.67 1.05-.33.59-1.27 1.65-1.27 1.65l2.34-.1 4.86-4c.52.26.78.75 1.2 1.17-1.53 1.01-4.86 2.86-4.83 2.92l4.02-.03 2.19-1.3c.33.39.96 1.26 1.18 1.75v7.29zm1.56-12.35l-.89-.31-.07-1.5 1.08-.53-.12 2.34zm.36-5.02l-1.82 1.28-1.24-4.07 2.09-3.95c.52 1.04.97 2.21 1.46 3.34l-.49 3.4zm17.13 13.76c-.61 1.85-1.27 3.67-2.4 5.31l-.4.16c-4.19-.23-8.19-.43-12.16-1.18l-.2-.49c-.26-2.24-.42-4.55-.45-6.89l.13-.19c2.08-.65 6.34-1.89 6.34-1.89l1.16 1.51 1.5-.18-.83-1.55s2.07-.46 2.98-.66l1.85 2.21 2.08-.07s-1.04-1.82-1.5-2.73l1.72-.49c.99 2.03.83 4.99.18 7.13zm-1.33 7.1l-.03.33c-1.21 1.63-2.77 3.29-4.52 4.45-9.1-.13-17.46-2.6-26.32-3.02-.29-.26-.59-.55-.68-.94 6.92-1.21 13.93-.52 20.79-.1 3.57.16 7.35-.07 10.76-.72zm-13.65 4.65c2.63.29 5.3.52 7.93.84-5.49 3.83-14.24 3.9-19.91.55-1.56-.98-3.22-2.02-4.45-3.48.07-.2.39-.04.58-.13l3.77.32 12.08 1.9z"></path><path fill="none" d="M243 0h117v40H243z"></path></a></svg>